<svg width="24" height="25" viewBox="0 0 24 25" fill="none" xmlns="http://www.w3.org/2000/svg">
<g clip-path="url(#clip0_1_8702)">
<path d="M0.637695 12.125C0.637695 17.0374 3.7877 21.1999 8.1377 22.7374V1.51245C3.7877 3.04995 0.637695 7.21245 0.637695 12.125Z" fill="#75A843"/>
<path d="M23.1377 12.125C23.1377 7.21245 19.9877 3.04995 15.6377 1.51245V22.7374C20.0252 21.1999 23.1377 17.0374 23.1377 12.125Z" fill="#ED4C5C"/>
<path d="M8.1377 22.7375C9.3002 23.15 10.5752 23.375 11.8877 23.375C13.2002 23.375 14.4752 23.15 15.6377 22.7375V1.5125C14.4752 1.1 13.2002 0.875 11.8877 0.875C10.5752 0.875 9.3002 1.1 8.1377 1.5125V22.7375Z" fill="white"/>
</g>
<defs>
<clipPath id="clip0_1_8702">
<rect width="24" height="24" fill="white" transform="translate(0 0.125)"/>
</clipPath>
</defs>
</svg>
