<svg width="24" height="25" viewBox="0 0 24 25" fill="none" xmlns="http://www.w3.org/2000/svg">
<g clip-path="url(#clip0_1_8706)">
<path d="M23.25 12.125C23.25 7.21245 20.1375 3.04995 15.75 1.51245V22.7374C20.1375 21.1999 23.25 17.0374 23.25 12.125Z" fill="#ED4C5C"/>
<path d="M0.75 12.125C0.75 17.0374 3.9 21.1999 8.25 22.7374V1.51245C3.9 3.04995 0.75 7.21245 0.75 12.125Z" fill="#3E4347"/>
<path d="M15.75 1.5125C14.5875 1.1 13.3125 0.875 12 0.875C10.6875 0.875 9.4125 1.1 8.25 1.5125V22.7375C9.4125 23.15 10.6875 23.375 12 23.375C13.3125 23.375 14.5875 23.15 15.75 22.7375V1.5125Z" fill="#FFE62E"/>
</g>
<defs>
<clipPath id="clip0_1_8706">
<rect width="24" height="24" fill="white" transform="translate(0 0.125)"/>
</clipPath>
</defs>
</svg>
