<svg width="25" height="25" viewBox="0 0 25 25" fill="none" xmlns="http://www.w3.org/2000/svg">
<g clip-path="url(#clip0_1_8710)">
<path d="M12.5 23.375C18.7132 23.375 23.75 18.3382 23.75 12.125C23.75 5.9118 18.7132 0.875 12.5 0.875C6.2868 0.875 1.25 5.9118 1.25 12.125C1.25 18.3382 6.2868 23.375 12.5 23.375Z" fill="#F42F4C"/>
<path d="M18.8375 15.8375C18.5 15.2375 17.5625 15.6875 17.075 15.6875C17.3375 15.4625 18.0125 14.975 18.3875 14.975C18.125 14.75 17.6375 14.9375 17.45 15.1625C16.775 15.95 16.3625 15.5375 15.3875 15.2375C16.175 14.4125 13.1375 13.8125 14.1125 13.1375C14.3 12.9875 14.6375 14.3 15.1625 14.075C15.3875 14 14.3 13.1375 14.8625 12.95C15.05 12.875 15.8 15.0875 16.325 14.1875C16.5125 13.85 15.1625 13.55 15.5375 12.875C15.275 13.3625 18.8375 15.2 18.3875 14C18.1625 13.4375 15.9875 13.85 16.175 12.3875C16.1375 12.7625 18.6875 13.9625 18.425 12.875C18.35 12.6125 15.8375 12.8 16.2875 11.6C16.3625 11.4125 18.5 13.0625 18.425 11.8625C18.3875 11.4125 16.1375 11.75 16.3625 10.775C16.3625 10.7375 18.6875 11.75 18.425 10.7C18.3875 10.55 15.8375 10.85 16.325 9.95001C16.1 10.3625 19.3625 10.175 18.3875 9.35001C18.05 9.08751 16.625 10.3625 16.325 9.23751C16.3625 9.38751 19.1375 9.01251 18.35 8.22501C18.1625 8.00001 16.4 9.38751 16.3625 8.48751C16.3625 8.30001 18.6875 7.21251 18.35 6.65001C17.9375 5.97501 15.65 7.85001 15.3875 7.96251C13.625 8.78751 15.3875 8.30001 14.525 9.35001C14 9.95001 13.5875 9.01251 13.7375 8.60001C14.0375 7.73751 15.8375 7.85001 15.9125 7.28751C15.65 7.47501 15.3875 7.43751 15.1625 7.28751C15.2 7.28751 17.075 7.02501 16.4375 6.76251C16.3625 6.72501 16.1375 6.87501 15.9125 6.98751C15.95 6.08751 13.5125 6.76251 13.25 6.80001C14.2625 7.66251 12.425 7.17501 13.475 7.62501C13.2125 7.66251 12.9875 7.77501 12.7625 7.96251C13.25 8.00001 12.5 8.56251 12.5 8.56251C12.5 8.56251 11.75 8.03751 12.2 7.92501C12.0125 7.73751 11.75 7.62501 11.4875 7.58751C12.5375 7.13751 10.7 7.62501 11.7125 6.76251C11.4875 6.76251 9.0125 6.05001 9.05 6.95001C8.825 6.83751 8.6 6.72501 8.525 6.72501C7.925 6.98751 9.7625 7.25001 9.8 7.25001C9.575 7.43751 9.3125 7.43751 9.05 7.25001C9.125 7.81251 10.925 7.70001 11.225 8.56251C11.375 8.97501 10.9625 9.91251 10.4375 9.31251C9.5375 8.26251 11.3 8.75001 9.575 7.92501C9.3125 7.81251 7.025 5.93751 6.6125 6.61251C6.275 7.17501 8.6 8.26251 8.6 8.45001C8.525 9.35001 6.8 7.96251 6.6125 8.18751C5.825 8.97501 8.6 9.35001 8.6375 9.20001C8.375 10.325 6.9125 9.05001 6.575 9.31251C5.6 10.1 8.8625 10.325 8.6375 9.91251C9.0875 10.775 6.575 10.5125 6.5375 10.6625C6.275 11.7125 8.6 10.7 8.6 10.7375C8.825 11.75 6.575 11.375 6.5375 11.825C6.4625 13.025 8.6 11.4125 8.675 11.5625C9.125 12.7625 6.6125 12.575 6.5375 12.8375C6.2375 13.9625 8.825 12.7625 8.7875 12.35C8.975 13.8125 6.8 13.4 6.575 13.9625C6.125 15.1625 9.6875 13.325 9.425 12.8375C9.8 13.5125 8.45 13.8125 8.6375 14.15C9.1625 15.05 9.9125 12.8375 10.1 12.9125C10.6625 13.1 9.575 13.9625 9.8 14.0375C10.325 14.2625 10.6625 12.95 10.85 13.1C11.825 13.775 8.7875 14.375 9.575 15.2C8.6 15.5 8.15 15.9125 7.5125 15.125C7.325 14.9 6.8 14.75 6.575 14.9375C6.95 14.9375 7.625 15.4625 7.8875 15.65C7.4 15.65 6.4625 15.2 6.125 15.8C6.5375 15.6125 7.475 15.8 7.8875 15.8375C7.4375 16.2125 6.6125 15.95 6.7625 16.8875C6.9875 16.1375 9.2375 15.575 9.5 16.625C9.7625 16.1375 8.7125 15.875 8.4875 15.8C8.6375 15.7625 10.4 15.7625 10.4 15.7625C10.4 15.7625 11.375 13.85 11.825 14.3C12.875 15.425 10.1 16.0625 9.9875 16.2875C9.6875 17 11.4125 16.3625 11.3375 16.325C11.7875 16.7375 10.2125 17.1125 10.2125 17.225C10.25 18.0125 11.525 16.925 11.6 16.925C12.2 17.075 10.7375 17.975 10.775 17.8625C10.6625 18.6875 12.05 17.6 12.0125 17.4125C12.1625 17.6375 12.1625 17.825 11.975 18.0875C11.4875 18.95 11.9375 19.0625 12.5 19.9625C13.0625 19.0625 13.5125 18.9875 13.025 18.0875C12.875 17.8625 12.875 17.6375 12.9875 17.4125C12.95 17.6 14.375 18.6875 14.225 17.8625C14.225 17.975 12.7625 17.0375 13.4 16.925C13.475 16.925 14.75 18.0125 14.7875 17.225C14.7875 17.075 13.175 16.7375 13.6625 16.325C13.625 16.3625 15.3125 17.0375 15.0125 16.2875C14.9375 16.0625 12.125 15.4625 13.175 14.3C13.625 13.8125 14.6 15.7625 14.6 15.7625C14.6 15.7625 16.3625 15.7625 16.5125 15.8C16.2875 15.875 15.2 16.1375 15.5 16.625C15.7625 15.5375 18.0125 16.1375 18.2375 16.8875C18.3875 15.95 17.5625 16.25 17.1125 15.8375C17.4875 15.8375 18.425 15.65 18.8375 15.8375ZM15.875 6.98751C15.65 7.10001 15.425 7.17501 15.275 7.13751C15.3875 6.95001 15.6875 6.76251 15.875 6.98751ZM14.675 6.83751C15.05 6.91251 15.05 7.02501 14.675 7.10001C14.3 6.98751 14.3 6.91251 14.675 6.83751ZM9.125 6.98751C9.3125 6.76251 9.6125 6.95001 9.725 7.13751C9.575 7.17501 9.35 7.10001 9.125 6.98751ZM10.325 7.10001C9.95 6.98751 9.95 6.91251 10.325 6.83751C10.7 6.91251 10.7 6.98751 10.325 7.10001Z" fill="#3E4347"/>
</g>
<defs>
<clipPath id="clip0_1_8710">
<rect width="24" height="24" fill="white" transform="translate(0.5 0.125)"/>
</clipPath>
</defs>
</svg>
