<svg width="1919" height="587" viewBox="0 0 1919 587" fill="none" xmlns="http://www.w3.org/2000/svg">
<g clip-path="url(#clip0_1_8486)">
<g style="mix-blend-mode:overlay" opacity="0.3" clip-path="url(#clip1_1_8486)">
<path d="M16.6347 531.553C9.01364 535.953 -1.50475 533.134 -5.90475 525.513L-77.4047 401.672C-92.8047 374.998 -126.815 366.69 -152.536 381.54L-283.999 457.44C-291.62 461.84 -302.138 459.022 -306.538 451.401C-310.938 443.78 -308.12 433.262 -300.499 428.862L-169.036 352.962C-127.121 328.762 -73.0259 343.256 -48.8259 385.172L22.6741 509.013C27.0741 516.634 24.2557 527.153 16.6347 531.553Z" fill="url(#paint0_linear_1_8486)"/>
</g>
<g style="mix-blend-mode:overlay" opacity="0.3" clip-path="url(#clip2_1_8486)">
<path d="M242.667 401.053L157.883 450.003C115.968 474.203 62.4232 460.661 38.7732 419.698L36.0232 414.935C12.3732 373.972 27.4178 320.83 69.3334 296.63L108.391 274.08C134.112 259.23 167.17 268.088 181.47 292.856C196.32 318.577 186.912 350.682 161.191 365.532L116.418 391.382C107.844 396.332 97.3256 393.514 92.3756 384.94C87.4256 376.366 90.244 365.848 98.8176 360.898L143.591 335.048C153.117 329.548 155.386 318.077 150.436 309.503C145.486 300.93 133.465 297.709 124.891 302.659L85.8334 325.209C61.0651 339.509 51.6573 371.614 65.9573 396.382L68.7073 401.145C83.0073 425.914 114.562 434.369 140.283 419.519L224.115 371.119C232.688 366.169 243.207 368.987 248.157 377.561C253.107 386.134 250.288 396.653 242.667 401.053Z" fill="url(#paint1_linear_1_8486)"/>
<path d="M290.299 373.553C282.678 377.953 272.159 375.134 267.759 367.513L196.259 243.672C180.859 216.998 146.849 208.69 121.128 223.54L-10.3347 299.44C-17.9558 303.84 -28.4741 301.022 -32.8741 293.401C-37.2741 285.78 -34.4558 275.262 -26.8347 270.862L104.628 194.962C146.544 170.762 200.638 185.256 224.838 227.172L296.338 351.013C300.738 358.634 297.92 369.153 290.299 373.553Z" fill="url(#paint2_linear_1_8486)"/>
</g>
<g style="mix-blend-mode:overlay" opacity="0.3" clip-path="url(#clip3_1_8486)">
<path d="M516.331 243.053L431.547 292.003C389.632 316.203 336.087 302.661 312.437 261.698L309.687 256.935C286.037 215.972 301.082 162.83 342.997 138.63L382.055 116.08C407.776 101.23 440.834 110.088 455.134 134.856C469.984 160.577 460.576 192.682 434.855 207.532L390.082 233.382C381.508 238.332 370.99 235.514 366.04 226.94C361.09 218.366 363.908 207.848 372.482 202.898L417.255 177.048C426.781 171.548 429.05 160.077 424.1 151.503C419.15 142.93 407.129 139.709 398.555 144.659L359.497 167.209C334.729 181.509 325.321 213.614 339.621 238.382L342.371 243.145C356.671 267.914 388.227 276.369 413.947 261.519L497.779 213.119C506.352 208.169 516.871 210.987 521.821 219.561C526.771 228.134 523.952 238.653 516.331 243.053Z" fill="url(#paint3_linear_1_8486)"/>
<path d="M563.963 215.553C556.342 219.953 545.823 217.134 541.423 209.513L469.923 85.6718C454.523 58.9982 420.513 50.6904 394.792 65.5404L263.329 141.44C255.708 145.84 245.19 143.022 240.79 135.401C236.39 127.78 239.208 117.262 246.829 112.862L378.292 36.9616C420.208 12.7616 474.302 27.2562 498.502 69.1718L570.002 193.013C574.402 200.634 571.584 211.153 563.963 215.553Z" fill="url(#paint4_linear_1_8486)"/>
</g>
<g style="mix-blend-mode:overlay" opacity="0.3" clip-path="url(#clip4_1_8486)">
<path d="M247.335 725.138L162.551 774.088C120.636 798.288 67.0911 784.746 43.4411 743.783L40.6911 739.02C17.0411 698.057 32.0857 644.915 74.0014 620.715L113.059 598.165C138.78 583.315 171.838 592.173 186.138 616.941C200.988 642.662 191.58 674.767 165.859 689.617L121.086 715.467C112.512 720.417 101.994 717.599 97.0436 709.025C92.0936 700.452 94.912 689.933 103.486 684.983L148.259 659.133C157.785 653.633 160.054 642.162 155.104 633.588C150.154 625.015 138.133 621.794 129.559 626.744L90.5014 649.294C65.733 663.594 56.3252 695.699 70.6252 720.467L73.3752 725.23C87.6752 749.999 119.23 758.454 144.951 743.604L228.783 695.204C237.356 690.254 247.875 693.072 252.825 701.646C257.775 710.22 254.956 720.738 247.335 725.138Z" fill="url(#paint5_linear_1_8486)"/>
<path d="M294.967 697.638C287.346 702.038 276.827 699.22 272.427 691.599L200.927 567.757C185.527 541.083 151.517 532.776 125.796 547.626L-5.66676 623.526C-13.2878 627.926 -23.8062 625.107 -28.2062 617.486C-32.6062 609.865 -29.7878 599.347 -22.1668 594.947L109.296 519.047C151.212 494.847 205.306 509.341 229.506 551.257L301.006 675.099C305.406 682.72 302.588 693.238 294.967 697.638Z" fill="url(#paint6_linear_1_8486)"/>
</g>
<g style="mix-blend-mode:overlay" opacity="0.3" clip-path="url(#clip5_1_8486)">
<path d="M520.999 567.138L436.215 616.088C394.3 640.288 340.755 626.746 317.105 585.783L314.355 581.02C290.705 540.057 305.75 486.915 347.665 462.715L386.723 440.165C412.444 425.315 445.502 434.173 459.802 458.941C474.652 484.662 465.244 516.767 439.523 531.617L394.75 557.467C386.176 562.417 375.658 559.599 370.708 551.025C365.758 542.452 368.576 531.933 377.15 526.983L421.923 501.133C431.449 495.633 433.718 484.162 428.768 475.588C423.818 467.015 411.797 463.794 403.223 468.744L364.165 491.294C339.397 505.594 329.989 537.699 344.289 562.467L347.039 567.23C361.339 591.999 392.894 600.454 418.615 585.604L502.447 537.204C511.02 532.254 521.539 535.072 526.489 543.646C531.439 552.22 528.62 562.738 520.999 567.138Z" fill="url(#paint7_linear_1_8486)"/>
<path d="M568.631 539.638C561.01 544.038 550.491 541.22 546.091 533.599L474.591 409.757C459.191 383.083 425.181 374.776 399.46 389.626L267.997 465.526C260.376 469.926 249.858 467.107 245.458 459.486C241.058 451.865 243.876 441.347 251.497 436.947L382.96 361.047C424.876 336.847 478.97 351.341 503.17 393.257L574.67 517.099C579.07 524.72 576.252 535.238 568.631 539.638Z" fill="url(#paint8_linear_1_8486)"/>
</g>
<g style="mix-blend-mode:overlay" opacity="0.2" clip-path="url(#clip6_1_8486)">
<path d="M794.663 409.138L709.879 458.088C667.964 482.288 614.419 468.746 590.769 427.783L588.019 423.02C564.369 382.057 579.414 328.915 621.329 304.715L660.387 282.165C686.108 267.315 719.166 276.173 733.466 300.941C748.316 326.662 738.908 358.767 713.187 373.617L668.414 399.467C659.84 404.417 649.322 401.599 644.372 393.025C639.422 384.452 642.24 373.933 650.814 368.983L695.587 343.133C705.114 337.633 707.382 326.162 702.432 317.588C697.482 309.015 685.461 305.794 676.887 310.744L637.829 333.294C613.061 347.594 603.653 379.699 617.953 404.467L620.703 409.23C635.003 433.999 666.559 442.454 692.279 427.604L776.111 379.204C784.684 374.254 795.203 377.072 800.153 385.646C805.103 394.22 802.284 404.738 794.663 409.138Z" fill="url(#paint9_linear_1_8486)"/>
<path d="M842.295 381.638C834.674 386.038 824.155 383.22 819.755 375.599L748.255 251.757C732.855 225.083 698.845 216.776 673.124 231.626L541.661 307.526C534.04 311.926 523.522 309.107 519.122 301.486C514.722 293.865 517.54 283.347 525.161 278.947L656.624 203.047C698.54 178.847 752.634 193.341 776.834 235.257L848.334 359.099C852.734 366.72 849.916 377.238 842.295 381.638Z" fill="url(#paint10_linear_1_8486)"/>
</g>
<g style="mix-blend-mode:overlay" opacity="0.3" clip-path="url(#clip7_1_8486)">
<path d="M799.331 733.223L714.547 782.173C672.632 806.373 619.087 792.831 595.437 751.868L592.687 747.105C569.037 706.142 584.082 653 625.997 628.8L665.055 606.25C690.776 591.4 723.834 600.258 738.134 625.026C752.984 650.747 743.576 682.852 717.855 697.702L673.082 723.552C664.508 728.502 653.99 725.684 649.04 717.11C644.09 708.537 646.908 698.018 655.482 693.068L700.255 667.218C709.781 661.718 712.05 650.247 707.1 641.674C702.15 633.1 690.129 629.879 681.555 634.829L642.497 657.379C617.729 671.679 608.321 703.784 622.621 728.553L625.371 733.316C639.671 758.084 671.227 766.539 696.947 751.689L780.779 703.289C789.352 698.339 799.871 701.158 804.821 709.731C809.771 718.305 806.952 728.823 799.331 733.223Z" fill="url(#paint11_linear_1_8486)"/>
<path d="M846.963 705.723C839.342 710.123 828.823 707.305 824.423 699.684L752.923 575.842C737.523 549.169 703.513 540.861 677.792 555.711L546.329 631.611C538.708 636.011 528.19 633.192 523.79 625.571C519.39 617.95 522.208 607.432 529.829 603.032L661.292 527.132C703.208 502.932 757.302 517.427 781.502 559.342L853.002 683.184C857.402 690.805 854.584 701.323 846.963 705.723Z" fill="url(#paint12_linear_1_8486)"/>
</g>
</g>
<defs>
<linearGradient id="paint0_linear_1_8486" x1="36.3724" y1="488.92" x2="-283.12" y2="370.355" gradientUnits="userSpaceOnUse">
<stop offset="0.0537255" stop-color="#00DE8E"/>
<stop offset="1" stop-color="#00A7FF"/>
</linearGradient>
<linearGradient id="paint1_linear_1_8486" x1="187.458" y1="84.4174" x2="112.697" y2="525.437" gradientUnits="userSpaceOnUse">
<stop offset="0.0537255" stop-color="#00DE8E"/>
<stop offset="1" stop-color="#00A7FF"/>
</linearGradient>
<linearGradient id="paint2_linear_1_8486" x1="310.036" y1="330.92" x2="-9.45633" y2="212.355" gradientUnits="userSpaceOnUse">
<stop offset="0.0537255" stop-color="#00DE8E"/>
<stop offset="1" stop-color="#00A7FF"/>
</linearGradient>
<linearGradient id="paint3_linear_1_8486" x1="461.122" y1="-73.5826" x2="386.361" y2="367.437" gradientUnits="userSpaceOnUse">
<stop offset="0.0537255" stop-color="#00DE8E"/>
<stop offset="1" stop-color="#00A7FF"/>
</linearGradient>
<linearGradient id="paint4_linear_1_8486" x1="583.701" y1="172.92" x2="264.208" y2="54.3546" gradientUnits="userSpaceOnUse">
<stop offset="0.0537255" stop-color="#00DE8E"/>
<stop offset="1" stop-color="#00A7FF"/>
</linearGradient>
<linearGradient id="paint5_linear_1_8486" x1="192.126" y1="408.503" x2="117.365" y2="849.522" gradientUnits="userSpaceOnUse">
<stop offset="0.0537255" stop-color="#00DE8E"/>
<stop offset="1" stop-color="#00A7FF"/>
</linearGradient>
<linearGradient id="paint6_linear_1_8486" x1="314.704" y1="655.005" x2="-4.78836" y2="536.44" gradientUnits="userSpaceOnUse">
<stop offset="0.0537255" stop-color="#00DE8E"/>
<stop offset="1" stop-color="#00A7FF"/>
</linearGradient>
<linearGradient id="paint7_linear_1_8486" x1="465.79" y1="250.503" x2="391.029" y2="691.522" gradientUnits="userSpaceOnUse">
<stop offset="0.0537255" stop-color="#00DE8E"/>
<stop offset="1" stop-color="#00A7FF"/>
</linearGradient>
<linearGradient id="paint8_linear_1_8486" x1="588.368" y1="497.005" x2="268.876" y2="378.44" gradientUnits="userSpaceOnUse">
<stop offset="0.0537255" stop-color="#00DE8E"/>
<stop offset="1" stop-color="#00A7FF"/>
</linearGradient>
<linearGradient id="paint9_linear_1_8486" x1="739.454" y1="92.5026" x2="664.694" y2="533.522" gradientUnits="userSpaceOnUse">
<stop offset="0.0537255" stop-color="#00DE8E"/>
<stop offset="1" stop-color="#00A7FF"/>
</linearGradient>
<linearGradient id="paint10_linear_1_8486" x1="862.033" y1="339.005" x2="542.54" y2="220.44" gradientUnits="userSpaceOnUse">
<stop offset="0.0537255" stop-color="#00DE8E"/>
<stop offset="1" stop-color="#00A7FF"/>
</linearGradient>
<linearGradient id="paint11_linear_1_8486" x1="744.122" y1="416.588" x2="669.361" y2="857.608" gradientUnits="userSpaceOnUse">
<stop offset="0.0537255" stop-color="#00DE8E"/>
<stop offset="1" stop-color="#00A7FF"/>
</linearGradient>
<linearGradient id="paint12_linear_1_8486" x1="866.701" y1="663.09" x2="547.208" y2="544.525" gradientUnits="userSpaceOnUse">
<stop offset="0.0537255" stop-color="#00DE8E"/>
<stop offset="1" stop-color="#00A7FF"/>
</linearGradient>
<clipPath id="clip0_1_8486">
<rect width="1919" height="587" fill="white"/>
</clipPath>
<clipPath id="clip1_1_8486">
<rect width="286" height="253" fill="white" transform="translate(-320.504 440.412) rotate(-30)"/>
</clipPath>
<clipPath id="clip2_1_8486">
<rect width="286" height="253" fill="white" transform="translate(-46.84 282.412) rotate(-30)"/>
</clipPath>
<clipPath id="clip3_1_8486">
<rect width="286" height="253" fill="white" transform="translate(226.824 124.412) rotate(-30)"/>
</clipPath>
<clipPath id="clip4_1_8486">
<rect width="286" height="253" fill="white" transform="translate(-42.172 606.497) rotate(-30)"/>
</clipPath>
<clipPath id="clip5_1_8486">
<rect width="286" height="253" fill="white" transform="translate(231.492 448.497) rotate(-30)"/>
</clipPath>
<clipPath id="clip6_1_8486">
<rect width="286" height="253" fill="white" transform="translate(505.156 290.497) rotate(-30)"/>
</clipPath>
<clipPath id="clip7_1_8486">
<rect width="286" height="253" fill="white" transform="translate(509.824 614.582) rotate(-30)"/>
</clipPath>
</defs>
</svg>
