<svg width="24" height="25" viewBox="0 0 24 25" fill="none" xmlns="http://www.w3.org/2000/svg">
<path d="M4 20.875C3.45 20.875 2.97933 20.6793 2.588 20.288C2.19667 19.8967 2.00067 19.4257 2 18.875V6.875C2 6.325 2.196 5.85433 2.588 5.463C2.98 5.07167 3.45067 4.87567 4 4.875H20C20.55 4.875 21.021 5.071 21.413 5.463C21.805 5.855 22.0007 6.32567 22 6.875V18.875C22 19.425 21.8043 19.896 21.413 20.288C21.0217 20.68 20.5507 20.8757 20 20.875H4ZM12 13.875L4 8.875V18.875H20V8.875L12 13.875ZM12 11.875L20 6.875H4L12 11.875ZM4 8.875V6.875V18.875V8.875Z" fill="#01D2A6"/>
</svg>
