<svg width="34" height="34" viewBox="0 0 34 34" fill="none" xmlns="http://www.w3.org/2000/svg">
<path d="M21.7385 8.40039H12.0365C9.82279 8.39919 7.69929 9.30408 6.13314 10.916C4.56698 12.5279 3.68647 14.7148 3.6853 16.9956C3.68414 19.2764 4.56241 21.4642 6.12691 23.0778C7.69142 24.6915 9.814 25.5987 12.0277 25.5999H21.7385C23.9522 25.5999 26.0753 24.6938 27.6406 23.0811C29.2059 21.4683 30.0853 19.2809 30.0853 17.0001C30.0853 14.7193 29.2059 12.532 27.6406 10.9192C26.0753 9.30643 23.9522 8.40039 21.7385 8.40039ZM21.5262 22.5693H12.2499C10.8352 22.5399 9.48804 21.9402 8.49762 20.899C7.5072 19.8578 6.95246 18.458 6.95246 17.0001C6.95246 15.5422 7.5072 14.1425 8.49762 13.1012C9.48804 12.06 10.8352 11.4603 12.2499 11.4309H21.5262C22.9598 11.4309 24.3347 12.0177 25.3484 13.0621C26.3621 14.1065 26.9316 15.5231 26.9316 17.0001C26.9316 18.4772 26.3621 19.8937 25.3484 20.9381C24.3347 21.9826 22.9598 22.5693 21.5262 22.5693Z" fill="white"/>
</svg>
