<svg width="33" height="34" viewBox="0 0 33 34" fill="none" xmlns="http://www.w3.org/2000/svg">
<path d="M16.6876 3L3.61475 7.63576L5.60812 24.8808L16.6876 31L27.7671 24.8808L29.7604 7.63576L16.6876 3ZM20.8134 7.91391L22.7604 9.86093L19.8399 10.1391L18.8664 7.91391H20.8134ZM12.4227 7.91391H14.3697L13.3962 10.1391L10.4757 9.86093L12.4227 7.91391ZM8.66773 10.1391L13.6743 10.5563L14.7869 7.91391H16.3167V15.8411H15.6214H15.4823L9.50216 13.6159L8.66773 10.1391ZM12.979 24.3709L11.171 22.5629V20.755L12.979 22.2848V24.3709ZM12.979 21.7285L9.64124 18.947V14.1722L11.171 14.7285L12.7008 16.2583L13.9525 15.9801L12.979 17.3709V21.7285ZM19.7936 23.9536L18.9591 25.2053L17.9856 26.1788H15.2042L14.2306 25.2053L13.3962 23.9536V17.649L14.5088 15.9801L15.2042 16.3974H17.9856L18.681 15.9801L19.7936 17.649V23.9536ZM22.0651 22.5629L20.2571 24.3709V22.2848L22.0651 20.755V22.5629ZM23.5949 18.947L20.2571 21.7285V17.4172L19.2836 16.0265L20.5353 16.3046L22.0651 14.7748L23.5949 14.2185V18.947ZM23.873 13.6159L17.8929 15.8411H17.7538H16.9194V7.91391H18.4492L19.5618 10.5563L24.7075 10.1391L23.873 13.6159Z" fill="white"/>
</svg>
