<svg width="35" height="34" viewBox="0 0 35 34" fill="none" xmlns="http://www.w3.org/2000/svg">
<path d="M17.548 1.13144L17.8481 0.0433756C17.6519 -0.0144585 17.444 -0.0144585 17.2478 0.0433756L17.548 1.13144ZM2.21018 5.66504L1.90999 4.57698C1.66132 4.65031 1.44573 4.81227 1.30137 5.03421C1.15701 5.25616 1.09319 5.52377 1.12119 5.78971L2.21018 5.66504ZM4.40129 26.0662L3.3123 26.1909C3.33243 26.3789 3.3977 26.5587 3.50218 26.7139C3.60666 26.8691 3.74703 26.9948 3.91048 27.0795L4.40129 26.0662ZM17.548 32.8666L17.0572 33.8799C17.2095 33.9589 17.3776 34 17.548 34C17.7184 34 17.8864 33.9589 18.0388 33.8799L17.548 32.8666ZM30.6946 26.0662L31.1854 27.0795C31.3489 26.9948 31.4893 26.8691 31.5937 26.7139C31.6982 26.5587 31.7635 26.3789 31.7836 26.1909L30.6946 26.0662ZM32.8857 5.66504L33.9747 5.78971C34.0033 5.52341 33.9397 5.25525 33.7953 5.03283C33.6509 4.81041 33.435 4.6481 33.1859 4.57471L32.8857 5.66504ZM17.548 6.79844L18.5515 6.34508L17.548 3.97174L16.5444 6.34508L17.548 6.79844ZM17.2478 0.0433756L1.90999 4.57698L2.51036 6.7531L17.8481 2.2195L17.2478 0.0433756ZM1.12119 5.78745L3.3123 26.1886L5.49027 25.9393L3.29916 5.5381L1.12119 5.78745ZM3.91048 27.0795L17.0572 33.8799L18.0388 31.8511L4.8921 25.0507L3.91048 27.0795ZM18.0388 33.8799L31.1854 27.0795L30.2038 25.0507L17.0572 31.8511L18.0388 33.8799ZM31.7836 26.1886L33.9747 5.78745L31.7968 5.5381L29.6057 25.9393L31.7836 26.1886ZM33.1859 4.57244L17.8481 0.038842L17.2478 2.2195L32.5856 6.7531L33.1859 4.57244ZM10.8826 25.3862L18.5515 7.2518L16.5444 6.34508L8.87554 24.4795L10.8826 25.3862ZM16.5444 7.2518L24.2133 25.3862L26.2204 24.4795L18.5515 6.34508L16.5444 7.2518ZM12.0702 20.3992H23.0257V18.1324H12.0702V20.3992Z" fill="white"/>
</svg>
