<svg width="35" height="34" viewBox="0 0 35 34" fill="none" xmlns="http://www.w3.org/2000/svg">
<g clip-path="url(#clip0_1_9166)">
<path d="M28.6105 6.94543C28.1331 6.94543 27.6768 7.00147 27.2429 7.13535C26.8087 7.26922 26.4393 7.46021 26.1139 7.71654C25.7927 7.96116 25.5263 8.27394 25.3325 8.63374C25.1373 8.9918 25.0393 9.40565 25.0393 9.8758C25.0393 10.4567 25.2239 11.0047 25.5823 11.4974C25.9396 12.0008 26.5259 12.3804 27.3184 12.6378L28.8926 13.1411C29.4242 13.3204 29.7939 13.5106 29.9893 13.7231C30.1845 13.9359 30.2822 14.1919 30.2822 14.5054C30.2822 14.9638 30.0868 15.3219 29.7173 15.5679C29.3487 15.8136 28.8171 15.9374 28.1331 15.9374C27.6982 15.9374 27.2751 15.8927 26.8412 15.8035C26.4308 15.7165 26.0304 15.585 25.6467 15.4114C25.5382 15.3668 25.4402 15.3222 25.3758 15.3004C25.3129 15.2779 25.2469 15.2663 25.1804 15.2659C25.0169 15.2659 24.9305 15.3782 24.9305 15.6125V16.1833C24.9309 16.2914 24.9532 16.3981 24.996 16.4968C25.0393 16.5977 25.1582 16.7093 25.3325 16.8102C25.6145 16.977 26.0373 17.1234 26.5803 17.2573C27.123 17.3911 27.6881 17.4586 28.2519 17.4586C28.8062 17.4586 29.3164 17.3797 29.805 17.2241C30.2711 17.0777 30.673 16.8763 31.0095 16.5972C31.3457 16.3289 31.6066 15.9934 31.802 15.6125C31.9861 15.2329 32.0841 14.797 32.0841 14.3157C32.0841 13.7345 31.9209 13.2086 31.5844 12.7499C31.2482 12.2911 30.6844 11.9333 29.9027 11.6759L28.361 11.1726C27.7861 10.9832 27.3839 10.7699 27.1663 10.5574C26.9497 10.3457 26.8412 10.0771 26.8412 9.76371C26.8412 9.30524 27.0142 8.98011 27.3517 8.76868C27.6881 8.55591 28.1764 8.45524 28.7949 8.45524C29.5652 8.45524 30.26 8.60054 30.8796 8.89086C31.0636 8.98038 31.2047 9.0258 31.2913 9.0258C31.4545 9.0258 31.5411 8.90282 31.5411 8.668V8.14207C31.5411 7.98535 31.5089 7.8629 31.4434 7.77258C31.3789 7.67218 31.2701 7.58266 31.118 7.49341C31.0092 7.42594 30.8574 7.35954 30.6617 7.29207C30.4579 7.2241 30.2517 7.1642 30.0435 7.11251C29.8151 7.06788 29.5874 7.02325 29.3376 6.99032C29.0965 6.95883 28.8536 6.94383 28.6105 6.94543ZM6.22675 6.96721C5.62966 6.96721 5.06454 7.03468 4.53293 7.17997C4.00106 7.31411 3.54525 7.48199 3.16575 7.68333C3.01364 7.76222 2.91567 7.84005 2.86153 7.91788C2.80713 7.99651 2.78599 8.13038 2.78599 8.30994V8.85793C2.78599 9.09221 2.86153 9.2043 3.01364 9.2043C3.05695 9.2043 3.11109 9.19288 3.1874 9.1711C3.26294 9.14826 3.39262 9.10363 3.5669 9.0258C3.94837 8.87033 4.34012 8.74312 4.73918 8.64516C5.12306 8.54861 5.5168 8.49983 5.91197 8.49986C6.74779 8.49986 7.33329 8.66801 7.68133 9.01465C8.01752 9.36076 8.1918 9.95336 8.1918 10.8034V11.6199C7.7579 11.5192 7.3454 11.43 6.94322 11.3739C6.54154 11.3181 6.16179 11.2847 5.79311 11.2847C4.67421 11.2847 3.79507 11.5753 3.13352 12.1575C2.47068 12.7384 2.14558 13.5103 2.14558 14.4608C2.14558 15.3554 2.41629 16.0712 2.94815 16.6086C3.48079 17.1452 4.20808 17.414 5.11945 17.414C6.40078 17.414 7.46477 16.8992 8.31091 15.8699C8.41415 16.0945 8.52631 16.3146 8.6471 16.5297C8.76108 16.7173 8.89194 16.8934 9.03794 17.0556C9.14674 17.1566 9.25554 17.2124 9.36433 17.2124C9.45044 17.2124 9.54841 17.1784 9.64612 17.112L10.3301 16.6418C10.4709 16.5302 10.5363 16.4179 10.5363 16.3068C10.5348 16.2154 10.5086 16.1262 10.4608 16.0492C10.326 15.7901 10.2099 15.5211 10.1135 15.2443C10.037 14.9986 9.99365 14.6626 9.99365 14.2483H9.97148V10.6249C9.97148 9.39422 9.66829 8.47702 9.0712 7.87299C8.46276 7.26922 7.51788 6.96721 6.22675 6.96721ZM11.2747 7.23602C11.1004 7.23602 11.0138 7.33669 11.0138 7.51519C11.0138 7.59408 11.0471 7.73938 11.1115 7.9633L13.6623 16.6086C13.7278 16.8211 13.8033 16.977 13.891 17.0445C13.9776 17.1234 14.1076 17.1566 14.303 17.1566H15.2363C15.4319 17.1566 15.5835 17.1234 15.6704 17.0445C15.7581 16.9667 15.8228 16.8214 15.8769 16.5972L17.5488 9.39422L19.2316 16.6086C19.2749 16.8317 19.3502 16.977 19.4378 17.0559C19.5247 17.1335 19.6655 17.168 19.872 17.168H20.8055C20.9899 17.168 21.1309 17.1236 21.2175 17.0559C21.3052 16.9887 21.3807 16.8434 21.4462 16.6203L24.0625 7.97393C24.1058 7.85174 24.1269 7.76222 24.138 7.69476C24.1491 7.62729 24.1602 7.57097 24.1602 7.51519C24.1602 7.32527 24.0625 7.23629 23.8882 7.23629H22.8794C22.6842 7.23629 22.5422 7.28038 22.4555 7.34811C22.38 7.41452 22.3034 7.56061 22.239 7.78374L20.3605 15.2778L18.6453 7.78427C18.6025 7.57177 18.5257 7.41505 18.4391 7.34865C18.3524 7.26949 18.2112 7.23629 18.0049 7.23629H17.1369C16.9414 7.23629 16.7893 7.28065 16.7017 7.34838C16.6153 7.41479 16.5501 7.56088 16.4965 7.78401L14.8026 15.1886L12.9786 7.78427C12.9142 7.57177 12.8487 7.41505 12.762 7.34865C12.6855 7.26949 12.5444 7.23629 12.3382 7.23629L11.2747 7.23602ZM6.19375 12.616C6.53508 12.6162 6.87605 12.6384 7.21469 12.6824C7.55071 12.7264 7.884 12.7901 8.21294 12.8734V13.3422C8.21294 13.7234 8.16963 14.0469 8.10414 14.3157C8.03969 14.584 7.90872 14.8191 7.73547 15.0316C7.44234 15.3668 7.09507 15.6125 6.70422 15.7474C6.31338 15.8813 5.94393 15.9488 5.58635 15.9488C5.08697 15.9488 4.70721 15.8138 4.4463 15.5347C4.17457 15.2664 4.04463 14.8749 4.04463 14.3489C4.04463 13.7895 4.21865 13.3651 4.57624 13.0633C4.93486 12.7613 5.46672 12.616 6.19375 12.616ZM31.0366 19.4829C29.8939 19.4997 28.5451 19.7624 27.5249 20.5008C27.2096 20.7353 27.264 21.0485 27.6115 21.0039C28.7737 20.8586 31.3343 20.5454 31.7907 21.1492C32.247 21.7415 31.2812 24.2358 30.8463 25.3434C30.7164 25.6781 30.9984 25.8133 31.2913 25.5559C33.2017 23.9008 33.7013 20.4448 33.3105 19.9414C33.1153 19.6957 32.1792 19.4659 31.0366 19.4829ZM1.03493 20.1499C0.796191 20.1807 0.687652 20.4782 0.940051 20.7133C5.19602 24.6716 10.8295 27.0543 17.0825 27.0543C21.5439 27.0543 26.7324 25.612 30.3033 22.8946C30.8894 22.446 30.3802 21.7646 29.7826 22.0436C25.778 23.7887 21.424 24.6387 17.4622 24.6387C11.5898 24.6387 5.91222 22.9724 1.3095 20.2206C1.20895 20.1592 1.11485 20.1398 1.03518 20.1499H1.03493Z" fill="white"/>
</g>
<defs>
<clipPath id="clip0_1_9166">
<rect width="34" height="34" fill="white" transform="translate(0.614746)"/>
</clipPath>
</defs>
</svg>
