<svg width="35" height="34" viewBox="0 0 35 34" fill="none" xmlns="http://www.w3.org/2000/svg">
<path d="M24.4929 22.9996V10.0396H32.2959V12.2086H26.6619V15.4396H31.2159V17.5996H26.6619V22.9996H24.4929Z" fill="white"/>
<path d="M17.4598 23.2698C16.5118 23.2698 15.6568 23.1048 14.8948 22.7748C14.1388 22.4448 13.5148 21.9738 13.0228 21.3618C12.5368 20.7438 12.2278 20.0118 12.0958 19.1658L14.3458 18.8238C14.5378 19.5918 14.9308 20.1858 15.5248 20.6058C16.1248 21.0258 16.8148 21.2358 17.5948 21.2358C18.0568 21.2358 18.4918 21.1638 18.8998 21.0198C19.3078 20.8758 19.6378 20.6658 19.8898 20.3898C20.1478 20.1138 20.2768 19.7748 20.2768 19.3728C20.2768 19.1928 20.2468 19.0278 20.1868 18.8778C20.1268 18.7218 20.0368 18.5838 19.9168 18.4638C19.8028 18.3438 19.6528 18.2358 19.4668 18.1398C19.2868 18.0378 19.0768 17.9508 18.8368 17.8788L15.4888 16.8888C15.2008 16.8048 14.8888 16.6938 14.5528 16.5558C14.2228 16.4118 13.9078 16.2168 13.6078 15.9708C13.3138 15.7188 13.0708 15.4008 12.8788 15.0168C12.6928 14.6268 12.5998 14.1468 12.5998 13.5768C12.5998 12.7428 12.8098 12.0438 13.2298 11.4798C13.6558 10.9098 14.2258 10.4838 14.9398 10.2018C15.6598 9.91978 16.4578 9.78178 17.3338 9.78779C18.2218 9.79378 19.0138 9.94678 19.7098 10.2468C20.4058 10.5408 20.9878 10.9698 21.4558 11.5338C21.9238 12.0978 22.2538 12.7788 22.4458 13.5768L20.1148 13.9818C20.0188 13.5258 19.8328 13.1388 19.5568 12.8208C19.2868 12.4968 18.9538 12.2508 18.5578 12.0828C18.1678 11.9148 17.7508 11.8248 17.3068 11.8128C16.8748 11.8068 16.4728 11.8728 16.1008 12.0108C15.7348 12.1428 15.4378 12.3348 15.2098 12.5868C14.9878 12.8388 14.8768 13.1328 14.8768 13.4688C14.8768 13.7868 14.9728 14.0478 15.1648 14.2518C15.3568 14.4498 15.5938 14.6088 15.8758 14.7288C16.1638 14.8428 16.4548 14.9388 16.7488 15.0168L19.0708 15.6648C19.3888 15.7488 19.7458 15.8628 20.1418 16.0068C20.5378 16.1508 20.9188 16.3518 21.2848 16.6098C21.6508 16.8678 21.9508 17.2068 22.1848 17.6268C22.4248 18.0468 22.5448 18.5808 22.5448 19.2288C22.5448 19.9008 22.4038 20.4918 22.1218 21.0018C21.8458 21.5058 21.4708 21.9258 20.9968 22.2618C20.5228 22.5978 19.9798 22.8498 19.3678 23.0178C18.7618 23.1858 18.1258 23.2698 17.4598 23.2698Z" fill="white"/>
<path d="M6.23725 23.2696C5.24725 23.2696 4.42225 23.0116 3.76225 22.4956C3.10825 21.9796 2.64925 21.2836 2.38525 20.4076L4.52725 19.8946C4.59325 20.2606 4.78525 20.5756 5.10325 20.8396C5.42125 21.1036 5.77225 21.2356 6.15625 21.2356C6.40825 21.2356 6.67525 21.1696 6.95725 21.0376C7.23925 20.8996 7.44925 20.6806 7.58725 20.3806C7.67125 20.1886 7.71925 19.9606 7.73125 19.6966C7.74925 19.4266 7.75825 19.1146 7.75825 18.7606V10.0396H9.95425V18.7606C9.95425 19.1626 9.95125 19.5166 9.94525 19.8226C9.94525 20.1226 9.91525 20.4076 9.85525 20.6776C9.80125 20.9416 9.69025 21.2146 9.52225 21.4966C9.16825 22.1086 8.70625 22.5586 8.13625 22.8466C7.56625 23.1286 6.93325 23.2696 6.23725 23.2696Z" fill="white"/>
</svg>
