<svg width="35" height="34" viewBox="0 0 35 34" fill="none" xmlns="http://www.w3.org/2000/svg">
<path fill-rule="evenodd" clip-rule="evenodd" d="M14.6116 28.2892C11.3053 24.7481 5.31506 15.7601 14.4841 3.78952C15.0914 3.05202 15.6619 2.30948 16.1327 1.67672C16.1518 1.65098 16.1708 1.62543 16.1896 1.60006C16.616 1.02522 16.9556 0.547624 17.1589 0.257185C17.1899 0.213013 17.2176 0.17317 17.2421 0.137972C17.2758 0.0895102 17.3031 0.049855 17.3238 0.019832C17.3296 0.0135653 17.3366 0.00857609 17.3444 0.00516698C17.3521 0.00175788 17.3605 0 17.369 0C17.3774 0 17.3858 0.00175788 17.3935 0.00516698C17.4013 0.00857609 17.4083 0.0135653 17.4142 0.019832C17.4348 0.0498631 17.4622 0.0895274 17.4958 0.137999C17.5203 0.173181 17.548 0.213003 17.5789 0.257148C17.7823 0.54759 18.1218 1.0252 18.5483 1.60007C18.5671 1.62543 18.5861 1.65098 18.6052 1.67671C19.076 2.30947 19.6466 3.05201 20.2538 3.78952C29.4163 15.7515 23.4412 24.7352 20.1392 28.2875C19.9655 28.4744 19.7991 28.6462 19.6428 28.8027C19.6208 28.8247 19.599 28.8465 19.5774 28.8679C19.5684 28.8768 19.5595 28.8856 19.5506 28.8944C19.3503 29.0921 19.1682 29.2631 19.0103 29.4065C18.7795 29.6159 18.6002 29.7666 18.4906 29.8559C18.4636 29.8779 18.4409 29.8962 18.4226 29.9107C18.3877 29.9385 18.3693 29.9525 18.3693 29.9525L18.2531 30.0319C18.2403 30.2341 18.2251 30.4474 18.2083 30.6659C18.1076 31.9722 17.9497 33.4634 17.9043 33.8841C17.8962 33.959 17.8917 34 17.8917 34H16.8591C16.8591 34 16.8546 33.9593 16.8465 33.8848C16.8135 33.58 16.7208 32.7102 16.6341 31.7535C16.6015 31.3949 16.5698 31.024 16.5424 30.6661C16.5262 30.4558 16.5116 30.2499 16.4991 30.0536C16.4987 30.0464 16.4982 30.0391 16.4977 30.0319L16.3815 29.9393C16.3812 29.9397 16.3676 29.9301 16.3421 29.9106C16.3222 29.8954 16.2949 29.8741 16.2609 29.8469C16.1518 29.7598 15.9733 29.6115 15.7436 29.4047C15.5853 29.2622 15.4026 29.0918 15.2015 28.8944C15.1926 28.8856 15.1836 28.8768 15.1746 28.8679C15.1529 28.8465 15.131 28.8248 15.1088 28.8028C14.9523 28.6469 14.7857 28.4756 14.6116 28.2892ZM14.742 25.326C14.0433 24.384 13.3405 23.2469 12.7789 21.9385C11.9103 19.9146 11.3813 17.4874 11.7166 14.7068C12.0508 11.9348 13.259 8.68631 16.0511 5.03288C16.5219 4.46012 16.9701 3.88647 17.369 3.36077C17.7679 3.88648 18.2161 4.46013 18.6869 5.03289C21.479 8.68628 22.6872 11.9348 23.0216 14.7071C23.357 17.488 22.8284 19.9158 21.9603 21.9409C21.4018 23.2437 20.7035 24.3771 20.0085 25.3178L19.4126 11.7793C19.3927 11.2645 19.1765 10.739 18.7483 10.3492C18.3315 9.96983 17.8243 9.81833 17.3754 9.81833C16.9265 9.81833 16.4193 9.96983 16.0025 10.3492C15.5743 10.739 15.3582 11.2645 15.3382 11.7793L14.742 25.326ZM18.1358 28.936C18.0752 29.0234 17.981 29.1298 17.8792 29.2355C17.8689 29.2463 17.8584 29.257 17.8479 29.2677C17.825 29.2912 17.8018 29.3146 17.7786 29.3376C17.5792 29.5355 17.3833 29.7074 17.3757 29.7141C17.3757 29.7141 17.2037 29.5641 17.0166 29.3812C16.9815 29.3469 16.9458 29.3115 16.9107 29.2756C16.7943 29.1571 16.6833 29.0344 16.6151 28.936C16.6052 28.9216 16.5961 28.9077 16.5881 28.8944V28.8679L17.3367 11.858C17.3367 11.8051 17.4142 11.8051 17.4142 11.858L18.1628 28.8679V28.8944C18.1548 28.9077 18.1457 28.9216 18.1358 28.936Z" fill="white"/>
</svg>
