<svg width="24" height="24" viewBox="0 0 24 24" fill="none" xmlns="http://www.w3.org/2000/svg">
<path d="M13.0281 2.00031C14.1531 2.00331 14.7241 2.00931 15.2171 2.02331L15.4111 2.03031C15.6351 2.03831 15.8561 2.04831 16.1231 2.06031C17.1871 2.11031 17.9131 2.27831 18.5501 2.52531C19.2101 2.77931 19.7661 3.12331 20.3221 3.67831C20.8306 4.1782 21.224 4.78289 21.4751 5.4503C21.7221 6.08731 21.8901 6.8133 21.9401 7.8783C21.9521 8.1443 21.9621 8.36531 21.9701 8.59031L21.9761 8.78431C21.9911 9.27631 21.9971 9.84731 21.9991 10.9723L22.0001 11.7183V13.0283C22.0025 13.7577 21.9949 14.4871 21.9771 15.2163L21.9711 15.4103C21.9631 15.6353 21.9531 15.8563 21.9411 16.1223C21.8911 17.1873 21.7211 17.9123 21.4751 18.5503C21.2248 19.2181 20.8312 19.8229 20.3221 20.3223C19.8221 20.8306 19.2174 21.2241 18.5501 21.4753C17.9131 21.7223 17.1871 21.8903 16.1231 21.9403C15.8858 21.9515 15.6485 21.9615 15.4111 21.9703L15.2171 21.9763C14.7241 21.9903 14.1531 21.9973 13.0281 21.9993L12.2821 22.0003H10.9731C10.2434 22.0028 9.51361 21.9952 8.78409 21.9773L8.59009 21.9713C8.3527 21.9623 8.11536 21.952 7.87809 21.9403C6.81409 21.8903 6.08809 21.7223 5.45009 21.4753C4.78276 21.2247 4.17831 20.8312 3.67909 20.3223C3.17013 19.8226 2.77631 19.2179 2.52509 18.5503C2.27809 17.9133 2.11009 17.1873 2.06009 16.1223C2.04895 15.885 2.03895 15.6477 2.03009 15.4103L2.02509 15.2163C2.00666 14.4871 1.99833 13.7577 2.00009 13.0283V10.9723C1.9973 10.2429 2.00463 9.5135 2.02209 8.78431L2.02909 8.59031C2.03709 8.36531 2.04709 8.1443 2.05909 7.8783C2.10909 6.8133 2.27709 6.0883 2.52409 5.4503C2.7752 4.78221 3.16981 4.17733 3.68009 3.67831C4.17918 3.16978 4.78323 2.77629 5.45009 2.52531C6.08809 2.27831 6.81309 2.11031 7.87809 2.06031C8.14409 2.04831 8.36609 2.03831 8.59009 2.03031L8.78409 2.02431C9.51328 2.00654 10.2427 1.99887 10.9721 2.00131L13.0281 2.00031ZM12.0001 7.00031C10.674 7.00031 9.40224 7.52709 8.46455 8.46477C7.52687 9.40245 7.00009 10.6742 7.00009 12.0003C7.00009 13.3264 7.52687 14.5982 8.46455 15.5358C9.40224 16.4735 10.674 17.0003 12.0001 17.0003C13.3262 17.0003 14.5979 16.4735 15.5356 15.5358C16.4733 14.5982 17.0001 13.3264 17.0001 12.0003C17.0001 10.6742 16.4733 9.40245 15.5356 8.46477C14.5979 7.52709 13.3262 7.00031 12.0001 7.00031ZM12.0001 9.00031C12.3941 9.00024 12.7842 9.07777 13.1482 9.22848C13.5122 9.37918 13.8429 9.6001 14.1216 9.87863C14.4002 10.1572 14.6212 10.4878 14.772 10.8518C14.9229 11.2157 15.0005 11.6058 15.0006 11.9998C15.0007 12.3938 14.9231 12.7839 14.7724 13.1479C14.6217 13.5119 14.4008 13.8426 14.1223 14.1213C13.8437 14.3999 13.5131 14.6209 13.1491 14.7718C12.7851 14.9226 12.3951 15.0002 12.0011 15.0003C11.2054 15.0003 10.4424 14.6842 9.87977 14.1216C9.31716 13.559 9.00109 12.796 9.00109 12.0003C9.00109 11.2047 9.31716 10.4416 9.87977 9.87898C10.4424 9.31638 11.2054 9.00031 12.0011 9.00031M17.2511 5.50031C16.9196 5.50031 16.6016 5.632 16.3672 5.86642C16.1328 6.10084 16.0011 6.41878 16.0011 6.75031C16.0011 7.08183 16.1328 7.39977 16.3672 7.63419C16.6016 7.86861 16.9196 8.00031 17.2511 8.00031C17.5826 8.00031 17.9006 7.86861 18.135 7.63419C18.3694 7.39977 18.5011 7.08183 18.5011 6.75031C18.5011 6.41878 18.3694 6.10084 18.135 5.86642C17.9006 5.632 17.5826 5.50031 17.2511 5.50031Z" fill="#01D2A6"/>
</svg>
