<svg width="1300" height="867" viewBox="0 0 1300 867" fill="none" xmlns="http://www.w3.org/2000/svg">
<rect y="0.000244141" width="1272" height="867" fill="url(#paint0_linear_29_5141)"/>
<g style="mix-blend-mode:overlay" opacity="0.5" clip-path="url(#clip0_29_5141)">
<path d="M106.113 369.847L21.3288 418.797C-20.5868 442.997 -74.1314 429.455 -97.7814 388.492L-100.531 383.729C-124.181 342.766 -109.137 289.624 -67.2212 265.424L-28.1634 242.874C-2.44246 228.024 30.6153 236.882 44.9153 261.65C59.7654 287.371 50.3575 319.477 24.6366 334.327L-20.1369 360.177C-28.7106 365.127 -39.229 362.308 -44.179 353.735C-49.129 345.161 -46.3106 334.643 -37.7369 329.693L7.03659 303.843C16.5629 298.343 18.8313 286.871 13.8813 278.298C8.93126 269.724 -3.08977 266.503 -11.6634 271.453L-50.7212 294.003C-75.4895 308.303 -84.8973 340.408 -70.5973 365.177L-67.8473 369.94C-53.5473 394.708 -21.9921 403.163 3.72883 388.313L87.5601 339.913C96.1337 334.963 106.652 337.782 111.602 346.355C116.552 354.929 113.734 365.447 106.113 369.847Z" fill="url(#paint1_linear_29_5141)"/>
<path d="M153.744 342.347C146.123 346.747 135.605 343.929 131.205 336.308L59.7047 212.466C44.3047 185.793 10.2943 177.485 -15.4266 192.335L-146.889 268.235C-154.51 272.635 -165.029 269.816 -169.429 262.195C-173.829 254.574 -171.01 244.056 -163.389 239.656L-31.9266 163.756C9.98899 139.556 64.0836 154.051 88.2836 195.966L159.784 319.808C164.184 327.429 161.365 337.947 153.744 342.347Z" fill="url(#paint2_linear_29_5141)"/>
</g>
<g style="mix-blend-mode:overlay" opacity="0.2" clip-path="url(#clip1_29_5141)">
<path d="M379.777 211.847L294.993 260.797C253.077 284.997 199.533 271.455 175.883 230.492L173.133 225.729C149.483 184.766 164.527 131.624 206.443 107.424L245.501 84.8743C271.221 70.0243 304.279 78.8821 318.579 103.65C333.429 129.371 324.021 161.477 298.301 176.327L253.527 202.177C244.953 207.127 234.435 204.308 229.485 195.735C224.535 187.161 227.353 176.643 235.927 171.693L280.701 145.843C290.227 140.343 292.495 128.871 287.545 120.298C282.595 111.724 270.574 108.503 262.001 113.453L222.943 136.003C198.174 150.303 188.767 182.408 203.067 207.177L205.817 211.94C220.117 236.708 251.672 245.163 277.393 230.313L361.224 181.913C369.798 176.963 380.316 179.782 385.266 188.355C390.216 196.929 387.398 207.447 379.777 211.847Z" fill="url(#paint3_linear_29_5141)"/>
<path d="M427.408 184.347C419.787 188.747 409.269 185.929 404.869 178.308L333.369 54.4662C317.969 27.7927 283.958 19.4849 258.237 34.3348L126.775 110.235C119.154 114.635 108.635 111.816 104.235 104.195C99.8352 96.5744 102.654 86.056 110.275 81.656L241.737 5.75601C283.653 -18.444 337.748 -3.94938 361.948 37.9662L433.448 161.808C437.848 169.429 435.029 179.947 427.408 184.347Z" fill="url(#paint4_linear_29_5141)"/>
</g>
<g style="mix-blend-mode:overlay" opacity="0.1" clip-path="url(#clip2_29_5141)">
<path d="M653.441 53.8474L568.657 102.797C526.741 126.997 473.197 113.455 449.547 72.4924L446.797 67.7293C423.147 26.7663 438.191 -26.3757 480.107 -50.5757L519.165 -73.1257C544.886 -87.9757 577.943 -79.1179 592.243 -54.3495C607.093 -28.6286 597.686 3.4766 571.965 18.3266L527.191 44.1766C518.617 49.1266 508.099 46.3082 503.149 37.7345C498.199 29.1609 501.017 18.6425 509.591 13.6925L554.365 -12.1575C563.891 -17.6575 566.159 -29.1285 561.209 -37.7022C556.259 -46.2758 544.238 -49.4968 535.665 -44.5469L496.607 -21.9968C471.839 -7.69685 462.431 24.4083 476.731 49.1767L479.481 53.9398C493.781 78.7081 525.336 87.1633 551.057 72.3133L634.888 23.9133C643.462 18.9633 653.98 21.7817 658.93 30.3554C663.88 38.929 661.062 49.4474 653.441 53.8474Z" fill="url(#paint5_linear_29_5141)"/>
<path d="M701.072 26.3473C693.451 30.7473 682.933 27.9289 678.533 20.3079L607.033 -103.534C591.633 -130.207 557.622 -138.515 531.901 -123.665L400.439 -47.7652C392.818 -43.3652 382.299 -46.1836 377.899 -53.8046C373.499 -61.4256 376.318 -71.944 383.939 -76.344L515.401 -152.244C557.317 -176.444 611.412 -161.949 635.612 -120.034L707.112 3.80788C711.512 11.4289 708.693 21.9473 701.072 26.3473Z" fill="url(#paint6_linear_29_5141)"/>
</g>
<g style="mix-blend-mode:overlay" opacity="0.5" clip-path="url(#clip3_29_5141)">
<path d="M110.781 693.933L25.9968 742.883C-15.9188 767.083 -69.4634 753.541 -93.1134 712.578L-95.8634 707.814C-119.513 666.851 -104.469 613.71 -62.5532 589.51L-23.4954 566.96C2.22551 552.11 35.2833 560.967 49.5833 585.736C64.4333 611.457 55.0255 643.562 29.3046 658.412L-15.469 684.262C-24.0426 689.212 -34.561 686.393 -39.511 677.82C-44.461 669.246 -41.6426 658.728 -33.069 653.778L11.7046 627.928C21.2308 622.428 23.4992 610.957 18.5492 602.383C13.5992 593.809 1.5782 590.588 -6.99545 595.538L-46.0532 618.088C-70.8215 632.388 -80.2293 664.494 -65.9293 689.262L-63.1793 694.025C-48.8793 718.793 -17.3242 727.249 8.3968 712.399L92.2281 663.999C100.802 659.049 111.32 661.867 116.27 670.441C121.22 679.014 118.402 689.533 110.781 693.933Z" fill="url(#paint7_linear_29_5141)"/>
<path d="M158.412 666.433C150.791 670.833 140.273 668.014 135.873 660.393L64.3727 536.551C48.9727 509.878 14.9623 501.57 -10.7587 516.42L-142.221 592.32C-149.842 596.72 -160.361 593.902 -164.761 586.281C-169.161 578.66 -166.342 568.141 -158.721 563.741L-27.2587 487.841C14.657 463.641 68.7516 478.136 92.9516 520.051L164.452 643.893C168.852 651.514 166.033 662.032 158.412 666.433Z" fill="url(#paint8_linear_29_5141)"/>
</g>
<g style="mix-blend-mode:overlay" opacity="0.1" clip-path="url(#clip4_29_5141)">
<path d="M384.445 535.933L299.661 584.883C257.745 609.083 204.201 595.541 180.551 554.578L177.801 549.814C154.151 508.851 169.195 455.71 211.111 431.51L250.168 408.96C275.889 394.11 308.947 402.967 323.247 427.736C338.097 453.457 328.689 485.562 302.969 500.412L258.195 526.262C249.621 531.212 239.103 528.393 234.153 519.82C229.203 511.246 232.021 500.728 240.595 495.778L285.368 469.928C294.895 464.428 297.163 452.957 292.213 444.383C287.263 435.809 275.242 432.588 266.668 437.538L227.611 460.088C202.842 474.388 193.435 506.494 207.735 531.262L210.485 536.025C224.785 560.793 256.34 569.249 282.061 554.399L365.892 505.999C374.466 501.049 384.984 503.867 389.934 512.441C394.884 521.014 392.066 531.533 384.445 535.933Z" fill="url(#paint9_linear_29_5141)"/>
<path d="M432.076 508.433C424.455 512.833 413.937 510.014 409.537 502.393L338.037 378.551C322.637 351.878 288.626 343.57 262.905 358.42L131.443 434.32C123.822 438.72 113.303 435.902 108.903 428.281C104.503 420.66 107.322 410.141 114.943 405.741L246.405 329.841C288.321 305.641 342.415 320.136 366.615 362.051L438.115 485.893C442.515 493.514 439.697 504.032 432.076 508.433Z" fill="url(#paint10_linear_29_5141)"/>
</g>
<g style="mix-blend-mode:overlay" opacity="0.1" clip-path="url(#clip5_29_5141)">
<path d="M658.109 377.933L573.325 426.883C531.409 451.083 477.865 437.541 454.215 396.578L451.465 391.814C427.815 350.851 442.859 297.71 484.775 273.51L523.833 250.96C549.554 236.11 582.611 244.967 596.911 269.736C611.761 295.457 602.354 327.562 576.633 342.412L531.859 368.262C523.285 373.212 512.767 370.393 507.817 361.82C502.867 353.246 505.685 342.728 514.259 337.778L559.033 311.928C568.559 306.428 570.827 294.957 565.877 286.383C560.927 277.809 548.906 274.588 540.333 279.538L501.275 302.088C476.506 316.388 467.099 348.494 481.399 373.262L484.149 378.025C498.449 402.793 530.004 411.249 555.725 396.399L639.556 347.999C648.13 343.049 658.648 345.867 663.598 354.441C668.548 363.014 665.73 373.533 658.109 377.933Z" fill="url(#paint11_linear_29_5141)"/>
<path d="M705.74 350.433C698.119 354.833 687.601 352.014 683.201 344.393L611.701 220.551C596.301 193.878 562.29 185.57 536.569 200.42L405.107 276.32C397.486 280.72 386.967 277.902 382.567 270.281C378.167 262.66 380.986 252.141 388.607 247.741L520.069 171.841C561.985 147.641 616.079 162.136 640.279 204.051L711.779 327.893C716.179 335.514 713.361 346.032 705.74 350.433Z" fill="url(#paint12_linear_29_5141)"/>
</g>
<g style="mix-blend-mode:overlay" opacity="0.2" clip-path="url(#clip6_29_5141)">
<path d="M931.773 219.933L846.989 268.883C805.073 293.083 751.529 279.541 727.879 238.578L725.129 233.814C701.479 192.851 716.523 139.71 758.439 115.51L797.497 92.9595C823.218 78.1095 856.275 86.9673 870.575 111.736C885.425 137.457 876.018 169.562 850.297 184.412L805.523 210.262C796.949 215.212 786.431 212.393 781.481 203.82C776.531 195.246 779.349 184.728 787.923 179.778L832.697 153.928C842.223 148.428 844.491 136.957 839.541 128.383C834.591 119.809 822.57 116.588 813.997 121.538L774.939 144.088C750.17 158.388 740.763 190.494 755.063 215.262L757.813 220.025C772.113 244.793 803.668 253.249 829.389 238.399L913.22 189.999C921.794 185.049 932.312 187.867 937.262 196.441C942.212 205.014 939.394 215.533 931.773 219.933Z" fill="url(#paint13_linear_29_5141)"/>
<path d="M979.404 192.433C971.783 196.833 961.265 194.014 956.865 186.393L885.365 62.5515C869.965 35.8779 835.954 27.5701 810.233 42.4201L678.771 118.32C671.15 122.72 660.631 119.902 656.231 112.281C651.831 104.66 654.65 94.1412 662.271 89.7412L793.733 13.8412C835.649 -10.3588 889.743 4.13582 913.943 46.0515L985.443 169.893C989.843 177.514 987.025 188.032 979.404 192.433Z" fill="url(#paint14_linear_29_5141)"/>
</g>
<g style="mix-blend-mode:overlay" opacity="0.3" clip-path="url(#clip7_29_5141)">
<path d="M115.449 1018.02L30.6648 1066.97C-11.2509 1091.17 -64.7955 1077.63 -88.4455 1036.66L-91.1955 1031.9C-114.845 990.937 -99.8009 937.795 -57.8852 913.595L-18.8275 891.045C6.89348 876.195 39.9513 885.053 54.2513 909.821C69.1013 935.542 59.6935 967.647 33.9725 982.497L-10.801 1008.35C-19.3746 1013.3 -29.893 1010.48 -34.843 1001.9C-39.793 993.331 -36.9746 982.813 -28.401 977.863L16.3725 952.013C25.8988 946.513 28.1672 935.042 23.2172 926.468C18.2672 917.895 6.24617 914.674 -2.32748 919.624L-41.3852 942.174C-66.1536 956.474 -75.5614 988.579 -61.2614 1013.35L-58.5114 1018.11C-44.2114 1042.88 -12.6562 1051.33 13.0648 1036.48L96.896 988.084C105.47 983.134 115.988 985.952 120.938 994.526C125.888 1003.1 123.07 1013.62 115.449 1018.02Z" fill="url(#paint15_linear_29_5141)"/>
<path d="M163.08 990.518C155.459 994.918 144.941 992.099 140.541 984.478L69.0407 860.637C53.6407 833.963 19.6302 825.655 -6.09071 840.505L-137.553 916.405C-145.174 920.805 -155.693 917.987 -160.093 910.366C-164.493 902.745 -161.674 892.226 -154.053 887.826L-22.5907 811.926C19.3249 787.726 73.4195 802.221 97.6195 844.137L169.12 967.978C173.52 975.599 170.701 986.118 163.08 990.518Z" fill="url(#paint16_linear_29_5141)"/>
</g>
<g style="mix-blend-mode:overlay" opacity="0.5" clip-path="url(#clip8_29_5141)">
<path d="M389.113 860.018L304.329 908.968C262.413 933.168 208.869 919.626 185.219 878.663L182.469 873.9C158.819 832.937 173.863 779.795 215.779 755.595L254.837 733.045C280.558 718.195 313.615 727.053 327.915 751.821C342.765 777.542 333.358 809.647 307.637 824.497L262.863 850.347C254.289 855.297 243.771 852.479 238.821 843.905C233.871 835.331 236.689 824.813 245.263 819.863L290.037 794.013C299.563 788.513 301.831 777.042 296.881 768.468C291.931 759.895 279.91 756.674 271.337 761.624L232.279 784.174C207.511 798.474 198.103 830.579 212.403 855.347L215.153 860.11C229.453 884.879 261.008 893.334 286.729 878.484L370.56 830.084C379.134 825.134 389.652 827.952 394.602 836.526C399.552 845.099 396.734 855.618 389.113 860.018Z" fill="url(#paint17_linear_29_5141)"/>
<path d="M436.744 832.518C429.123 836.918 418.605 834.099 414.205 826.478L342.705 702.637C327.305 675.963 293.294 667.655 267.573 682.505L136.111 758.405C128.49 762.805 117.971 759.987 113.571 752.366C109.171 744.745 111.99 734.226 119.611 729.826L251.073 653.926C292.989 629.726 347.084 644.221 371.284 686.137L442.784 809.978C447.184 817.599 444.365 828.118 436.744 832.518Z" fill="url(#paint18_linear_29_5141)"/>
</g>
<g style="mix-blend-mode:overlay" opacity="0.1" clip-path="url(#clip9_29_5141)">
<path d="M662.777 702.018L577.993 750.968C536.077 775.168 482.533 761.626 458.883 720.663L456.133 715.9C432.483 674.937 447.527 621.795 489.443 597.595L528.501 575.045C554.222 560.195 587.279 569.053 601.579 593.821C616.429 619.542 607.022 651.647 581.301 666.497L536.527 692.347C527.953 697.297 517.435 694.479 512.485 685.905C507.535 677.331 510.353 666.813 518.927 661.863L563.701 636.013C573.227 630.513 575.495 619.042 570.545 610.468C565.595 601.895 553.574 598.674 545.001 603.624L505.943 626.174C481.175 640.474 471.767 672.579 486.067 697.347L488.817 702.11C503.117 726.879 534.672 735.334 560.393 720.484L644.224 672.084C652.798 667.134 663.316 669.952 668.266 678.526C673.216 687.099 670.398 697.618 662.777 702.018Z" fill="url(#paint19_linear_29_5141)"/>
<path d="M710.408 674.518C702.787 678.918 692.269 676.099 687.869 668.478L616.369 544.637C600.969 517.963 566.958 509.655 541.237 524.505L409.775 600.405C402.154 604.805 391.635 601.987 387.235 594.366C382.835 586.745 385.654 576.226 393.275 571.826L524.737 495.926C566.653 471.726 620.748 486.221 644.948 528.137L716.448 651.978C720.848 659.599 718.029 670.118 710.408 674.518Z" fill="url(#paint20_linear_29_5141)"/>
</g>
<g style="mix-blend-mode:overlay" opacity="0.1" clip-path="url(#clip10_29_5141)">
<path d="M936.441 544.018L851.657 592.968C809.741 617.168 756.197 603.626 732.547 562.663L729.797 557.9C706.147 516.937 721.191 463.795 763.107 439.595L802.165 417.045C827.886 402.195 860.943 411.053 875.243 435.821C890.093 461.542 880.686 493.647 854.965 508.497L810.191 534.347C801.617 539.297 791.099 536.479 786.149 527.905C781.199 519.331 784.017 508.813 792.591 503.863L837.365 478.013C846.891 472.513 849.159 461.042 844.209 452.468C839.259 443.895 827.238 440.674 818.665 445.624L779.607 468.174C754.839 482.474 745.431 514.579 759.731 539.347L762.481 544.11C776.781 568.879 808.336 577.334 834.057 562.484L917.888 514.084C926.462 509.134 936.98 511.952 941.93 520.526C946.88 529.099 944.062 539.618 936.441 544.018Z" fill="url(#paint21_linear_29_5141)"/>
<path d="M984.072 516.518C976.451 520.918 965.933 518.099 961.533 510.478L890.033 386.637C874.633 359.963 840.622 351.655 814.901 366.505L683.439 442.405C675.818 446.805 665.299 443.987 660.899 436.366C656.499 428.745 659.318 418.226 666.939 413.826L798.401 337.926C840.317 313.726 894.412 328.221 918.612 370.137L990.112 493.978C994.512 501.599 991.693 512.118 984.072 516.518Z" fill="url(#paint22_linear_29_5141)"/>
</g>
<g style="mix-blend-mode:overlay" opacity="0.3" clip-path="url(#clip11_29_5141)">
<path d="M667.445 1026.1L582.661 1075.05C540.745 1099.25 487.201 1085.71 463.551 1044.75L460.801 1039.98C437.151 999.022 452.195 945.88 494.111 921.68L533.169 899.13C558.89 884.28 591.947 893.138 606.247 917.906C621.097 943.627 611.69 975.732 585.969 990.582L541.195 1016.43C532.621 1021.38 522.103 1018.56 517.153 1009.99C512.203 1001.42 515.021 990.898 523.595 985.948L568.369 960.098C577.895 954.598 580.163 943.127 575.213 934.553C570.263 925.98 558.242 922.759 549.669 927.709L510.611 950.259C485.842 964.559 476.435 996.664 490.735 1021.43L493.485 1026.2C507.785 1050.96 539.34 1059.42 565.061 1044.57L648.892 996.169C657.466 991.219 667.984 994.037 672.934 1002.61C677.884 1011.18 675.066 1021.7 667.445 1026.1Z" fill="url(#paint23_linear_29_5141)"/>
<path d="M715.076 998.603C707.455 1003 696.937 1000.18 692.537 992.563L621.037 868.722C605.637 842.048 571.626 833.74 545.905 848.59L414.443 924.49C406.822 928.89 396.303 926.072 391.903 918.451C387.503 910.83 390.322 900.312 397.943 895.912L529.405 820.012C571.321 795.812 625.415 810.306 649.615 852.222L721.115 976.063C725.515 983.685 722.697 994.203 715.076 998.603Z" fill="url(#paint24_linear_29_5141)"/>
</g>
<g style="mix-blend-mode:overlay" opacity="0.2" clip-path="url(#clip12_29_5141)">
<path d="M941.109 868.103L856.325 917.053C814.409 941.253 760.865 927.711 737.215 886.748L734.465 881.985C710.815 841.022 725.859 787.88 767.775 763.68L806.833 741.13C832.554 726.28 865.611 735.138 879.911 759.906C894.761 785.627 885.354 817.732 859.633 832.582L814.859 858.432C806.285 863.382 795.767 860.564 790.817 851.99C785.867 843.417 788.685 832.898 797.259 827.948L842.033 802.098C851.559 796.598 853.827 785.127 848.877 776.553C843.927 767.98 831.906 764.759 823.333 769.709L784.275 792.259C759.506 806.559 750.099 838.664 764.399 863.432L767.149 868.195C781.449 892.964 813.004 901.419 838.725 886.569L922.556 838.169C931.13 833.219 941.648 836.037 946.598 844.611C951.548 853.185 948.73 863.703 941.109 868.103Z" fill="url(#paint25_linear_29_5141)"/>
<path d="M988.74 840.603C981.119 845.003 970.601 842.185 966.201 834.563L894.701 710.722C879.301 684.048 845.29 675.74 819.569 690.59L688.107 766.49C680.486 770.89 669.967 768.072 665.567 760.451C661.167 752.83 663.986 742.312 671.607 737.912L803.069 662.012C844.985 637.812 899.079 652.306 923.279 694.222L994.779 818.063C999.179 825.685 996.361 836.203 988.74 840.603Z" fill="url(#paint26_linear_29_5141)"/>
</g>
<g style="mix-blend-mode:overlay" opacity="0.1" clip-path="url(#clip13_29_5141)">
<path opacity="0.3" d="M1214.77 710.103L1129.99 759.053C1088.07 783.253 1034.53 769.711 1010.88 728.748L1008.13 723.985C984.479 683.022 999.523 629.88 1041.44 605.68L1080.5 583.13C1106.22 568.28 1139.28 577.138 1153.58 601.906C1168.43 627.627 1159.02 659.732 1133.3 674.582L1088.52 700.432C1079.95 705.382 1069.43 702.564 1064.48 693.99C1059.53 685.417 1062.35 674.898 1070.92 669.948L1115.7 644.098C1125.22 638.598 1127.49 627.127 1122.54 618.553C1117.59 609.98 1105.57 606.759 1097 611.709L1057.94 634.259C1033.17 648.559 1023.76 680.664 1038.06 705.432L1040.81 710.195C1055.11 734.964 1086.67 743.419 1112.39 728.569L1196.22 680.169C1204.79 675.219 1215.31 678.037 1220.26 686.611C1225.21 695.185 1222.39 705.703 1214.77 710.103Z" fill="url(#paint27_linear_29_5141)"/>
<path d="M1262.4 682.603C1254.78 687.003 1244.26 684.185 1239.86 676.563L1168.36 552.722C1152.96 526.048 1118.95 517.74 1093.23 532.59L961.771 608.49C954.15 612.89 943.631 610.072 939.231 602.451C934.831 594.83 937.65 584.312 945.271 579.912L1076.73 504.012C1118.65 479.812 1172.74 494.306 1196.94 536.222L1268.44 660.063C1272.84 667.685 1270.03 678.203 1262.4 682.603Z" fill="url(#paint28_linear_29_5141)"/>
</g>
<defs>
<linearGradient id="paint0_linear_29_5141" x1="591.368" y1="226" x2="413.789" y2="843.346" gradientUnits="userSpaceOnUse">
<stop stop-color="#00093D"/>
<stop offset="1" stop-color="#00093D" stop-opacity="0"/>
</linearGradient>
<linearGradient id="paint1_linear_29_5141" x1="50.9032" y1="53.212" x2="-23.8571" y2="494.232" gradientUnits="userSpaceOnUse">
<stop offset="0.0537255" stop-color="#00DE8E"/>
<stop offset="1" stop-color="#00A7FF"/>
</linearGradient>
<linearGradient id="paint2_linear_29_5141" x1="173.482" y1="299.714" x2="-146.011" y2="181.149" gradientUnits="userSpaceOnUse">
<stop offset="0.0537255" stop-color="#00DE8E"/>
<stop offset="1" stop-color="#00A7FF"/>
</linearGradient>
<linearGradient id="paint3_linear_29_5141" x1="324.567" y1="-104.788" x2="249.807" y2="336.232" gradientUnits="userSpaceOnUse">
<stop offset="0.0537255" stop-color="#00DE8E"/>
<stop offset="1" stop-color="#00A7FF"/>
</linearGradient>
<linearGradient id="paint4_linear_29_5141" x1="447.146" y1="141.714" x2="127.653" y2="23.1491" gradientUnits="userSpaceOnUse">
<stop offset="0.0537255" stop-color="#00DE8E"/>
<stop offset="1" stop-color="#00A7FF"/>
</linearGradient>
<linearGradient id="paint5_linear_29_5141" x1="598.231" y1="-262.788" x2="523.471" y2="178.232" gradientUnits="userSpaceOnUse">
<stop offset="0.0537255" stop-color="#00DE8E"/>
<stop offset="1" stop-color="#00A7FF"/>
</linearGradient>
<linearGradient id="paint6_linear_29_5141" x1="720.81" y1="-16.2856" x2="401.317" y2="-134.851" gradientUnits="userSpaceOnUse">
<stop offset="0.0537255" stop-color="#00DE8E"/>
<stop offset="1" stop-color="#00A7FF"/>
</linearGradient>
<linearGradient id="paint7_linear_29_5141" x1="55.5712" y1="377.297" x2="-19.1892" y2="818.317" gradientUnits="userSpaceOnUse">
<stop offset="0.0537255" stop-color="#00DE8E"/>
<stop offset="1" stop-color="#00A7FF"/>
</linearGradient>
<linearGradient id="paint8_linear_29_5141" x1="178.15" y1="623.8" x2="-141.343" y2="505.234" gradientUnits="userSpaceOnUse">
<stop offset="0.0537255" stop-color="#00DE8E"/>
<stop offset="1" stop-color="#00A7FF"/>
</linearGradient>
<linearGradient id="paint9_linear_29_5141" x1="329.235" y1="219.297" x2="254.475" y2="660.317" gradientUnits="userSpaceOnUse">
<stop offset="0.0537255" stop-color="#00DE8E"/>
<stop offset="1" stop-color="#00A7FF"/>
</linearGradient>
<linearGradient id="paint10_linear_29_5141" x1="451.814" y1="465.8" x2="132.321" y2="347.234" gradientUnits="userSpaceOnUse">
<stop offset="0.0537255" stop-color="#00DE8E"/>
<stop offset="1" stop-color="#00A7FF"/>
</linearGradient>
<linearGradient id="paint11_linear_29_5141" x1="602.899" y1="61.2972" x2="528.139" y2="502.317" gradientUnits="userSpaceOnUse">
<stop offset="0.0537255" stop-color="#00DE8E"/>
<stop offset="1" stop-color="#00A7FF"/>
</linearGradient>
<linearGradient id="paint12_linear_29_5141" x1="725.478" y1="307.8" x2="405.985" y2="189.234" gradientUnits="userSpaceOnUse">
<stop offset="0.0537255" stop-color="#00DE8E"/>
<stop offset="1" stop-color="#00A7FF"/>
</linearGradient>
<linearGradient id="paint13_linear_29_5141" x1="876.563" y1="-96.7028" x2="801.803" y2="344.317" gradientUnits="userSpaceOnUse">
<stop offset="0.0537255" stop-color="#00DE8E"/>
<stop offset="1" stop-color="#00A7FF"/>
</linearGradient>
<linearGradient id="paint14_linear_29_5141" x1="999.142" y1="149.8" x2="679.649" y2="31.2343" gradientUnits="userSpaceOnUse">
<stop offset="0.0537255" stop-color="#00DE8E"/>
<stop offset="1" stop-color="#00A7FF"/>
</linearGradient>
<linearGradient id="paint15_linear_29_5141" x1="60.2392" y1="701.382" x2="-14.5212" y2="1142.4" gradientUnits="userSpaceOnUse">
<stop offset="0.0537255" stop-color="#00DE8E"/>
<stop offset="1" stop-color="#00A7FF"/>
</linearGradient>
<linearGradient id="paint16_linear_29_5141" x1="182.818" y1="947.885" x2="-136.675" y2="829.319" gradientUnits="userSpaceOnUse">
<stop offset="0.0537255" stop-color="#00DE8E"/>
<stop offset="1" stop-color="#00A7FF"/>
</linearGradient>
<linearGradient id="paint17_linear_29_5141" x1="333.903" y1="543.382" x2="259.143" y2="984.402" gradientUnits="userSpaceOnUse">
<stop offset="0.0537255" stop-color="#00DE8E"/>
<stop offset="1" stop-color="#00A7FF"/>
</linearGradient>
<linearGradient id="paint18_linear_29_5141" x1="456.482" y1="789.885" x2="136.989" y2="671.319" gradientUnits="userSpaceOnUse">
<stop offset="0.0537255" stop-color="#00DE8E"/>
<stop offset="1" stop-color="#00A7FF"/>
</linearGradient>
<linearGradient id="paint19_linear_29_5141" x1="607.567" y1="385.382" x2="532.807" y2="826.402" gradientUnits="userSpaceOnUse">
<stop offset="0.0537255" stop-color="#00DE8E"/>
<stop offset="1" stop-color="#00A7FF"/>
</linearGradient>
<linearGradient id="paint20_linear_29_5141" x1="730.146" y1="631.885" x2="410.653" y2="513.319" gradientUnits="userSpaceOnUse">
<stop offset="0.0537255" stop-color="#00DE8E"/>
<stop offset="1" stop-color="#00A7FF"/>
</linearGradient>
<linearGradient id="paint21_linear_29_5141" x1="881.231" y1="227.382" x2="806.471" y2="668.402" gradientUnits="userSpaceOnUse">
<stop offset="0.0537255" stop-color="#00DE8E"/>
<stop offset="1" stop-color="#00A7FF"/>
</linearGradient>
<linearGradient id="paint22_linear_29_5141" x1="1003.81" y1="473.885" x2="684.317" y2="355.319" gradientUnits="userSpaceOnUse">
<stop offset="0.0537255" stop-color="#00DE8E"/>
<stop offset="1" stop-color="#00A7FF"/>
</linearGradient>
<linearGradient id="paint23_linear_29_5141" x1="612.235" y1="709.468" x2="537.475" y2="1150.49" gradientUnits="userSpaceOnUse">
<stop offset="0.0537255" stop-color="#00DE8E"/>
<stop offset="1" stop-color="#00A7FF"/>
</linearGradient>
<linearGradient id="paint24_linear_29_5141" x1="734.814" y1="955.97" x2="415.321" y2="837.405" gradientUnits="userSpaceOnUse">
<stop offset="0.0537255" stop-color="#00DE8E"/>
<stop offset="1" stop-color="#00A7FF"/>
</linearGradient>
<linearGradient id="paint25_linear_29_5141" x1="885.899" y1="551.468" x2="811.139" y2="992.487" gradientUnits="userSpaceOnUse">
<stop offset="0.0537255" stop-color="#00DE8E"/>
<stop offset="1" stop-color="#00A7FF"/>
</linearGradient>
<linearGradient id="paint26_linear_29_5141" x1="1008.48" y1="797.97" x2="688.985" y2="679.405" gradientUnits="userSpaceOnUse">
<stop offset="0.0537255" stop-color="#00DE8E"/>
<stop offset="1" stop-color="#00A7FF"/>
</linearGradient>
<linearGradient id="paint27_linear_29_5141" x1="1159.56" y1="393.468" x2="1084.8" y2="834.487" gradientUnits="userSpaceOnUse">
<stop offset="0.0537255" stop-color="#00DE8E"/>
<stop offset="1" stop-color="#00A7FF"/>
</linearGradient>
<linearGradient id="paint28_linear_29_5141" x1="1282.14" y1="639.97" x2="962.649" y2="521.405" gradientUnits="userSpaceOnUse">
<stop offset="0.0537255" stop-color="#00DE8E"/>
<stop offset="1" stop-color="#00A7FF"/>
</linearGradient>
<clipPath id="clip0_29_5141">
<rect width="286" height="253" fill="white" transform="translate(-183.395 251.206) rotate(-30)"/>
</clipPath>
<clipPath id="clip1_29_5141">
<rect width="286" height="253" fill="white" transform="translate(90.2694 93.2061) rotate(-30)"/>
</clipPath>
<clipPath id="clip2_29_5141">
<rect width="286" height="253" fill="white" transform="translate(363.933 -64.7939) rotate(-30)"/>
</clipPath>
<clipPath id="clip3_29_5141">
<rect width="286" height="253" fill="white" transform="translate(-178.727 575.291) rotate(-30)"/>
</clipPath>
<clipPath id="clip4_29_5141">
<rect width="286" height="253" fill="white" transform="translate(94.9374 417.291) rotate(-30)"/>
</clipPath>
<clipPath id="clip5_29_5141">
<rect width="286" height="253" fill="white" transform="translate(368.601 259.291) rotate(-30)"/>
</clipPath>
<clipPath id="clip6_29_5141">
<rect width="286" height="253" fill="white" transform="translate(642.265 101.291) rotate(-30)"/>
</clipPath>
<clipPath id="clip7_29_5141">
<rect width="286" height="253" fill="white" transform="translate(-174.059 899.376) rotate(-30)"/>
</clipPath>
<clipPath id="clip8_29_5141">
<rect width="286" height="253" fill="white" transform="translate(99.6055 741.376) rotate(-30)"/>
</clipPath>
<clipPath id="clip9_29_5141">
<rect width="286" height="253" fill="white" transform="translate(373.269 583.376) rotate(-30)"/>
</clipPath>
<clipPath id="clip10_29_5141">
<rect width="286" height="253" fill="white" transform="translate(646.933 425.376) rotate(-30)"/>
</clipPath>
<clipPath id="clip11_29_5141">
<rect width="286" height="253" fill="white" transform="translate(377.937 907.462) rotate(-30)"/>
</clipPath>
<clipPath id="clip12_29_5141">
<rect width="286" height="253" fill="white" transform="translate(651.601 749.462) rotate(-30)"/>
</clipPath>
<clipPath id="clip13_29_5141">
<rect width="286" height="253" fill="white" transform="translate(925.265 591.462) rotate(-30)"/>
</clipPath>
</defs>
</svg>
