<svg width="48" height="48" viewBox="0 0 48 48" fill="none" xmlns="http://www.w3.org/2000/svg">
<path fill-rule="evenodd" clip-rule="evenodd" d="M16.7106 5.19998C15.1421 5.19998 13.8706 6.47149 13.8706 8.03998V39.9613C13.8706 41.5298 15.1421 42.8013 16.7106 42.8013H31.2893C32.8578 42.8013 34.1293 41.5298 34.1293 39.9613V8.03998C34.1293 6.47149 32.8578 5.19998 31.2893 5.19998H16.7106ZM13.1506 8.03998C13.1506 6.07385 14.7445 4.47998 16.7106 4.47998H31.2893C33.2554 4.47998 34.8493 6.07385 34.8493 8.03998V39.9613C34.8493 41.9275 33.2554 43.5213 31.2893 43.5213H16.7106C14.7445 43.5213 13.1506 41.9275 13.1506 39.9613V8.03998Z" fill="white"/>
<path d="M30.0002 22.6665H29.8869C29.6723 22.6656 29.4628 22.6021 29.2839 22.4836C29.105 22.3652 28.9647 22.197 28.8802 21.9998V21.9465C28.7915 21.7454 28.765 21.5224 28.8042 21.3061C28.8434 21.0898 28.9465 20.8903 29.1002 20.7332L29.1402 20.6932C29.3902 20.4431 29.5306 20.1041 29.5306 19.7505C29.5306 19.397 29.3902 19.0579 29.1402 18.8078C28.8902 18.5579 28.5511 18.4175 28.1975 18.4175C27.844 18.4175 27.5049 18.5579 27.2549 18.8078L27.2149 18.8478C27.0589 18.9985 26.8623 19.1001 26.6492 19.1402C26.4361 19.1803 26.2159 19.157 26.0159 19.0733C25.8159 18.9896 25.6448 18.8492 25.5238 18.6693C25.4027 18.4894 25.3371 18.278 25.3349 18.0612V17.9998C25.3349 17.6462 25.1944 17.3071 24.9443 17.057C24.6943 16.807 24.3552 16.6665 24.0015 16.6665C23.6479 16.6665 23.3088 16.807 23.0587 17.057C22.8087 17.3071 22.6682 17.6462 22.6682 17.9998V18.1132C22.6673 18.3277 22.6038 18.5373 22.4853 18.7161C22.3669 18.895 22.1987 19.0353 22.0015 19.1198H21.9482C21.7471 19.2086 21.5241 19.2351 21.3078 19.1958C21.0915 19.1566 20.892 19.0535 20.7349 18.8998L20.6949 18.8598C20.4448 18.6099 20.1058 18.4695 19.7522 18.4695C19.3987 18.4695 19.0596 18.6099 18.8095 18.8598C18.5596 19.1099 18.4192 19.449 18.4192 19.8025C18.4192 20.1561 18.5596 20.4951 18.8095 20.7452L18.8495 20.7852C18.9973 20.9463 19.0963 21.1461 19.135 21.3613C19.1737 21.5765 19.1505 21.7983 19.0681 22.0008C18.9857 22.2033 18.8475 22.3783 18.6695 22.5054C18.4916 22.6324 18.2812 22.7063 18.0629 22.7185H18.0002C17.6466 22.7185 17.3074 22.859 17.0574 23.109C16.8073 23.3591 16.6669 23.6982 16.6669 24.0518C16.6669 24.4055 16.8073 24.7446 17.0574 24.9946C17.3074 25.2447 17.6466 25.3852 18.0002 25.3852H18.1135C18.3303 25.3874 18.5418 25.453 18.7216 25.5741C18.9015 25.6951 19.042 25.8662 19.1257 26.0662C19.2094 26.2662 19.2326 26.4864 19.1925 26.6995C19.1525 26.9126 19.0508 27.1092 18.9002 27.2652L18.8602 27.3052C18.6102 27.5552 18.4698 27.8943 18.4698 28.2478C18.4698 28.6014 18.6102 28.9405 18.8602 29.1905C19.1102 29.4405 19.4493 29.5809 19.8029 29.5809C20.1564 29.5809 20.4955 29.4405 20.7455 29.1905L20.7855 29.1505C20.9467 29.0027 21.1465 28.9037 21.3617 28.865C21.5769 28.8263 21.7986 28.8495 22.0012 28.932C22.2037 29.0144 22.3787 29.1526 22.5057 29.3305C22.6328 29.5085 22.7067 29.7189 22.7189 29.9372V29.9998C22.7189 30.3535 22.8593 30.6926 23.1094 30.9426C23.3594 31.1927 23.6986 31.3332 24.0522 31.3332C24.4058 31.3332 24.745 31.1927 24.995 30.9426C25.2451 30.6926 25.3855 30.3535 25.3855 29.9998V29.8865C25.3877 29.6697 25.4534 29.4583 25.5744 29.2784C25.6955 29.0985 25.8666 28.9581 26.0666 28.8744C26.2666 28.7907 26.4868 28.7674 26.6998 28.8075C26.9129 28.8476 27.1096 28.9492 27.2655 29.0998L27.3055 29.1398C27.5556 29.3898 27.8947 29.5302 28.2482 29.5302C28.6018 29.5302 28.9408 29.3898 29.1909 29.1398C29.4408 28.8898 29.5813 28.5507 29.5813 28.1972C29.5813 27.8436 29.4408 27.5045 29.1909 27.2545L29.1509 27.2145C29.0002 27.0586 28.8986 26.8619 28.8585 26.6488C28.8185 26.4357 28.8417 26.2156 28.9254 26.0156C29.0091 25.8156 29.1496 25.6445 29.3294 25.5234C29.5093 25.4024 29.7207 25.3367 29.9375 25.3345H30.0002C30.3538 25.3345 30.693 25.194 30.943 24.944C31.1931 24.6939 31.3335 24.3548 31.3335 24.0012C31.3335 23.6475 31.1931 23.3084 30.943 23.0584C30.693 22.8083 30.3538 22.6678 30.0002 22.6678V22.6665ZM24.0002 25.9998C23.6046 25.9998 23.218 25.8825 22.8891 25.6628C22.5602 25.443 22.3038 25.1307 22.1524 24.7652C22.0011 24.3998 21.9615 23.9976 22.0386 23.6097C22.1158 23.2217 22.3063 22.8653 22.586 22.5856C22.8657 22.3059 23.2221 22.1154 23.61 22.0383C23.998 21.9611 24.4001 22.0007 24.7656 22.1521C25.131 22.3035 25.4434 22.5598 25.6631 22.8887C25.8829 23.2176 26.0002 23.6043 26.0002 23.9998C26.0002 24.5303 25.7895 25.039 25.4144 25.4141C25.0393 25.7891 24.5306 25.9998 24.0002 25.9998Z" fill="url(#paint0_linear_26_4845)"/>
<path fill-rule="evenodd" clip-rule="evenodd" d="M5.48802 16.2122C3.94162 16.2122 2.68802 17.4658 2.68802 19.0122C2.68802 20.5586 3.94162 21.8122 5.48802 21.8122C7.03441 21.8122 8.28802 20.5586 8.28802 19.0122C8.28802 17.4658 7.03441 16.2122 5.48802 16.2122ZM1.96802 19.0122C1.96802 17.0681 3.54398 15.4922 5.48802 15.4922C7.43206 15.4922 9.00802 17.0681 9.00802 19.0122C9.00802 20.9562 7.43206 22.5322 5.48802 22.5322C3.54398 22.5322 1.96802 20.9562 1.96802 19.0122Z" fill="white"/>
<path fill-rule="evenodd" clip-rule="evenodd" d="M13.5107 19.3719H8.50806V18.6519H13.5107V19.3719Z" fill="white"/>
<path d="M5.48795 20.2655C6.18015 20.2655 6.74129 19.7043 6.74129 19.0121C6.74129 18.3199 6.18015 17.7588 5.48795 17.7588C4.79576 17.7588 4.23462 18.3199 4.23462 19.0121C4.23462 19.7043 4.79576 20.2655 5.48795 20.2655Z" fill="#00B4E4"/>
<path fill-rule="evenodd" clip-rule="evenodd" d="M5.48797 18.1184C4.99459 18.1184 4.59463 18.5184 4.59463 19.0118C4.59463 19.5051 4.99459 19.9051 5.48797 19.9051C5.98134 19.9051 6.3813 19.5051 6.3813 19.0118C6.3813 18.5184 5.98134 18.1184 5.48797 18.1184ZM3.87463 19.0118C3.87463 18.1208 4.59695 17.3984 5.48797 17.3984C6.37899 17.3984 7.1013 18.1208 7.1013 19.0118C7.1013 19.9028 6.37899 20.6251 5.48797 20.6251C4.59695 20.6251 3.87463 19.9028 3.87463 19.0118Z" fill="white"/>
<path fill-rule="evenodd" clip-rule="evenodd" d="M42.5119 25.9602C40.9655 25.9602 39.7119 27.2138 39.7119 28.7602C39.7119 30.3066 40.9655 31.5602 42.5119 31.5602C44.0583 31.5602 45.3119 30.3066 45.3119 28.7602C45.3119 27.2138 44.0583 25.9602 42.5119 25.9602ZM38.9919 28.7602C38.9919 26.8162 40.5679 25.2402 42.5119 25.2402C44.456 25.2402 46.0319 26.8162 46.0319 28.7602C46.0319 30.7043 44.456 32.2802 42.5119 32.2802C40.5679 32.2802 38.9919 30.7043 38.9919 28.7602Z" fill="white"/>
<path fill-rule="evenodd" clip-rule="evenodd" d="M34.4894 28.3999H39.492V29.1199H34.4894V28.3999Z" fill="white"/>
<path d="M42.512 30.0135C43.2042 30.0135 43.7653 29.4524 43.7653 28.7602C43.7653 28.068 43.2042 27.5068 42.512 27.5068C41.8198 27.5068 41.2587 28.068 41.2587 28.7602C41.2587 29.4524 41.8198 30.0135 42.512 30.0135Z" fill="#00B4E4"/>
<path fill-rule="evenodd" clip-rule="evenodd" d="M42.512 27.8665C42.0186 27.8665 41.6187 28.2664 41.6187 28.7598C41.6187 29.2532 42.0186 29.6532 42.512 29.6532C43.0054 29.6532 43.4053 29.2532 43.4053 28.7598C43.4053 28.2664 43.0054 27.8665 42.512 27.8665ZM40.8987 28.7598C40.8987 27.8688 41.621 27.1465 42.512 27.1465C43.403 27.1465 44.1253 27.8688 44.1253 28.7598C44.1253 29.6508 43.403 30.3732 42.512 30.3732C41.621 30.3732 40.8987 29.6508 40.8987 28.7598Z" fill="white"/>
<path fill-rule="evenodd" clip-rule="evenodd" d="M42.5119 35.4612C40.9655 35.4612 39.7119 36.7148 39.7119 38.2612C39.7119 39.8076 40.9655 41.0612 42.5119 41.0612C44.0583 41.0612 45.3119 39.8076 45.3119 38.2612C45.3119 36.7148 44.0583 35.4612 42.5119 35.4612ZM38.9919 38.2612C38.9919 36.3172 40.5679 34.7412 42.5119 34.7412C44.456 34.7412 46.0319 36.3172 46.0319 38.2612C46.0319 40.2053 44.456 41.7812 42.5119 41.7812C40.5679 41.7812 38.9919 40.2053 38.9919 38.2612Z" fill="white"/>
<path fill-rule="evenodd" clip-rule="evenodd" d="M34.4894 37.9014H39.492V38.6214H34.4894V37.9014Z" fill="white"/>
<path d="M42.512 39.5145C43.2042 39.5145 43.7653 38.9533 43.7653 38.2611C43.7653 37.5689 43.2042 37.0078 42.512 37.0078C41.8198 37.0078 41.2587 37.5689 41.2587 38.2611C41.2587 38.9533 41.8198 39.5145 42.512 39.5145Z" fill="#00B4E4"/>
<path fill-rule="evenodd" clip-rule="evenodd" d="M42.512 37.3679C42.0186 37.3679 41.6187 37.7679 41.6187 38.2613C41.6187 38.7547 42.0186 39.1546 42.512 39.1546C43.0054 39.1546 43.4053 38.7547 43.4053 38.2613C43.4053 37.7679 43.0054 37.3679 42.512 37.3679ZM40.8987 38.2613C40.8987 37.3703 41.621 36.6479 42.512 36.6479C43.403 36.6479 44.1253 37.3703 44.1253 38.2613C44.1253 39.1523 43.403 39.8746 42.512 39.8746C41.621 39.8746 40.8987 39.1523 40.8987 38.2613Z" fill="white"/>
<path fill-rule="evenodd" clip-rule="evenodd" d="M5.48802 6.72146C3.94162 6.72146 2.68802 7.97507 2.68802 9.52147C2.68802 11.0679 3.94162 12.3215 5.48802 12.3215C7.03441 12.3215 8.28802 11.0679 8.28802 9.52147C8.28802 7.97507 7.03441 6.72146 5.48802 6.72146ZM1.96802 9.52147C1.96802 7.57742 3.54398 6.00146 5.48802 6.00146C7.43206 6.00146 9.00802 7.57742 9.00802 9.52147C9.00802 11.4655 7.43206 13.0415 5.48802 13.0415C3.54398 13.0415 1.96802 11.4655 1.96802 9.52147Z" fill="white"/>
<path fill-rule="evenodd" clip-rule="evenodd" d="M13.5107 9.88113H8.50806V9.16113H13.5107V9.88113Z" fill="white"/>
<path d="M5.48795 10.7747C6.18015 10.7747 6.74129 10.2136 6.74129 9.5214C6.74129 8.8292 6.18015 8.26807 5.48795 8.26807C4.79576 8.26807 4.23462 8.8292 4.23462 9.5214C4.23462 10.2136 4.79576 10.7747 5.48795 10.7747Z" fill="#00B4E4"/>
<path fill-rule="evenodd" clip-rule="evenodd" d="M5.48797 8.6282C4.99459 8.6282 4.59463 9.02816 4.59463 9.52154C4.59463 10.0149 4.99459 10.4149 5.48797 10.4149C5.98134 10.4149 6.3813 10.0149 6.3813 9.52154C6.3813 9.02816 5.98134 8.6282 5.48797 8.6282ZM3.87463 9.52154C3.87463 8.63052 4.59695 7.9082 5.48797 7.9082C6.37899 7.9082 7.1013 8.63052 7.1013 9.52154C7.1013 10.4126 6.37899 11.1349 5.48797 11.1349C4.59695 11.1349 3.87463 10.4126 3.87463 9.52154Z" fill="white"/>
<path fill-rule="evenodd" clip-rule="evenodd" d="M20.5427 7.20912C20.5427 7.0103 20.7039 6.84912 20.9027 6.84912H26.9027C27.1015 6.84912 27.2627 7.0103 27.2627 7.20912C27.2627 7.40794 27.1015 7.56912 26.9027 7.56912H20.9027C20.7039 7.56912 20.5427 7.40794 20.5427 7.20912Z" fill="white"/>
<defs>
<linearGradient id="paint0_linear_26_4845" x1="34.7602" y1="11.9745" x2="22.0789" y2="26.1465" gradientUnits="userSpaceOnUse">
<stop stop-color="#00DE8E"/>
<stop offset="1" stop-color="#00A7FF"/>
</linearGradient>
</defs>
</svg>
