<svg width="360" height="360" viewBox="0 0 360 360" fill="none" xmlns="http://www.w3.org/2000/svg">
<path d="M179.16 125.32L137.56 140.92C137.102 141.089 136.708 141.395 136.429 141.795C136.15 142.196 136 142.672 136 143.16V180C136 209.83 171.95 230.67 178.86 234.4C179.209 234.592 179.601 234.692 180 234.692C180.399 234.692 180.791 234.592 181.14 234.4C188.05 230.67 224 209.83 224 180V143.16C224 142.672 223.85 142.196 223.571 141.795C223.292 141.395 222.898 141.089 222.44 140.92L180.84 125.32C180.3 125.11 179.7 125.11 179.16 125.32ZM203.27 171.22L179 195.49C178.437 196.051 177.74 196.459 176.975 196.675C176.21 196.89 175.403 196.906 174.63 196.72C173.764 196.498 172.977 196.037 172.36 195.39L161.54 184.57C160.694 183.716 160.189 182.582 160.119 181.382C160.049 180.181 160.419 178.997 161.16 178.05C161.711 177.426 162.419 176.962 163.211 176.707C164.003 176.452 164.849 176.415 165.66 176.6C166.557 176.834 167.369 177.32 168 178L175.69 185.7H175.75L196.9 164.55C197.354 164.095 197.898 163.741 198.497 163.508C199.096 163.276 199.737 163.171 200.378 163.2C201.02 163.229 201.649 163.392 202.224 163.678C202.8 163.963 203.309 164.366 203.72 164.86C204.437 165.791 204.786 166.953 204.704 168.126C204.621 169.298 204.111 170.399 203.27 171.22Z" fill="url(#paint0_linear_1_7458)"/>
<path d="M110.5 73H266.94C278.24 73 287.41 83.74 287.41 97V242.67" stroke="white" stroke-width="3" stroke-miterlimit="10"/>
<path d="M248.49 287.93H93.06C81.76 287.93 72.59 277.18 72.59 263.93V117.33" stroke="white" stroke-width="3" stroke-miterlimit="10"/>
<path d="M301 257C280.013 257 263 274.013 263 295C263 315.987 280.013 333 301 333C321.987 333 339 315.987 339 295C339 274.013 321.987 257 301 257Z" stroke="white" stroke-width="3" stroke-miterlimit="10"/>
<path d="M297.692 284.836L296.413 282.285M305.368 300.143L306.648 302.694M293.854 296.316L291.295 297.592M298.972 300.143L297.692 302.694M304.089 284.836L305.368 282.285M311.765 296.316L309.206 295.04M293.854 289.938L291.295 288.663M322 292.464C321.974 306.546 310.537 317.974 296.413 318V312.235L296.387 312.209C285.436 309.377 278.834 298.255 281.649 287.336C282.317 284.74 283.492 282.3 285.106 280.156C286.72 278.012 288.742 276.206 291.057 274.842C293.371 273.477 295.932 272.581 298.594 272.203C301.256 271.826 303.967 271.975 306.571 272.642C315.603 274.964 322 283.178 322 292.489V292.464Z" stroke="#01D2A6" stroke-width="3" stroke-linecap="round" stroke-linejoin="round"/>
<path d="M58 27C37.0132 27 20 44.0132 20 65C20 85.9868 37.0132 103 58 103C78.9868 103 96 85.9868 96 65C96 44.0132 78.9869 27 58 27Z" stroke="white" stroke-width="3" stroke-miterlimit="10"/>
<mask id="path-7-outside-1_1_7458" maskUnits="userSpaceOnUse" x="38" y="44" width="41" height="42" fill="black">
<rect fill="white" x="38" y="44" width="41" height="42"/>
<path d="M74.8608 52.202L63.7654 64.685C63.7335 64.7185 63.6952 64.7452 63.6528 64.7634C63.6103 64.7816 63.5647 64.791 63.5185 64.791C63.4723 64.791 63.4267 64.7816 63.3842 64.7634C63.3418 64.7452 63.3035 64.7185 63.2716 64.685L57.6072 58.835C57.5599 58.7747 57.5342 58.7002 57.5342 58.6235C57.5342 58.5468 57.5599 58.4723 57.6072 58.412L59.4475 56C59.4792 55.9572 59.5205 55.9224 59.5681 55.8984C59.6156 55.8745 59.6681 55.862 59.7213 55.862C59.7745 55.862 59.827 55.8745 59.8745 55.8984C59.9221 55.9224 59.9633 55.9572 59.9951 56L63.146 59.519C63.178 59.5554 63.2173 59.5845 63.2615 59.6045C63.3056 59.6245 63.3534 59.6348 63.4018 59.6348C63.4502 59.6348 63.498 59.6245 63.5422 59.6045C63.5863 59.5845 63.6256 59.5554 63.6576 59.519L72.5448 47.378C72.5686 47.3423 72.5826 47.301 72.5853 47.2581C72.5881 47.2152 72.5794 47.1724 72.5602 47.134C72.5411 47.0956 72.5121 47.0629 72.4763 47.0394C72.4404 47.0159 72.399 47.0023 72.3562 47H41.2603C41.1913 47 41.1251 47.0275 41.0762 47.0764C41.0274 47.1254 41 47.1918 41 47.261V82.739C41 82.8082 41.0274 82.8746 41.0762 82.9236C41.1251 82.9725 41.1913 83 41.2603 83H75.0224C75.0914 83 75.1576 82.9725 75.2065 82.9236C75.2553 82.8746 75.2827 82.8082 75.2827 82.739V52.4C75.291 52.3479 75.2821 52.2946 75.2575 52.248C75.2328 52.2014 75.1937 52.1641 75.1461 52.1418C75.0985 52.1194 75.0449 52.1132 74.9934 52.1241C74.9419 52.1349 74.8954 52.1623 74.8608 52.202ZM50.5604 79.049C48.337 79.1484 46.1627 78.3734 44.501 76.889C44.4498 76.8287 44.4216 76.7522 44.4216 76.673C44.4216 76.5938 44.4498 76.5173 44.501 76.457L45.8206 74.603C45.8478 74.5646 45.8827 74.5325 45.9232 74.5087C45.9637 74.4849 46.0087 74.4699 46.0553 74.4648C46.102 74.4597 46.1492 74.4646 46.1938 74.4791C46.2385 74.4936 46.2795 74.5174 46.3143 74.549C47.5197 75.6703 49.1046 76.2911 50.7489 76.286C52.4814 76.286 53.3253 75.485 53.3253 74.639C53.3253 72.011 44.7972 73.811 44.7972 68.222C44.7972 65.747 46.9337 63.722 50.4167 63.722C52.4298 63.6501 54.4007 64.312 55.9645 65.585C56.0206 65.6464 56.0517 65.7267 56.0517 65.81C56.0517 65.8933 56.0206 65.9736 55.9645 66.035L54.609 67.835C54.5818 67.8706 54.5477 67.9003 54.5088 67.9224C54.4699 67.9445 54.427 67.9585 54.3825 67.9635C54.3381 67.9686 54.2931 67.9646 54.2503 67.9518C54.2074 67.939 54.1676 67.9176 54.1332 67.889C52.9839 66.97 51.5547 66.4743 50.0846 66.485C48.7291 66.485 47.975 67.088 47.975 67.979C47.975 70.337 56.4851 68.762 56.4851 74.279C56.4941 76.997 54.5641 79.049 50.5604 79.049ZM69.1695 73.901C69.1695 73.9774 69.1392 74.0506 69.0853 74.1046C69.0314 74.1587 68.9584 74.189 68.8822 74.189H61.0992C61.0867 74.1889 61.0742 74.1915 61.0627 74.1966C61.0512 74.2017 61.0408 74.2091 61.0324 74.2185C61.0239 74.2278 61.0175 74.2388 61.0135 74.2508C61.0096 74.2628 61.0082 74.2754 61.0095 74.288C61.1367 75.0167 61.5297 75.6718 62.1121 76.126C62.6945 76.5801 63.4246 76.8008 64.1604 76.745C65.1271 76.719 66.0644 76.4057 66.8534 75.845C66.8842 75.8209 66.9197 75.8033 66.9575 75.7934C66.9953 75.7835 67.0348 75.7814 67.0734 75.7873C67.1121 75.7932 67.1491 75.8069 67.1823 75.8277C67.2155 75.8484 67.2441 75.8758 67.2664 75.908L68.2179 77.303C68.2587 77.3649 68.2748 77.4399 68.2632 77.5132C68.2516 77.5865 68.213 77.6528 68.1551 77.699C66.9004 78.6143 65.3794 79.0889 63.8282 79.049C63.0524 79.0923 62.2761 78.9725 61.5492 78.6973C60.8222 78.4221 60.1607 77.9975 59.6071 77.4509C59.0534 76.9043 58.6198 76.2477 58.3342 75.5232C58.0485 74.7988 57.9171 74.0224 57.9484 73.244C57.9264 72.4846 58.0583 71.7286 58.3362 71.0217C58.6141 70.3149 59.0321 69.672 59.565 69.1318C60.0979 68.5916 60.7346 68.1655 61.4365 67.8792C62.1384 67.5928 62.891 67.4523 63.6487 67.466C66.9342 67.466 69.1605 69.932 69.1605 73.541L69.1695 73.901ZM63.6576 69.779C62.9978 69.759 62.3545 69.9886 61.8556 70.422C61.3567 70.8555 61.0386 71.4613 60.9646 72.119C60.9633 72.1316 60.9647 72.1442 60.9687 72.1562C60.9726 72.1682 60.979 72.1792 60.9875 72.1885C60.9959 72.1979 61.0063 72.2053 61.0178 72.2104C61.0293 72.2155 61.0418 72.2181 61.0544 72.218H66.2789C66.2915 72.2181 66.3039 72.2155 66.3155 72.2104C66.327 72.2053 66.3373 72.1979 66.3458 72.1885C66.3542 72.1792 66.3606 72.1682 66.3646 72.1562C66.3685 72.1442 66.3699 72.1316 66.3687 72.119C66.3159 71.4494 66.0014 70.8278 65.4936 70.3895C64.9859 69.9512 64.326 69.7318 63.6576 69.779Z"/>
</mask>
<path d="M74.8608 52.202L63.7654 64.685C63.7335 64.7185 63.6952 64.7452 63.6528 64.7634C63.6103 64.7816 63.5647 64.791 63.5185 64.791C63.4723 64.791 63.4267 64.7816 63.3842 64.7634C63.3418 64.7452 63.3035 64.7185 63.2716 64.685L57.6072 58.835C57.5599 58.7747 57.5342 58.7002 57.5342 58.6235C57.5342 58.5468 57.5599 58.4723 57.6072 58.412L59.4475 56C59.4792 55.9572 59.5205 55.9224 59.5681 55.8984C59.6156 55.8745 59.6681 55.862 59.7213 55.862C59.7745 55.862 59.827 55.8745 59.8745 55.8984C59.9221 55.9224 59.9633 55.9572 59.9951 56L63.146 59.519C63.178 59.5554 63.2173 59.5845 63.2615 59.6045C63.3056 59.6245 63.3534 59.6348 63.4018 59.6348C63.4502 59.6348 63.498 59.6245 63.5422 59.6045C63.5863 59.5845 63.6256 59.5554 63.6576 59.519L72.5448 47.378C72.5686 47.3423 72.5826 47.301 72.5853 47.2581C72.5881 47.2152 72.5794 47.1724 72.5602 47.134C72.5411 47.0956 72.5121 47.0629 72.4763 47.0394C72.4404 47.0159 72.399 47.0023 72.3562 47H41.2603C41.1913 47 41.1251 47.0275 41.0762 47.0764C41.0274 47.1254 41 47.1918 41 47.261V82.739C41 82.8082 41.0274 82.8746 41.0762 82.9236C41.1251 82.9725 41.1913 83 41.2603 83H75.0224C75.0914 83 75.1576 82.9725 75.2065 82.9236C75.2553 82.8746 75.2827 82.8082 75.2827 82.739V52.4C75.291 52.3479 75.2821 52.2946 75.2575 52.248C75.2328 52.2014 75.1937 52.1641 75.1461 52.1418C75.0985 52.1194 75.0449 52.1132 74.9934 52.1241C74.9419 52.1349 74.8954 52.1623 74.8608 52.202ZM50.5604 79.049C48.337 79.1484 46.1627 78.3734 44.501 76.889C44.4498 76.8287 44.4216 76.7522 44.4216 76.673C44.4216 76.5938 44.4498 76.5173 44.501 76.457L45.8206 74.603C45.8478 74.5646 45.8827 74.5325 45.9232 74.5087C45.9637 74.4849 46.0087 74.4699 46.0553 74.4648C46.102 74.4597 46.1492 74.4646 46.1938 74.4791C46.2385 74.4936 46.2795 74.5174 46.3143 74.549C47.5197 75.6703 49.1046 76.2911 50.7489 76.286C52.4814 76.286 53.3253 75.485 53.3253 74.639C53.3253 72.011 44.7972 73.811 44.7972 68.222C44.7972 65.747 46.9337 63.722 50.4167 63.722C52.4298 63.6501 54.4007 64.312 55.9645 65.585C56.0206 65.6464 56.0517 65.7267 56.0517 65.81C56.0517 65.8933 56.0206 65.9736 55.9645 66.035L54.609 67.835C54.5818 67.8706 54.5477 67.9003 54.5088 67.9224C54.4699 67.9445 54.427 67.9585 54.3825 67.9635C54.3381 67.9686 54.2931 67.9646 54.2503 67.9518C54.2074 67.939 54.1676 67.9176 54.1332 67.889C52.9839 66.97 51.5547 66.4743 50.0846 66.485C48.7291 66.485 47.975 67.088 47.975 67.979C47.975 70.337 56.4851 68.762 56.4851 74.279C56.4941 76.997 54.5641 79.049 50.5604 79.049ZM69.1695 73.901C69.1695 73.9774 69.1392 74.0506 69.0853 74.1046C69.0314 74.1587 68.9584 74.189 68.8822 74.189H61.0992C61.0867 74.1889 61.0742 74.1915 61.0627 74.1966C61.0512 74.2017 61.0408 74.2091 61.0324 74.2185C61.0239 74.2278 61.0175 74.2388 61.0135 74.2508C61.0096 74.2628 61.0082 74.2754 61.0095 74.288C61.1367 75.0167 61.5297 75.6718 62.1121 76.126C62.6945 76.5801 63.4246 76.8008 64.1604 76.745C65.1271 76.719 66.0644 76.4057 66.8534 75.845C66.8842 75.8209 66.9197 75.8033 66.9575 75.7934C66.9953 75.7835 67.0348 75.7814 67.0734 75.7873C67.1121 75.7932 67.1491 75.8069 67.1823 75.8277C67.2155 75.8484 67.2441 75.8758 67.2664 75.908L68.2179 77.303C68.2587 77.3649 68.2748 77.4399 68.2632 77.5132C68.2516 77.5865 68.213 77.6528 68.1551 77.699C66.9004 78.6143 65.3794 79.0889 63.8282 79.049C63.0524 79.0923 62.2761 78.9725 61.5492 78.6973C60.8222 78.4221 60.1607 77.9975 59.6071 77.4509C59.0534 76.9043 58.6198 76.2477 58.3342 75.5232C58.0485 74.7988 57.9171 74.0224 57.9484 73.244C57.9264 72.4846 58.0583 71.7286 58.3362 71.0217C58.6141 70.3149 59.0321 69.672 59.565 69.1318C60.0979 68.5916 60.7346 68.1655 61.4365 67.8792C62.1384 67.5928 62.891 67.4523 63.6487 67.466C66.9342 67.466 69.1605 69.932 69.1605 73.541L69.1695 73.901ZM63.6576 69.779C62.9978 69.759 62.3545 69.9886 61.8556 70.422C61.3567 70.8555 61.0386 71.4613 60.9646 72.119C60.9633 72.1316 60.9647 72.1442 60.9687 72.1562C60.9726 72.1682 60.979 72.1792 60.9875 72.1885C60.9959 72.1979 61.0063 72.2053 61.0178 72.2104C61.0293 72.2155 61.0418 72.2181 61.0544 72.218H66.2789C66.2915 72.2181 66.3039 72.2155 66.3155 72.2104C66.327 72.2053 66.3373 72.1979 66.3458 72.1885C66.3542 72.1792 66.3606 72.1682 66.3646 72.1562C66.3685 72.1442 66.3699 72.1316 66.3687 72.119C66.3159 71.4494 66.0014 70.8278 65.4936 70.3895C64.9859 69.9512 64.326 69.7318 63.6576 69.779Z" stroke="#01D2A6" stroke-width="6" mask="url(#path-7-outside-1_1_7458)"/>
<defs>
<linearGradient id="paint0_linear_1_7458" x1="253.47" y1="83.62" x2="155.21" y2="197.81" gradientUnits="userSpaceOnUse">
<stop stop-color="#00DE8E"/>
<stop offset="1" stop-color="#00A7FF"/>
</linearGradient>
</defs>
</svg>
