<svg width="48" height="48" viewBox="0 0 48 48" fill="none" xmlns="http://www.w3.org/2000/svg">
<path d="M23.888 16.7095L18.3413 18.7895C18.2803 18.8121 18.2277 18.8528 18.1905 18.9062C18.1533 18.9596 18.1333 19.0231 18.1333 19.0881V24.0001C18.1333 27.9775 22.9266 30.7561 23.848 31.2535C23.8946 31.279 23.9468 31.2924 24 31.2924C24.0531 31.2924 24.1054 31.279 24.152 31.2535C25.0733 30.7561 29.8666 27.9775 29.8666 24.0001V19.0881C29.8666 19.0231 29.8466 18.9596 29.8095 18.9062C29.7723 18.8528 29.7196 18.8121 29.6586 18.7895L24.112 16.7095C24.0399 16.6815 23.96 16.6815 23.888 16.7095ZM27.1026 22.8295L23.8666 26.0655C23.7916 26.1403 23.6987 26.1947 23.5967 26.2234C23.4947 26.2521 23.387 26.2542 23.284 26.2295C23.1685 26.1998 23.0636 26.1384 22.9813 26.0521L21.5386 24.6095C21.4258 24.4955 21.3585 24.3444 21.3491 24.1844C21.3398 24.0243 21.3892 23.8664 21.488 23.7401C21.5614 23.657 21.6558 23.5951 21.7614 23.5611C21.867 23.5271 21.9798 23.5221 22.088 23.5468C22.2076 23.578 22.3159 23.6428 22.4 23.7335L23.4253 24.7601H23.4333L26.2533 21.9401C26.3138 21.8795 26.3864 21.8322 26.4662 21.8012C26.5461 21.7702 26.6315 21.7562 26.7171 21.7601C26.8027 21.764 26.8865 21.7857 26.9632 21.8238C27.0399 21.8619 27.1078 21.9156 27.1626 21.9815C27.2582 22.1057 27.3048 22.2606 27.2938 22.4169C27.2827 22.5732 27.2147 22.72 27.1026 22.8295Z" fill="url(#paint0_linear_26_4865)"/>
<path fill-rule="evenodd" clip-rule="evenodd" d="M35.5919 10.0935H14.7333V9.37354H35.5919C37.3489 9.37354 38.6813 11.0224 38.6813 12.9335V32.3562H37.9613V12.9335C37.9613 11.3086 36.8483 10.0935 35.5919 10.0935Z" fill="white"/>
<path fill-rule="evenodd" clip-rule="evenodd" d="M10.0387 15.644V35.1907C10.0387 36.8144 11.1518 38.0307 12.4081 38.0307H33.1321V38.7507H12.4081C10.651 38.7507 9.31873 37.1004 9.31873 35.1907V15.644H10.0387Z" fill="white"/>
<path fill-rule="evenodd" clip-rule="evenodd" d="M8.18797 5.38797C6.64157 5.38797 5.38797 6.64157 5.38797 8.18797C5.38797 9.73437 6.64157 10.988 8.18797 10.988C9.73437 10.988 10.988 9.73437 10.988 8.18797C10.988 6.64157 9.73437 5.38797 8.18797 5.38797ZM4.66797 8.18797C4.66797 6.24393 6.24393 4.66797 8.18797 4.66797C10.132 4.66797 11.708 6.24393 11.708 8.18797C11.708 10.132 10.132 11.708 8.18797 11.708C6.24393 11.708 4.66797 10.132 4.66797 8.18797Z" fill="white"/>
<path d="M8.18803 9.44124C8.88022 9.44124 9.44136 8.8801 9.44136 8.1879C9.44136 7.49571 8.88022 6.93457 8.18803 6.93457C7.49583 6.93457 6.93469 7.49571 6.93469 8.1879C6.93469 8.8801 7.49583 9.44124 8.18803 9.44124Z" fill="#00B4E4"/>
<path fill-rule="evenodd" clip-rule="evenodd" d="M8.18804 7.29471C7.69467 7.29471 7.29471 7.69467 7.29471 8.18804C7.29471 8.68141 7.69467 9.08137 8.18804 9.08137C8.68141 9.08137 9.08137 8.68141 9.08137 8.18804C9.08137 7.69467 8.68141 7.29471 8.18804 7.29471ZM6.57471 8.18804C6.57471 7.29702 7.29702 6.57471 8.18804 6.57471C9.07906 6.57471 9.80137 7.29702 9.80137 8.18804C9.80137 9.07906 9.07906 9.80137 8.18804 9.80137C7.29702 9.80137 6.57471 9.07906 6.57471 8.18804Z" fill="white"/>
<path fill-rule="evenodd" clip-rule="evenodd" d="M39.6546 36.7947C38.1082 36.7947 36.8546 38.0483 36.8546 39.5947C36.8546 41.1411 38.1082 42.3947 39.6546 42.3947C41.201 42.3947 42.4546 41.1411 42.4546 39.5947C42.4546 38.0483 41.201 36.7947 39.6546 36.7947ZM36.1346 39.5947C36.1346 37.6507 37.7106 36.0747 39.6546 36.0747C41.5987 36.0747 43.1746 37.6507 43.1746 39.5947C43.1746 41.5387 41.5987 43.1147 39.6546 43.1147C37.7106 43.1147 36.1346 41.5387 36.1346 39.5947Z" fill="white"/>
<path d="M39.6547 40.848C40.3469 40.848 40.908 40.2868 40.908 39.5946C40.908 38.9024 40.3469 38.3413 39.6547 38.3413C38.9625 38.3413 38.4014 38.9024 38.4014 39.5946C38.4014 40.2868 38.9625 40.848 39.6547 40.848Z" fill="#00B4E4"/>
<path fill-rule="evenodd" clip-rule="evenodd" d="M39.6547 38.7014C39.1613 38.7014 38.7614 39.1014 38.7614 39.5948C38.7614 40.0882 39.1613 40.4881 39.6547 40.4881C40.1481 40.4881 40.548 40.0882 40.548 39.5948C40.548 39.1014 40.1481 38.7014 39.6547 38.7014ZM38.0414 39.5948C38.0414 38.7038 38.7637 37.9814 39.6547 37.9814C40.5457 37.9814 41.268 38.7038 41.268 39.5948C41.268 40.4858 40.5457 41.2081 39.6547 41.2081C38.7637 41.2081 38.0414 40.4858 38.0414 39.5948Z" fill="white"/>
<defs>
<linearGradient id="paint0_linear_26_4865" x1="33.796" y1="11.1495" x2="20.6946" y2="26.3748" gradientUnits="userSpaceOnUse">
<stop stop-color="#00DE8E"/>
<stop offset="1" stop-color="#00A7FF"/>
</linearGradient>
</defs>
</svg>
