<svg width="286" height="308" viewBox="0 0 286 308" fill="none" xmlns="http://www.w3.org/2000/svg">
<g clip-path="url(#clip0_1_7481)">
<path d="M63.99 25.5599L63.99 70.1499C63.99 83.4047 74.7352 94.1499 87.99 94.1499L198.01 94.1499C211.265 94.1499 222.01 83.4047 222.01 70.1499V25.5599C222.01 12.3051 211.265 1.55991 198.01 1.55991L87.99 1.55991C74.7352 1.55991 63.99 12.3051 63.99 25.5599Z" stroke="white" stroke-width="3" stroke-miterlimit="10"/>
<path d="M143 229.94V94.1499" stroke="white" stroke-width="3" stroke-miterlimit="10"/>
<path d="M143 230C122.013 230 105 247.013 105 268C105 288.987 122.013 306 143 306C163.987 306 181 288.987 181 268C181 247.013 163.987 230 143 230Z" stroke="white" stroke-width="3" stroke-miterlimit="10"/>
<path d="M246 202C225.013 202 208 219.013 208 240C208 260.987 225.013 278 246 278C266.987 278 284 260.987 284 240C284 219.013 266.987 202 246 202Z" stroke="white" stroke-width="3" stroke-miterlimit="10"/>
<path d="M40 202C19.0132 202 2.00001 219.013 2 240C2 260.987 19.0132 278 40 278C60.9868 278 78 260.987 78 240C78 219.013 60.9869 202 40 202Z" stroke="white" stroke-width="3" stroke-miterlimit="10"/>
<path d="M177.69 40.91H173.45C169.37 25.11 153.14 14.66 137.33 18.74C125.21 21.87 116.94 29.26 115.52 41H108.23C98.63 41 90.31 48.2 89.49 57.77C89.2638 60.3231 89.5715 62.8953 90.3934 65.3231C91.2154 67.7508 92.5336 69.9809 94.2643 71.8714C95.9949 73.762 98.1001 75.2717 100.446 76.3044C102.792 77.3371 105.327 77.8703 107.89 77.87H178.11C180.679 77.8698 183.219 77.3338 185.569 76.2962C187.919 75.2586 190.026 73.7423 191.757 71.8441C193.488 69.946 194.803 67.7077 195.62 65.2722C196.437 62.8368 196.736 60.2578 196.5 57.7C195.66 48.11 187.32 40.91 177.69 40.91Z" fill="url(#paint0_linear_1_7481)"/>
<path d="M40.29 202.3V153.72C40.29 147.2 43.85 141.91 48.29 141.88L237.7 140.66C242.14 140.66 245.7 145.95 245.7 152.51V202.3" stroke="white" stroke-width="3" stroke-miterlimit="10"/>
<path d="M57.418 228.214C56.6945 228.214 56.0031 228.296 55.3457 228.493C54.6879 228.69 54.1281 228.971 53.6352 229.348C53.1486 229.708 52.7448 230.168 52.4512 230.697C52.1555 231.223 52.007 231.832 52.007 232.523C52.007 233.378 52.2867 234.184 52.8297 234.908C53.3711 235.648 54.2594 236.207 55.4602 236.585L57.8453 237.325C58.6508 237.589 59.2109 237.869 59.507 238.181C59.8027 238.494 59.9508 238.871 59.9508 239.332C59.9508 240.006 59.6547 240.532 59.0949 240.894C58.5363 241.255 57.7309 241.437 56.6945 241.437C56.0355 241.437 55.3945 241.372 54.7371 241.241C54.1152 241.113 53.5086 240.919 52.9273 240.664C52.7629 240.598 52.6145 240.533 52.5168 240.501C52.4215 240.468 52.3215 240.451 52.2207 240.45C51.973 240.45 51.8422 240.615 51.8422 240.96V241.799C51.8428 241.958 51.8766 242.115 51.9414 242.26C52.007 242.409 52.1871 242.573 52.4512 242.721C52.8785 242.966 53.5191 243.182 54.3418 243.378C55.1641 243.575 56.0203 243.675 56.8746 243.675C57.7145 243.675 58.4875 243.559 59.2277 243.33C59.934 243.114 60.543 242.818 61.0527 242.408C61.5621 242.013 61.9574 241.52 62.2535 240.96C62.5324 240.402 62.6809 239.761 62.6809 239.053C62.6809 238.198 62.4336 237.425 61.9238 236.75C61.4145 236.075 60.5602 235.549 59.3758 235.171L57.0398 234.43C56.1687 234.152 55.5594 233.838 55.2297 233.526C54.9016 233.214 54.7371 232.82 54.7371 232.359C54.7371 231.684 54.9992 231.206 55.5105 230.895C56.0203 230.582 56.7602 230.434 57.6973 230.434C58.8645 230.434 59.9172 230.648 60.8559 231.075C61.1348 231.207 61.3484 231.273 61.4797 231.273C61.727 231.273 61.8582 231.093 61.8582 230.747V229.974C61.8582 229.743 61.8094 229.563 61.7102 229.43C61.6125 229.283 61.4477 229.151 61.2172 229.02C61.0523 228.921 60.8223 228.823 60.5258 228.724C60.217 228.624 59.9046 228.536 59.5891 228.46C59.243 228.394 58.898 228.328 58.5195 228.28C58.1542 228.234 57.7862 228.212 57.418 228.214ZM23.5031 228.246C22.5984 228.246 21.7422 228.345 20.9367 228.559C20.1309 228.756 19.4402 229.003 18.8652 229.299C18.6348 229.415 18.4863 229.53 18.4043 229.644C18.3219 229.76 18.2898 229.957 18.2898 230.221V231.027C18.2898 231.371 18.4043 231.536 18.6348 231.536C18.7004 231.536 18.7824 231.519 18.898 231.487C19.0125 231.453 19.209 231.388 19.473 231.273C20.051 231.045 20.6446 230.858 21.2492 230.714C21.8309 230.572 22.4274 230.5 23.0262 230.5C24.2926 230.5 25.1797 230.747 25.707 231.257C26.2164 231.766 26.4805 232.637 26.4805 233.887V235.088C25.823 234.94 25.198 234.809 24.5887 234.727C23.9801 234.645 23.4047 234.595 22.8461 234.595C21.1508 234.595 19.8187 235.023 18.8164 235.879C17.8121 236.733 17.3195 237.868 17.3195 239.266C17.3195 240.582 17.7297 241.634 18.5355 242.425C19.3426 243.214 20.4445 243.609 21.8254 243.609C23.7668 243.609 25.3789 242.852 26.6609 241.338C26.8174 241.669 26.9873 241.992 27.1703 242.309C27.343 242.584 27.5413 242.843 27.7625 243.082C27.9273 243.23 28.0922 243.312 28.257 243.312C28.3875 243.312 28.5359 243.262 28.684 243.165L29.7203 242.473C29.9336 242.309 30.0328 242.144 30.0328 241.981C30.0305 241.846 29.9908 241.715 29.9184 241.602C29.7141 241.221 29.5382 240.825 29.3922 240.418C29.2762 240.057 29.2105 239.563 29.2105 238.953H29.177V233.625C29.177 231.815 28.7176 230.466 27.8129 229.578C26.891 228.69 25.4594 228.246 23.5031 228.246ZM31.1516 228.641C30.8875 228.641 30.7562 228.789 30.7562 229.052C30.7562 229.168 30.8066 229.382 30.9043 229.711L34.7691 242.425C34.8684 242.737 34.9828 242.966 35.1156 243.066C35.2469 243.182 35.4438 243.23 35.7398 243.23H37.1539C37.4504 243.23 37.6801 243.182 37.8117 243.066C37.9445 242.951 38.0426 242.737 38.1246 242.408L40.6578 231.815L43.2074 242.425C43.273 242.753 43.3871 242.966 43.5199 243.082C43.6516 243.196 43.8648 243.247 44.1777 243.247H45.5922C45.8715 243.247 46.0852 243.182 46.2164 243.082C46.3492 242.984 46.4637 242.77 46.5629 242.442L50.527 229.727C50.5926 229.547 50.6246 229.415 50.6414 229.316C50.6582 229.217 50.675 229.134 50.675 229.052C50.675 228.773 50.527 228.642 50.2629 228.642H48.7344C48.4387 228.642 48.2234 228.707 48.0922 228.806C47.9777 228.904 47.8617 229.119 47.7641 229.447L44.918 240.468L42.3191 229.448C42.2543 229.135 42.1379 228.905 42.0066 228.807C41.8754 228.691 41.6613 228.642 41.3488 228.642H40.0336C39.7375 228.642 39.507 228.707 39.3742 228.807C39.2434 228.904 39.1445 229.119 39.0633 229.447L36.4969 240.336L33.7332 229.448C33.6355 229.135 33.5363 228.905 33.4051 228.807C33.2891 228.691 33.0754 228.642 32.7629 228.642L31.1516 228.641ZM23.4531 236.553C23.9703 236.553 24.4869 236.586 25 236.651C25.5091 236.715 26.0141 236.809 26.5125 236.932V237.621C26.5125 238.182 26.4469 238.657 26.3477 239.053C26.25 239.447 26.0516 239.793 25.7891 240.105C25.3449 240.598 24.8187 240.96 24.2266 241.158C23.6344 241.355 23.0746 241.454 22.5328 241.454C21.7762 241.454 21.2008 241.256 20.8055 240.845C20.3937 240.451 20.1969 239.875 20.1969 239.102C20.1969 238.279 20.4605 237.655 21.0023 237.211C21.5457 236.767 22.3516 236.553 23.4531 236.553ZM61.0937 246.652C59.3625 246.676 57.3187 247.062 55.773 248.148C55.2953 248.493 55.3777 248.954 55.9043 248.888C57.6652 248.675 61.5449 248.214 62.2363 249.102C62.9277 249.973 61.4645 253.641 60.8055 255.27C60.6086 255.762 61.0359 255.961 61.4797 255.582C64.3742 253.148 65.1312 248.066 64.5391 247.326C64.2434 246.964 62.825 246.627 61.0937 246.652ZM15.6367 247.632C15.275 247.678 15.1105 248.115 15.493 248.461C21.9414 254.282 30.477 257.786 39.9512 257.786C46.7109 257.786 54.5723 255.665 59.9828 251.669C60.8707 251.009 60.0992 250.007 59.1937 250.417C53.1262 252.984 46.5293 254.234 40.5266 254.234C31.6289 254.234 23.0266 251.783 16.0527 247.736C15.9004 247.646 15.7578 247.618 15.6371 247.632H15.6367Z" fill="#01D2A6"/>
<path d="M246.047 252.784H237.876V244.765H246.047L246.047 252.784ZM237.876 259.074H231.685V252.783H237.876V259.074ZM231.685 252.783H226.486V247.602H231.685L231.685 252.783ZM245.924 260.925V252.783C254.59 252.783 261.275 244.271 257.932 235.265C256.694 231.935 254.095 229.221 250.628 227.987C241.714 224.78 233.172 231.441 233.172 239.953H225C225 226.384 238.246 215.651 252.733 220.092C259.047 222.066 263.999 227 265.98 233.292C270.436 247.725 259.665 260.925 245.924 260.925L245.924 260.925Z" fill="#01D2A6"/>
<path d="M153.565 254.514C146.93 248.657 136.805 249.289 130.948 255.924C129.321 257.767 128.141 260.049 127.497 262.421" stroke="#01D2A6" stroke-width="3" stroke-linecap="round" stroke-linejoin="round"/>
<path d="M136.417 260.611C139.589 257.128 144.9 256.554 148.562 259.517M148.562 259.517L153.566 254.514C155.905 256.589 157.587 259.302 158.406 262.319C159.987 263.388 161.28 264.832 162.169 266.522C163.058 268.212 163.515 270.095 163.5 272.004C163.45 278.401 158.224 283.547 151.827 283.497H142.92M148.562 259.517C149.605 260.369 150.441 261.447 151.006 262.669C151.572 263.891 151.852 265.226 151.827 266.572V267.46C153.008 267.46 154.141 267.929 154.976 268.764C155.811 269.6 156.281 270.732 156.281 271.913C156.281 273.095 155.811 274.227 154.976 275.063C154.141 275.898 153.008 276.367 151.827 276.367H142.92M142.92 276.367V283.496H134.014C131.492 283.507 129.035 282.69 127.022 281.17M142.92 276.367L134.014 276.366C133.379 276.366 132.752 276.229 132.175 275.966" stroke="#01D2A6" stroke-width="3" stroke-linecap="round" stroke-linejoin="round"/>
<path d="M134.014 260.368C127.617 260.406 122.462 265.623 122.5 272.02C122.521 275.592 124.19 278.992 127.022 281.17L132.175 275.966C129.934 274.954 128.95 272.316 129.963 270.074C130.316 269.293 130.886 268.631 131.606 268.166C132.326 267.702 133.164 267.455 134.021 267.455C134.878 267.455 135.716 267.702 136.436 268.166C137.156 268.631 137.726 269.293 138.079 270.074L143.246 264.908C142.162 263.49 140.764 262.343 139.162 261.555C137.561 260.768 135.799 260.361 134.014 260.368Z" stroke="#01D2A6" stroke-width="3" stroke-linecap="round" stroke-linejoin="round"/>
</g>
<defs>
<linearGradient id="paint0_linear_1_7481" x1="205.39" y1="-17.93" x2="123.4" y2="83.74" gradientUnits="userSpaceOnUse">
<stop stop-color="#00DE8E"/>
<stop offset="1" stop-color="#00A7FF"/>
</linearGradient>
<clipPath id="clip0_1_7481">
<rect width="286" height="308" fill="white"/>
</clipPath>
</defs>
</svg>
