<svg width="383" height="422" viewBox="0 0 383 422" fill="none" xmlns="http://www.w3.org/2000/svg">
<g clip-path="url(#clip0_1_7510)">
<path d="M253.22 102.5H128.78C115.525 102.5 104.78 113.245 104.78 126.5V291.51C104.78 304.765 115.525 315.51 128.78 315.51H253.22C266.475 315.51 277.22 304.765 277.22 291.51V126.5C277.22 113.245 266.475 102.5 253.22 102.5Z" stroke="white" stroke-width="3" stroke-miterlimit="10"/>
<path d="M191 182.86C214.914 182.86 234.3 176.399 234.3 168.43C234.3 160.461 214.914 154 191 154C167.086 154 147.7 160.461 147.7 168.43C147.7 176.399 167.086 182.86 191 182.86Z" fill="url(#paint0_linear_1_7510)"/>
<path d="M234.3 215.89V249.56C234.3 257.56 215.05 264 191 264C166.95 264 147.7 257.55 147.7 249.56V215.89C147.7 223.89 166.95 230.32 191 230.32C215.05 230.32 234.3 223.87 234.3 215.89Z" fill="url(#paint1_linear_1_7510)"/>
<path d="M234.3 175V208.67C234.3 216.67 215.05 223.11 191 223.11C166.95 223.11 147.7 216.66 147.7 208.67V175C147.7 183 166.95 189.43 191 189.43C215.05 189.43 234.3 183 234.3 175Z" fill="url(#paint2_linear_1_7510)"/>
<path d="M343 326C322.013 326 305 343.013 305 364C305 384.987 322.013 402 343 402C363.987 402 381 384.987 381 364C381 343.013 363.987 326 343 326Z" stroke="white" stroke-width="3" stroke-miterlimit="10"/>
<path d="M78.47 54.48H183C185.122 54.48 187.157 55.3228 188.657 56.8231C190.157 58.3234 191 60.3582 191 62.48V102.48" stroke="white" stroke-width="3" stroke-miterlimit="10"/>
<path d="M326 2C305.013 1.99999 288 19.0132 288 40C288 60.9868 305.013 78 326 78C346.987 78 364 60.9868 364 40C364 19.0132 346.987 2 326 2Z" stroke="white" stroke-width="3" stroke-miterlimit="10"/>
<path d="M326 77.6801V182.2C326 184.322 325.157 186.357 323.657 187.857C322.157 189.357 320.122 190.2 318 190.2H278" stroke="white" stroke-width="3" stroke-miterlimit="10"/>
<path d="M304.72 363.52H200.2C198.078 363.52 196.043 362.677 194.543 361.177C193.043 359.677 192.2 357.642 192.2 355.52V315.52" stroke="white" stroke-width="3" stroke-miterlimit="10"/>
<path d="M58 344C37.0132 344 20 361.013 20 382C20 402.987 37.0132 420 58 420C78.9868 420 96 402.987 96 382C96 361.013 78.9869 344 58 344Z" stroke="white" stroke-width="3" stroke-miterlimit="10"/>
<path d="M58.2 344.32V239.79C58.2 237.668 59.0428 235.633 60.5431 234.133C62.0434 232.633 64.0783 231.79 66.2 231.79H106.2" stroke="white" stroke-width="3" stroke-miterlimit="10"/>
<g clip-path="url(#clip1_1_7510)">
<path d="M47.3533 41.3533H32.6533C29.2992 41.3515 26.0818 42.6822 23.7088 45.0527C21.3359 47.4231 20.0018 50.6392 20 53.9933C19.9982 57.3474 21.329 60.5648 23.6994 62.9378C26.0699 65.3107 29.2859 66.6448 32.64 66.6466H47.3533C50.7074 66.6466 53.9242 65.3142 56.2959 62.9425C58.6676 60.5708 60 57.354 60 53.9999C60 50.6458 58.6676 47.4291 56.2959 45.0574C53.9242 42.6857 50.7074 41.3533 47.3533 41.3533ZM47.0317 62.1899H32.9767C30.8332 62.1467 28.792 61.2648 27.2914 59.7336C25.7908 58.2024 24.9502 56.1439 24.9502 53.9999C24.9502 51.856 25.7908 49.7975 27.2914 48.2663C28.792 46.7351 30.8332 45.8532 32.9767 45.8099H47.0317C49.2038 45.8099 51.2869 46.6728 52.8229 48.2087C54.3588 49.7447 55.2217 51.8278 55.2217 53.9999C55.2217 56.1721 54.3588 58.2552 52.8229 59.7911C51.2869 61.3271 49.2038 62.1899 47.0317 62.1899Z" fill="#01D2A6"/>
</g>
<g clip-path="url(#clip2_1_7510)">
<path d="M350.242 61.8975L349.289 60.99C348.835 60.3885 348.328 59.8293 347.773 59.3194L347.763 59.3119C347.203 58.8031 346.621 58.3194 346.017 57.8606C345.534 57.5281 344.869 57.1275 344.022 56.6587C343.336 56.3539 342.789 55.8026 342.489 55.1137L342.481 55.095L342.391 55.05C342.789 55.0106 343.153 54.9375 343.501 54.8344L343.458 54.8456L344.527 54.5512C344.969 54.4125 345.481 54.3225 346.012 54.3018H346.023C346.582 54.2794 347.109 54.1894 347.611 54.0412L347.564 54.0525C347.807 53.9925 348.056 53.9243 348.312 53.8481C348.569 53.7719 348.788 53.7037 348.971 53.6437V53.3269C348.789 53.0556 348.57 52.7456 348.312 52.3969C348.074 52.0705 347.795 51.7757 347.482 51.5194L347.472 51.5118C346.686 50.8168 345.872 50.1444 345.029 49.4944C344.24 48.8807 343.419 48.3074 342.571 47.7768L342.444 47.7019C341.955 47.3822 341.437 47.1091 340.897 46.8862L340.833 46.8637C340.273 46.6362 339.721 46.3869 339.178 46.1156C338.982 46.0197 338.776 45.9449 338.564 45.8925L338.544 45.8887C338.332 45.8466 338.141 45.7351 338 45.5719L337.998 45.57C337.732 45.2168 337.509 44.8336 337.333 44.4281L337.318 44.3906C337.136 43.9669 336.94 43.56 336.729 43.17C336.275 42.2925 335.836 41.4006 335.412 40.4944C334.989 39.5881 334.582 38.6806 334.192 37.7719C333.921 37.1669 333.671 36.5625 333.444 35.9587C333.214 35.3433 332.924 34.7518 332.579 34.1925L332.604 34.2356C331.857 32.9546 331.023 31.7261 330.108 30.5587L330.161 30.63C329.324 29.57 328.409 28.5735 327.425 27.6487L327.41 27.6356C326.442 26.7274 325.42 25.8784 324.35 25.0931L324.258 25.0275C323.138 24.2137 321.913 23.4125 320.583 22.6237C320.018 22.294 319.409 22.0459 318.774 21.8869L318.725 21.8756L316.638 21.3544L315.459 21.2644C315.066 21.2344 314.673 21.2194 314.279 21.2194C314.014 21.0804 313.77 20.9042 313.554 20.6962C313.345 20.4979 313.124 20.3131 312.892 20.1431L312.873 20.13C311.655 19.4272 310.372 18.8432 309.042 18.3862L308.883 18.3375C308.552 18.1483 308.183 18.0359 307.803 18.0086C307.423 17.9813 307.042 18.0399 306.687 18.18L306.704 18.1744C306.355 18.3112 306.041 18.5233 305.783 18.7955C305.526 19.0677 305.331 19.3934 305.214 19.7494L305.208 19.7681C305.009 20.2459 304.945 20.769 305.021 21.2809C305.098 21.7927 305.313 22.2739 305.643 22.6725L305.639 22.6669C306.319 23.5731 306.841 24.2856 307.203 24.8044C307.474 25.1681 307.754 25.5462 308.043 25.9387C308.307 26.2912 308.542 26.6944 308.731 27.12L308.746 27.1594C308.851 27.3825 308.943 27.6487 309.011 27.9225L309.016 27.9525C309.076 28.21 309.152 28.49 309.243 28.7925C309.514 29.4875 309.771 30.2 310.014 30.93C310.278 31.7269 310.571 32.4019 310.91 33.045L310.874 32.97C311.056 33.3025 311.237 33.6275 311.42 33.945C311.602 34.2625 311.799 34.5725 312.009 34.875C312.128 35.0547 312.281 35.2089 312.461 35.3287L312.466 35.3325C312.56 35.3998 312.637 35.4877 312.692 35.5894C312.747 35.691 312.778 35.8039 312.783 35.9194C312.562 36.248 312.422 36.6265 312.376 37.02L312.374 37.0312C312.316 37.4729 312.22 37.9088 312.087 38.3344L312.102 38.2781C311.661 39.6285 311.439 41.0407 311.444 42.4612C311.444 42.945 311.469 43.4212 311.519 43.8919L311.514 43.8337C311.626 45.63 312.168 47.28 313.036 48.7087L313.01 48.6619C313.379 49.215 313.775 49.6968 314.212 50.1375C314.466 50.423 314.808 50.6155 315.183 50.6844C315.559 50.7534 315.947 50.6948 316.286 50.5181L316.276 50.5219C316.601 50.4073 316.885 50.1987 317.091 49.9226C317.297 49.6465 317.416 49.3153 317.433 48.9712V48.9675C317.523 48.0787 317.658 47.2837 317.844 46.5075L317.819 46.6331C317.867 46.5066 317.891 46.3726 317.891 46.2375L317.887 46.1531V46.1569C317.872 46.0206 317.955 45.8919 318.136 45.7706V45.8606C318.317 46.2844 318.506 46.7075 318.702 47.13C318.899 47.5525 319.102 47.9756 319.314 48.3993C319.867 49.2412 320.454 49.9762 321.099 50.6531L321.093 50.6475C321.735 51.3404 322.442 51.969 323.206 52.5244L323.247 52.5525C323.645 52.8562 323.994 53.1844 324.309 53.5425L324.316 53.55C324.612 53.8987 324.967 54.1856 325.366 54.4012L325.385 54.4106V54.3656H325.475C325.404 54.2064 325.286 54.0724 325.137 53.9812L325.134 53.9794C324.996 53.9035 324.864 53.8183 324.738 53.7243L324.747 53.73C324.476 53.4587 324.196 53.1562 323.907 52.8225C323.619 52.4887 323.354 52.1712 323.114 51.87C322.479 50.9925 321.874 50.0756 321.297 49.1194C320.721 48.1631 320.177 47.1912 319.664 46.2037C319.422 45.72 319.187 45.2212 318.961 44.7075C318.735 44.1937 318.516 43.695 318.303 43.2112C318.207 43.0146 318.146 42.8027 318.123 42.585V42.5756C318.118 42.4726 318.086 42.3727 318.031 42.2856C317.976 42.1985 317.899 42.1272 317.808 42.0787L317.804 42.0769C317.59 42.4459 317.333 42.7888 317.039 43.0987L317.041 43.0969C316.74 43.4142 316.498 43.7824 316.325 44.1844L316.316 44.2087C316.035 44.9012 315.853 45.6295 315.774 46.3725L315.77 46.4081C315.68 47.2094 315.589 48.0331 315.498 48.8794L315.408 48.9244L315.363 48.9694C315.128 48.9223 314.907 48.8232 314.716 48.6795C314.524 48.5358 314.368 48.351 314.257 48.1387L314.253 48.1294C314.026 47.6906 313.822 47.2593 313.642 46.8356C313.151 45.5505 312.882 44.191 312.849 42.8156V42.7987C312.751 41.3291 312.933 39.8543 313.385 38.4525L313.362 38.535C313.452 38.2025 313.649 37.6425 313.951 36.855C314.254 36.0675 314.314 35.5231 314.133 35.2219C314.044 34.9237 313.871 34.6571 313.636 34.4531L313.634 34.4512C313.41 34.2571 313.2 34.0472 313.006 33.8231L313.001 33.8156C312.789 33.5106 312.586 33.1856 312.389 32.8406C312.193 32.4956 312.019 32.1556 311.868 31.8206C311.519 30.9944 311.222 30.1471 310.979 29.2837L310.938 29.1169C310.671 28.1521 310.329 27.2098 309.914 26.2987L309.963 26.4187C309.769 25.9735 309.524 25.5525 309.232 25.1644L309.243 25.1794C308.938 24.7719 308.666 24.3862 308.426 24.0225C308.121 23.63 307.818 23.2519 307.518 22.8881C307.206 22.5095 306.937 22.0961 306.719 21.6562L306.702 21.6187C306.607 21.4229 306.532 21.2173 306.479 21.0056L306.476 20.985C306.443 20.8785 306.435 20.7662 306.451 20.656C306.467 20.5459 306.507 20.4406 306.567 20.3475L306.566 20.3512C306.586 20.2498 306.633 20.1558 306.702 20.0794C306.778 20.0115 306.871 19.9649 306.971 19.9444H306.974C307.122 19.8484 307.292 19.792 307.468 19.7805C307.644 19.769 307.82 19.8028 307.979 19.8787L307.974 19.8769C308.384 19.9931 308.716 20.1094 309.041 20.2425L308.973 20.2181C309.547 20.4606 310.076 20.695 310.561 20.9212C311.12 21.1875 311.596 21.4687 312.046 21.7819L312.012 21.7594C312.255 21.9106 312.497 22.0769 312.738 22.2581C312.979 22.4394 313.236 22.6212 313.509 22.8037H314.144C314.628 22.8037 315.142 22.8269 315.686 22.8731C316.235 22.9162 316.743 23.0194 317.227 23.1806L317.182 23.1675C318.084 23.4356 318.858 23.7525 319.593 24.1331L319.516 24.0975C320.257 24.475 320.961 24.8756 321.626 25.2994C322.73 25.9875 323.684 26.6925 324.583 27.4631L324.551 27.4369C325.488 28.2394 326.339 29.0625 327.138 29.9325L327.157 29.955C327.937 30.8062 328.681 31.7306 329.362 32.7L329.42 32.7881C330.046 33.6731 330.678 34.6968 331.246 35.7581L331.325 35.9175C331.492 36.2428 331.639 36.5785 331.764 36.9225L331.784 36.9844C331.906 37.3319 332.041 37.6881 332.191 38.0531C332.524 38.8094 332.88 39.5725 333.26 40.3425C333.64 41.1125 333.996 41.8612 334.329 42.5887L335.326 44.7656C335.677 45.5268 336.069 46.1831 336.524 46.7887L336.504 46.7606C336.884 47.1675 337.393 47.4525 337.963 47.5519L337.977 47.5537C338.667 47.7262 339.249 47.9212 339.811 48.1518L339.723 48.12C339.991 48.2418 340.336 48.3712 340.691 48.4856L340.766 48.5062C341.163 48.6281 341.508 48.7894 341.825 48.9918L341.808 48.9825C342.421 49.3256 342.941 49.6631 343.436 50.0306L343.396 50.0025C343.91 50.38 344.424 50.7362 344.938 51.0712C345.18 51.2525 345.587 51.5169 346.158 51.8644C346.729 52.2119 347.032 52.5368 347.066 52.8394C345.917 52.7995 344.767 52.8541 343.627 53.0025L343.732 52.9912C342.78 53.1148 341.848 53.3606 340.959 53.7225L341.034 53.6962C340.798 53.7962 340.555 53.877 340.306 53.9381L340.271 53.9456C340.141 53.9642 340.022 54.0254 339.932 54.1195C339.841 54.2136 339.785 54.3352 339.772 54.465C339.886 54.6075 339.978 54.7743 340.04 54.9543L340.044 54.9656C340.108 55.1569 340.184 55.3218 340.278 55.4756L340.272 55.4644C340.496 55.86 340.736 56.2012 341.006 56.5162L340.998 56.5069C341.262 56.8331 341.561 57.1162 341.891 57.3581L341.904 57.3675C342.209 57.61 342.526 57.8594 342.856 58.1156C343.158 58.3519 343.499 58.5844 343.854 58.7943L343.899 58.8187C344.431 59.145 345.05 59.4562 345.695 59.7169L345.781 59.7468C346.482 60.0281 347.084 60.3543 347.643 60.7425L347.613 60.7219C347.977 60.9331 348.339 61.1675 348.701 61.425C349.062 61.6825 349.409 61.9319 349.743 62.1731C349.88 62.3081 350 62.4581 350.101 62.6212L350.107 62.6306C350.28 62.8301 350.52 62.9589 350.782 62.9925H350.788V62.9025C350.622 62.777 350.501 62.6015 350.443 62.4019L350.441 62.3944C350.398 62.2138 350.327 62.0411 350.231 61.8825L350.234 61.89L350.242 61.8975ZM315.412 25.8881C315.169 25.8881 314.942 25.8956 314.731 25.9106C314.636 25.9167 313.96 26.0681 314.232 26.0681C314.354 26.2494 314.506 26.4531 314.69 26.6794C314.874 26.9056 315.04 27.125 315.189 27.3375L315.914 28.8337L316.004 28.7887C316.216 28.6367 316.379 28.4281 316.477 28.1869L316.481 28.1775C316.597 27.8651 316.639 27.5343 316.632 27.2025C316.547 27.1198 316.479 27.0218 316.43 26.9137L316.428 26.9081L316.276 26.5669C316.179 26.4115 316.04 26.2868 315.875 26.2069L315.869 26.205C315.701 26.1245 315.546 26.0175 315.412 25.8881Z" fill="#01D2A6" stroke="#01D2A6" stroke-width="0.5"/>
</g>
<mask id="path-14-outside-1_1_7510" maskUnits="userSpaceOnUse" x="319.722" y="339.924" width="47" height="48" fill="black">
<rect fill="white" x="319.722" y="339.924" width="47" height="48"/>
<path d="M365.231 369.237C365.204 369.155 365.167 369.078 365.121 369.006C364.854 368.502 364.204 368.35 363.185 368.562C360.004 369.215 358.773 368.812 358.327 368.523C360.908 364.585 363.029 359.827 364.175 355.389C364.698 353.369 365.71 348.614 364.41 346.292C364.327 346.133 364.231 345.981 364.121 345.839C361.64 342.673 358 340.971 353.596 340.925C350.721 340.894 348.269 341.59 347.604 341.846C347.275 341.785 346.944 341.732 346.612 341.689C345.779 341.538 344.935 341.457 344.088 341.444C341.815 341.408 339.852 341.952 338.223 343.06C336.577 342.442 329.017 339.896 324.338 343.212C321.721 345.064 320.517 348.371 320.75 353.046C320.829 354.619 321.725 359.458 323.14 364.092C324.025 366.989 324.944 369.289 325.896 370.981C326.96 372.892 328.062 374.044 329.192 374.423C330.054 374.708 331.371 374.698 332.765 373.021C333.975 371.575 335.222 370.16 336.506 368.779C337.342 369.231 338.248 369.475 339.179 369.504C339.179 369.506 339.179 369.509 339.179 369.512C339.017 369.704 338.859 369.9 338.704 370.098C338.052 370.925 337.915 371.098 335.819 371.531C335.223 371.654 333.638 371.979 333.615 373.09C333.611 373.313 333.672 373.531 333.79 373.719C334.227 374.533 335.563 374.892 335.742 374.937C338.31 375.577 340.56 375.114 342.227 373.631C342.194 377.921 342.375 382.127 342.89 383.415C343.315 384.479 344.356 387.077 347.64 387.077C348.121 387.077 348.652 387.019 349.235 386.896C352.662 386.162 354.15 384.646 354.725 381.308C355.013 379.635 355.498 375.779 355.762 373.421C355.794 373.287 355.831 373.19 355.871 373.16C355.871 373.16 356.006 373.067 356.692 373.217C356.72 373.224 356.748 373.228 356.777 373.231L357.265 373.273L357.294 373.275C358.923 373.35 360.969 373.002 362.162 372.448C363.4 371.871 365.637 370.462 365.231 369.237ZM324.481 363.762C323.05 359.079 322.215 354.367 322.15 353.048C321.94 348.871 322.952 345.965 325.154 344.408C328.687 341.91 334.462 343.369 336.9 344.158L336.881 344.177C332.99 348.104 333.083 354.819 333.096 355.231C333.096 355.389 333.108 355.614 333.127 355.923C333.192 357.05 333.319 359.154 332.985 361.535C332.677 363.746 333.358 365.912 334.856 367.475C335.01 367.637 335.173 367.789 335.34 367.931C334.673 368.644 333.225 370.225 331.681 372.081C330.588 373.392 329.835 373.14 329.588 373.058C328.835 372.808 328.025 371.929 327.206 370.515C326.283 368.902 325.354 366.608 324.485 363.762M336.037 373.546C335.745 373.473 335.465 373.357 335.206 373.204C335.377 373.129 335.662 373.031 336.135 372.935C338.604 372.425 338.985 372.067 339.817 371.012C340.042 370.719 340.277 370.435 340.523 370.16C340.588 370.087 340.636 370.002 340.665 369.91C340.992 369.619 341.188 369.698 341.504 369.829C341.804 369.954 342.096 370.329 342.215 370.742C342.273 370.939 342.335 371.31 342.129 371.598C340.39 374.033 337.856 374.002 336.037 373.546ZM340.063 365.877L339.963 366.146C339.708 366.833 339.469 367.471 339.321 368.077C338.038 368.073 336.788 367.523 335.84 366.533C334.633 365.273 334.085 363.521 334.335 361.725C334.687 359.21 334.558 357.019 334.488 355.842L334.463 355.419C335.033 354.915 337.667 353.504 339.546 353.935C340.404 354.131 340.927 354.715 341.142 355.719C342.267 360.919 341.292 363.085 340.508 364.827C340.348 365.172 340.201 365.522 340.065 365.877M354.227 374.669C354.194 375.01 354.158 375.392 354.108 375.815L353.827 376.658C353.805 376.725 353.793 376.795 353.792 376.865C353.781 377.779 353.688 378.114 353.571 378.539C353.38 379.201 353.264 379.883 353.225 380.571C353.013 383.29 351.537 384.854 348.577 385.487C345.663 386.112 345.146 384.533 344.692 383.139C344.645 382.992 344.595 382.847 344.542 382.702C344.129 381.575 344.177 379.987 344.24 377.789C344.271 376.71 344.192 374.133 343.606 372.7C343.613 372.137 343.625 371.564 343.642 370.985C343.644 370.911 343.634 370.838 343.612 370.767C343.593 370.632 343.565 370.499 343.527 370.367C343.292 369.544 342.719 368.856 342.027 368.569C341.754 368.456 341.252 368.248 340.648 368.402C340.777 367.871 341 367.273 341.242 366.623L341.344 366.35C341.46 366.042 341.602 365.725 341.754 365.389C342.573 363.565 343.696 361.069 342.477 355.431C342.021 353.319 340.496 352.289 338.185 352.527C336.8 352.671 335.531 353.231 334.898 353.55C334.771 353.614 334.645 353.681 334.521 353.75C334.698 351.623 335.365 347.646 337.86 345.131C338.045 344.944 338.239 344.767 338.442 344.6C338.543 344.581 338.639 344.539 338.721 344.477C340.167 343.381 341.981 342.842 344.11 342.875C344.898 342.889 345.652 342.94 346.367 343.031C350.098 343.714 352.606 345.814 354.129 347.614C355.694 349.464 356.542 351.327 356.881 352.333C354.337 352.075 352.606 352.577 351.727 353.833C349.819 356.56 352.773 361.856 354.192 364.402C354.452 364.867 354.677 365.271 354.748 365.44C355.21 366.562 355.808 367.31 356.244 367.856C356.379 368.023 356.51 368.185 356.608 368.327C355.838 368.55 354.454 369.064 354.579 371.629C354.531 372.152 354.477 372.674 354.417 373.196C354.329 373.596 354.285 374.081 354.227 374.669ZM355.937 371.552C355.86 369.952 356.456 369.785 357.085 369.61C357.172 369.586 357.258 369.559 357.344 369.531C357.425 369.603 357.511 369.669 357.602 369.729C358.698 370.452 360.646 370.539 363.385 369.987C362.996 370.327 362.387 370.756 361.552 371.142C360.763 371.508 359.444 371.783 358.192 371.842C356.808 371.908 356.104 371.689 355.937 371.552ZM357.033 353.723C357.01 354.369 356.943 355.012 356.831 355.648C356.725 356.337 356.615 357.048 356.587 357.912C356.56 358.75 356.663 359.623 356.765 360.469C356.971 362.175 357.181 363.931 356.367 365.664C356.232 365.424 356.111 365.177 356.006 364.923C355.816 364.518 355.607 364.122 355.381 363.737C354.196 361.614 351.425 356.64 352.842 354.614C353.573 353.569 355.423 353.525 357.033 353.723ZM357.471 367.21C357.417 367.141 357.363 367.072 357.308 367.004L357.24 366.919C358.637 364.612 358.363 362.329 358.119 360.306C358.019 359.475 357.927 358.69 357.95 357.956C357.975 357.173 358.077 356.504 358.177 355.856C358.3 355.058 358.427 354.233 358.39 353.26C358.419 353.14 358.427 353.017 358.413 352.894C358.325 351.96 357.26 349.167 355.087 346.639C353.67 344.969 351.906 343.63 349.917 342.715C351.197 342.454 352.502 342.334 353.808 342.358C357.754 342.446 360.875 343.923 363.085 346.748C363.132 346.809 363.175 346.874 363.213 346.94C364.604 349.548 362.685 359.008 357.471 367.21ZM340.515 355.448C340.467 355.794 339.919 356.262 339.321 356.262C339.269 356.261 339.217 356.258 339.165 356.25C338.775 356.182 338.426 355.964 338.192 355.644C338.104 355.529 337.962 355.302 337.988 355.096C337.997 355.039 338.018 354.984 338.048 354.935C338.079 354.885 338.12 354.843 338.167 354.81C338.394 354.639 338.844 354.575 339.34 354.644C339.948 354.729 340.575 355.015 340.513 355.448M355.763 354.658C355.785 354.812 355.669 355.042 355.469 355.254C355.262 355.479 354.986 355.63 354.685 355.683C354.637 355.689 354.589 355.692 354.54 355.692C353.977 355.692 353.5 355.242 353.463 354.979C353.417 354.639 353.971 354.383 354.54 354.302C355.113 354.221 355.717 354.319 355.763 354.658Z"/>
</mask>
<path d="M365.231 369.237C365.204 369.155 365.167 369.078 365.121 369.006C364.854 368.502 364.204 368.35 363.185 368.562C360.004 369.215 358.773 368.812 358.327 368.523C360.908 364.585 363.029 359.827 364.175 355.389C364.698 353.369 365.71 348.614 364.41 346.292C364.327 346.133 364.231 345.981 364.121 345.839C361.64 342.673 358 340.971 353.596 340.925C350.721 340.894 348.269 341.59 347.604 341.846C347.275 341.785 346.944 341.732 346.612 341.689C345.779 341.538 344.935 341.457 344.088 341.444C341.815 341.408 339.852 341.952 338.223 343.06C336.577 342.442 329.017 339.896 324.338 343.212C321.721 345.064 320.517 348.371 320.75 353.046C320.829 354.619 321.725 359.458 323.14 364.092C324.025 366.989 324.944 369.289 325.896 370.981C326.96 372.892 328.062 374.044 329.192 374.423C330.054 374.708 331.371 374.698 332.765 373.021C333.975 371.575 335.222 370.16 336.506 368.779C337.342 369.231 338.248 369.475 339.179 369.504C339.179 369.506 339.179 369.509 339.179 369.512C339.017 369.704 338.859 369.9 338.704 370.098C338.052 370.925 337.915 371.098 335.819 371.531C335.223 371.654 333.638 371.979 333.615 373.09C333.611 373.313 333.672 373.531 333.79 373.719C334.227 374.533 335.563 374.892 335.742 374.937C338.31 375.577 340.56 375.114 342.227 373.631C342.194 377.921 342.375 382.127 342.89 383.415C343.315 384.479 344.356 387.077 347.64 387.077C348.121 387.077 348.652 387.019 349.235 386.896C352.662 386.162 354.15 384.646 354.725 381.308C355.013 379.635 355.498 375.779 355.762 373.421C355.794 373.287 355.831 373.19 355.871 373.16C355.871 373.16 356.006 373.067 356.692 373.217C356.72 373.224 356.748 373.228 356.777 373.231L357.265 373.273L357.294 373.275C358.923 373.35 360.969 373.002 362.162 372.448C363.4 371.871 365.637 370.462 365.231 369.237ZM324.481 363.762C323.05 359.079 322.215 354.367 322.15 353.048C321.94 348.871 322.952 345.965 325.154 344.408C328.687 341.91 334.462 343.369 336.9 344.158L336.881 344.177C332.99 348.104 333.083 354.819 333.096 355.231C333.096 355.389 333.108 355.614 333.127 355.923C333.192 357.05 333.319 359.154 332.985 361.535C332.677 363.746 333.358 365.912 334.856 367.475C335.01 367.637 335.173 367.789 335.34 367.931C334.673 368.644 333.225 370.225 331.681 372.081C330.588 373.392 329.835 373.14 329.588 373.058C328.835 372.808 328.025 371.929 327.206 370.515C326.283 368.902 325.354 366.608 324.485 363.762M336.037 373.546C335.745 373.473 335.465 373.357 335.206 373.204C335.377 373.129 335.662 373.031 336.135 372.935C338.604 372.425 338.985 372.067 339.817 371.012C340.042 370.719 340.277 370.435 340.523 370.16C340.588 370.087 340.636 370.002 340.665 369.91C340.992 369.619 341.188 369.698 341.504 369.829C341.804 369.954 342.096 370.329 342.215 370.742C342.273 370.939 342.335 371.31 342.129 371.598C340.39 374.033 337.856 374.002 336.037 373.546ZM340.063 365.877L339.963 366.146C339.708 366.833 339.469 367.471 339.321 368.077C338.038 368.073 336.788 367.523 335.84 366.533C334.633 365.273 334.085 363.521 334.335 361.725C334.687 359.21 334.558 357.019 334.488 355.842L334.463 355.419C335.033 354.915 337.667 353.504 339.546 353.935C340.404 354.131 340.927 354.715 341.142 355.719C342.267 360.919 341.292 363.085 340.508 364.827C340.348 365.172 340.201 365.522 340.065 365.877M354.227 374.669C354.194 375.01 354.158 375.392 354.108 375.815L353.827 376.658C353.805 376.725 353.793 376.795 353.792 376.865C353.781 377.779 353.688 378.114 353.571 378.539C353.38 379.201 353.264 379.883 353.225 380.571C353.013 383.29 351.537 384.854 348.577 385.487C345.663 386.112 345.146 384.533 344.692 383.139C344.645 382.992 344.595 382.847 344.542 382.702C344.129 381.575 344.177 379.987 344.24 377.789C344.271 376.71 344.192 374.133 343.606 372.7C343.613 372.137 343.625 371.564 343.642 370.985C343.644 370.911 343.634 370.838 343.612 370.767C343.593 370.632 343.565 370.499 343.527 370.367C343.292 369.544 342.719 368.856 342.027 368.569C341.754 368.456 341.252 368.248 340.648 368.402C340.777 367.871 341 367.273 341.242 366.623L341.344 366.35C341.46 366.042 341.602 365.725 341.754 365.389C342.573 363.565 343.696 361.069 342.477 355.431C342.021 353.319 340.496 352.289 338.185 352.527C336.8 352.671 335.531 353.231 334.898 353.55C334.771 353.614 334.645 353.681 334.521 353.75C334.698 351.623 335.365 347.646 337.86 345.131C338.045 344.944 338.239 344.767 338.442 344.6C338.543 344.581 338.639 344.539 338.721 344.477C340.167 343.381 341.981 342.842 344.11 342.875C344.898 342.889 345.652 342.94 346.367 343.031C350.098 343.714 352.606 345.814 354.129 347.614C355.694 349.464 356.542 351.327 356.881 352.333C354.337 352.075 352.606 352.577 351.727 353.833C349.819 356.56 352.773 361.856 354.192 364.402C354.452 364.867 354.677 365.271 354.748 365.44C355.21 366.562 355.808 367.31 356.244 367.856C356.379 368.023 356.51 368.185 356.608 368.327C355.838 368.55 354.454 369.064 354.579 371.629C354.531 372.152 354.477 372.674 354.417 373.196C354.329 373.596 354.285 374.081 354.227 374.669ZM355.937 371.552C355.86 369.952 356.456 369.785 357.085 369.61C357.172 369.586 357.258 369.559 357.344 369.531C357.425 369.603 357.511 369.669 357.602 369.729C358.698 370.452 360.646 370.539 363.385 369.987C362.996 370.327 362.387 370.756 361.552 371.142C360.763 371.508 359.444 371.783 358.192 371.842C356.808 371.908 356.104 371.689 355.937 371.552ZM357.033 353.723C357.01 354.369 356.943 355.012 356.831 355.648C356.725 356.337 356.615 357.048 356.587 357.912C356.56 358.75 356.663 359.623 356.765 360.469C356.971 362.175 357.181 363.931 356.367 365.664C356.232 365.424 356.111 365.177 356.006 364.923C355.816 364.518 355.607 364.122 355.381 363.737C354.196 361.614 351.425 356.64 352.842 354.614C353.573 353.569 355.423 353.525 357.033 353.723ZM357.471 367.21C357.417 367.141 357.363 367.072 357.308 367.004L357.24 366.919C358.637 364.612 358.363 362.329 358.119 360.306C358.019 359.475 357.927 358.69 357.95 357.956C357.975 357.173 358.077 356.504 358.177 355.856C358.3 355.058 358.427 354.233 358.39 353.26C358.419 353.14 358.427 353.017 358.413 352.894C358.325 351.96 357.26 349.167 355.087 346.639C353.67 344.969 351.906 343.63 349.917 342.715C351.197 342.454 352.502 342.334 353.808 342.358C357.754 342.446 360.875 343.923 363.085 346.748C363.132 346.809 363.175 346.874 363.213 346.94C364.604 349.548 362.685 359.008 357.471 367.21ZM340.515 355.448C340.467 355.794 339.919 356.262 339.321 356.262C339.269 356.261 339.217 356.258 339.165 356.25C338.775 356.182 338.426 355.964 338.192 355.644C338.104 355.529 337.962 355.302 337.988 355.096C337.997 355.039 338.018 354.984 338.048 354.935C338.079 354.885 338.12 354.843 338.167 354.81C338.394 354.639 338.844 354.575 339.34 354.644C339.948 354.729 340.575 355.015 340.513 355.448M355.763 354.658C355.785 354.812 355.669 355.042 355.469 355.254C355.262 355.479 354.986 355.63 354.685 355.683C354.637 355.689 354.589 355.692 354.54 355.692C353.977 355.692 353.5 355.242 353.463 354.979C353.417 354.639 353.971 354.383 354.54 354.302C355.113 354.221 355.717 354.319 355.763 354.658Z" fill="#01D2A6"/>
<path d="M365.231 369.237L364.756 369.392L364.756 369.394L365.231 369.237ZM365.121 369.006L364.679 369.24L364.689 369.258L364.7 369.276L365.121 369.006ZM363.185 368.562L363.285 369.051L363.286 369.051L363.185 368.562ZM358.327 368.523L357.909 368.249L357.633 368.67L358.055 368.943L358.327 368.523ZM364.175 355.389L363.691 355.263L363.691 355.264L364.175 355.389ZM364.41 346.292L363.965 346.522L363.969 346.529L363.973 346.537L364.41 346.292ZM364.121 345.839L364.517 345.534L364.515 345.53L364.121 345.839ZM353.596 340.925L353.591 341.425L353.591 341.425L353.596 340.925ZM347.604 341.846L347.512 342.338L347.651 342.364L347.783 342.313L347.604 341.846ZM346.612 341.689L346.523 342.181L346.535 342.183L346.547 342.184L346.612 341.689ZM344.088 341.444L344.08 341.944L344.081 341.944L344.088 341.444ZM338.223 343.06L338.048 343.528L338.29 343.619L338.504 343.473L338.223 343.06ZM324.338 343.212L324.627 343.62L324.628 343.62L324.338 343.212ZM320.75 353.046L320.251 353.071L320.251 353.071L320.75 353.046ZM323.14 364.092L322.662 364.238L322.662 364.238L323.14 364.092ZM325.896 370.981L326.333 370.738L326.332 370.736L325.896 370.981ZM329.192 374.423L329.033 374.897L329.035 374.898L329.192 374.423ZM332.765 373.021L332.382 372.701L332.381 372.702L332.765 373.021ZM336.506 368.779L336.743 368.339L336.403 368.155L336.14 368.438L336.506 368.779ZM339.179 369.504L339.679 369.521L339.696 369.02L339.194 369.004L339.179 369.504ZM339.179 369.512L339.562 369.833L339.685 369.686L339.679 369.494L339.179 369.512ZM338.704 370.098L339.096 370.408L339.098 370.406L338.704 370.098ZM335.819 371.531L335.718 371.041L335.718 371.041L335.819 371.531ZM333.615 373.09L333.115 373.08L333.115 373.081L333.615 373.09ZM333.79 373.719L334.231 373.483L334.223 373.467L334.213 373.453L333.79 373.719ZM335.742 374.937L335.863 374.451L335.862 374.451L335.742 374.937ZM342.227 373.631L342.727 373.635L342.735 372.509L341.895 373.257L342.227 373.631ZM342.89 383.415L343.355 383.23L343.355 383.23L342.89 383.415ZM349.235 386.896L349.338 387.385L349.339 387.385L349.235 386.896ZM354.725 381.308L354.232 381.223L354.232 381.223L354.725 381.308ZM355.762 373.421L355.276 373.303L355.268 373.334L355.265 373.366L355.762 373.421ZM355.871 373.16L355.588 372.747L355.578 372.754L355.568 372.762L355.871 373.16ZM356.692 373.217L356.801 372.729L356.799 372.729L356.692 373.217ZM356.777 373.231L356.728 373.729L356.734 373.729L356.777 373.231ZM357.265 373.273L357.222 373.771L357.232 373.772L357.265 373.273ZM357.294 373.275L357.261 373.774L357.271 373.775L357.294 373.275ZM362.162 372.448L362.372 372.902L362.373 372.901L362.162 372.448ZM322.15 353.048L322.649 353.023L322.649 353.023L322.15 353.048ZM325.154 344.408L324.865 344L324.865 344L325.154 344.408ZM336.9 344.158L337.254 344.511L337.831 343.933L337.054 343.682L336.9 344.158ZM336.881 344.177L336.527 343.823L336.526 343.825L336.881 344.177ZM333.096 355.231H333.596V355.223L333.596 355.214L333.096 355.231ZM333.127 355.923L333.626 355.894L333.626 355.892L333.127 355.923ZM332.985 361.535L332.489 361.465L332.489 361.466L332.985 361.535ZM334.856 367.475L335.218 367.13L335.217 367.129L334.856 367.475ZM335.34 367.931L335.706 368.272L336.064 367.89L335.664 367.55L335.34 367.931ZM331.681 372.081L332.065 372.401L332.065 372.401L331.681 372.081ZM329.588 373.058L329.748 372.584L329.746 372.583L329.588 373.058ZM327.206 370.515L326.772 370.764L326.773 370.766L327.206 370.515ZM336.037 373.546L335.914 374.031L335.915 374.031L336.037 373.546ZM335.206 373.204L335.005 372.746L334.112 373.137L334.951 373.634L335.206 373.204ZM336.135 372.935L336.234 373.425L336.236 373.424L336.135 372.935ZM339.817 371.012L340.21 371.321L340.214 371.316L339.817 371.012ZM340.523 370.16L340.896 370.493L340.896 370.493L340.523 370.16ZM340.665 369.91L340.333 369.536L340.23 369.628L340.188 369.759L340.665 369.91ZM341.504 369.829L341.696 369.367L341.695 369.367L341.504 369.829ZM342.215 370.742L341.735 370.881L341.736 370.883L342.215 370.742ZM342.129 371.598L342.536 371.889L342.536 371.888L342.129 371.598ZM339.963 366.146L340.432 366.321L340.432 366.32L339.963 366.146ZM339.321 368.077L339.32 368.577L339.713 368.578L339.807 368.196L339.321 368.077ZM335.84 366.533L336.202 366.187L336.201 366.187L335.84 366.533ZM334.335 361.725L333.839 361.656L333.839 361.656L334.335 361.725ZM334.488 355.842L334.988 355.813L334.988 355.813L334.488 355.842ZM334.463 355.419L334.132 355.045L333.95 355.206L333.964 355.449L334.463 355.419ZM339.546 353.935L339.434 354.422L339.435 354.422L339.546 353.935ZM341.142 355.719L340.653 355.824L340.654 355.825L341.142 355.719ZM340.508 364.827L340.962 365.037L340.964 365.032L340.508 364.827ZM354.227 374.669L353.729 374.621L353.729 374.621L354.227 374.669ZM354.108 375.815L354.582 375.974L354.598 375.925L354.604 375.874L354.108 375.815ZM353.827 376.658L353.353 376.5L353.352 376.5L353.827 376.658ZM353.792 376.865L354.292 376.872L354.292 376.871L353.792 376.865ZM353.571 378.539L354.052 378.677L354.053 378.672L353.571 378.539ZM353.225 380.571L353.724 380.61L353.724 380.6L353.225 380.571ZM348.577 385.487L348.472 384.998L348.472 384.998L348.577 385.487ZM344.692 383.139L344.217 383.292L344.217 383.293L344.692 383.139ZM344.542 382.702L345.012 382.531L345.012 382.53L344.542 382.702ZM344.24 377.789L344.74 377.803L344.74 377.803L344.24 377.789ZM343.606 372.7L343.106 372.693L343.104 372.795L343.143 372.889L343.606 372.7ZM343.642 370.985L344.142 371L344.142 370.996L343.642 370.985ZM343.612 370.767L343.116 370.836L343.122 370.877L343.134 370.917L343.612 370.767ZM343.527 370.367L343.046 370.504L343.046 370.505L343.527 370.367ZM342.027 368.569L341.835 369.031L341.836 369.031L342.027 368.569ZM340.648 368.402L340.162 368.284L339.966 369.092L340.772 368.887L340.648 368.402ZM341.242 366.623L340.774 366.448L340.774 366.448L341.242 366.623ZM341.344 366.35L340.876 366.174L340.876 366.175L341.344 366.35ZM341.754 365.389L342.21 365.594L342.21 365.593L341.754 365.389ZM342.477 355.431L341.988 355.536L341.988 355.537L342.477 355.431ZM338.185 352.527L338.133 352.03L338.133 352.03L338.185 352.527ZM334.898 353.55L334.673 353.104L334.672 353.104L334.898 353.55ZM334.521 353.75L334.023 353.709L333.945 354.642L334.764 354.187L334.521 353.75ZM337.86 345.131L338.215 345.483L338.215 345.483L337.86 345.131ZM338.442 344.6L338.348 344.109L338.223 344.133L338.125 344.214L338.442 344.6ZM338.721 344.477L339.021 344.877L339.023 344.875L338.721 344.477ZM344.11 342.875L344.118 342.375L344.117 342.375L344.11 342.875ZM346.367 343.031L346.457 342.539L346.444 342.537L346.43 342.535L346.367 343.031ZM354.129 347.614L354.511 347.291L354.129 347.614ZM356.881 352.333L356.83 352.83L357.602 352.908L357.355 352.173L356.881 352.333ZM351.727 353.833L351.317 353.546L351.317 353.546L351.727 353.833ZM354.192 364.402L353.756 364.645L353.756 364.646L354.192 364.402ZM354.748 365.44L355.21 365.25L355.209 365.247L354.748 365.44ZM356.244 367.856L355.854 368.168L355.855 368.169L356.244 367.856ZM356.608 368.327L356.747 368.807L357.413 368.614L357.019 368.043L356.608 368.327ZM354.579 371.629L355.077 371.674L355.08 371.64L355.078 371.605L354.579 371.629ZM354.417 373.196L354.906 373.304L354.911 373.279L354.914 373.253L354.417 373.196ZM355.937 371.552L355.437 371.576L355.448 371.799L355.62 371.939L355.937 371.552ZM357.085 369.61L356.951 369.128L356.951 369.128L357.085 369.61ZM357.344 369.531L357.676 369.157L357.461 368.966L357.187 369.056L357.344 369.531ZM357.602 369.729L357.326 370.146L357.327 370.146L357.602 369.729ZM363.385 369.987L363.714 370.363L365.126 369.126L363.286 369.496L363.385 369.987ZM361.552 371.142L361.342 370.689L361.342 370.689L361.552 371.142ZM358.192 371.842L358.216 372.342L358.216 372.342L358.192 371.842ZM357.033 353.723L357.532 353.741L357.548 353.283L357.094 353.227L357.033 353.723ZM356.831 355.648L356.338 355.562L356.337 355.572L356.831 355.648ZM356.587 357.912L356.087 357.895L356.087 357.896L356.587 357.912ZM356.765 360.469L356.269 360.529L356.269 360.529L356.765 360.469ZM356.367 365.664L355.932 365.91L356.409 366.752L356.82 365.876L356.367 365.664ZM356.006 364.923L356.468 364.731L356.463 364.721L356.458 364.711L356.006 364.923ZM355.381 363.737L354.944 363.98L354.95 363.99L355.381 363.737ZM352.842 354.614L352.433 354.327L352.433 354.327L352.842 354.614ZM357.471 367.21L357.078 367.519L357.514 368.074L357.893 367.478L357.471 367.21ZM357.308 367.004L356.916 367.315L356.918 367.317L357.308 367.004ZM357.24 366.919L356.813 366.66L356.632 366.958L356.849 367.231L357.24 366.919ZM358.119 360.306L357.623 360.366L357.623 360.366L358.119 360.306ZM357.95 357.956L357.45 357.94L357.45 357.94L357.95 357.956ZM358.177 355.856L358.671 355.932L358.671 355.932L358.177 355.856ZM358.39 353.26L357.904 353.144L357.888 353.21L357.891 353.278L358.39 353.26ZM358.413 352.894L357.916 352.941L357.916 352.948L358.413 352.894ZM355.087 346.639L354.705 346.962L354.707 346.964L355.087 346.639ZM349.917 342.715L349.817 342.226L348.321 342.531L349.708 343.17L349.917 342.715ZM353.808 342.358L353.819 341.858L353.817 341.858L353.808 342.358ZM363.085 346.748L363.481 346.443L363.478 346.44L363.085 346.748ZM363.213 346.94L363.655 346.705L363.651 346.698L363.646 346.69L363.213 346.94ZM339.321 356.262L339.319 356.762H339.321V356.262ZM339.165 356.25L339.079 356.743L339.086 356.744L339.094 356.745L339.165 356.25ZM338.192 355.644L338.596 355.349L338.589 355.34L338.192 355.644ZM337.988 355.096L337.494 355.02L337.493 355.031L337.988 355.096ZM338.167 354.81L338.453 355.22L338.461 355.215L338.468 355.209L338.167 354.81ZM339.34 354.644L339.271 355.139L339.271 355.14L339.34 354.644ZM355.763 354.658L355.268 354.725L355.268 354.726L355.763 354.658ZM355.469 355.254L355.106 354.91L355.101 354.916L355.469 355.254ZM354.685 355.683L354.752 356.178L354.761 356.177L354.77 356.175L354.685 355.683ZM354.54 355.692L354.542 355.192H354.54V355.692ZM353.463 354.979L352.968 355.046L352.968 355.048L353.463 354.979ZM354.54 354.302L354.471 353.807L354.47 353.807L354.54 354.302ZM365.706 369.081C365.666 368.959 365.611 368.844 365.542 368.736L364.7 369.276C364.724 369.312 364.742 369.351 364.756 369.392L365.706 369.081ZM365.563 368.771C365.35 368.37 364.986 368.129 364.547 368.028C364.125 367.931 363.628 367.959 363.083 368.072L363.286 369.051C363.76 368.953 364.098 368.951 364.323 369.003C364.53 369.05 364.625 369.138 364.679 369.24L365.563 368.771ZM363.084 368.072C359.941 368.718 358.876 368.283 358.598 368.103L358.055 368.943C358.67 369.341 360.067 369.713 363.285 369.051L363.084 368.072ZM358.745 368.797C361.355 364.814 363.499 360.007 364.659 355.514L363.691 355.264C362.559 359.647 360.46 364.355 357.909 368.249L358.745 368.797ZM364.659 355.514C364.924 354.492 365.315 352.769 365.474 350.998C365.631 349.258 365.576 347.352 364.846 346.048L363.973 346.537C364.543 347.554 364.633 349.187 364.478 350.909C364.326 352.602 363.949 354.266 363.691 355.263L364.659 355.514ZM364.854 346.063C364.758 345.877 364.645 345.7 364.517 345.534L363.725 346.143C363.816 346.262 363.897 346.389 363.965 346.522L364.854 346.063ZM364.515 345.53C361.931 342.233 358.141 340.473 353.601 340.425L353.591 341.425C357.859 341.47 361.35 343.113 363.728 346.147L364.515 345.53ZM353.601 340.425C350.656 340.394 348.142 341.104 347.424 341.38L347.783 342.313C348.397 342.077 350.786 341.395 353.591 341.425L353.601 340.425ZM347.696 341.355C347.358 341.291 347.018 341.237 346.676 341.193L346.547 342.184C346.87 342.227 347.192 342.278 347.512 342.338L347.696 341.355ZM346.7 341.196C345.84 341.041 344.969 340.957 344.096 340.944L344.081 341.944C344.9 341.956 345.717 342.035 346.523 342.181L346.7 341.196ZM344.096 340.944C341.736 340.906 339.668 341.472 337.942 342.646L338.504 343.473C340.036 342.432 341.895 341.909 344.08 341.944L344.096 340.944ZM338.399 342.592C337.557 342.276 335.212 341.47 332.473 341.164C329.749 340.86 326.538 341.04 324.049 342.804L324.628 343.62C326.818 342.068 329.726 341.863 332.363 342.158C334.985 342.451 337.243 343.226 338.048 343.528L338.399 342.592ZM324.05 342.803C321.235 344.795 320.014 348.311 320.251 353.071L321.249 353.021C321.021 348.432 322.207 345.332 324.627 343.62L324.05 342.803ZM320.251 353.071C320.332 354.703 321.242 359.587 322.662 364.238L323.619 363.946C322.208 359.329 321.325 354.535 321.249 353.021L320.251 353.071ZM322.662 364.238C323.552 367.152 324.484 369.49 325.46 371.226L326.332 370.736C325.405 369.087 324.498 366.825 323.619 363.946L322.662 364.238ZM325.459 371.224C326.538 373.163 327.719 374.457 329.033 374.897L329.351 373.949C328.404 373.632 327.381 372.622 326.333 370.738L325.459 371.224ZM329.035 374.898C329.541 375.065 330.191 375.148 330.918 374.938C331.644 374.728 332.403 374.239 333.15 373.341L332.381 372.702C331.734 373.48 331.136 373.834 330.64 373.977C330.145 374.12 329.705 374.066 329.349 373.948L329.035 374.898ZM333.149 373.342C334.353 371.902 335.594 370.494 336.872 369.119L336.14 368.438C334.85 369.826 333.597 371.247 332.382 372.701L333.149 373.342ZM336.268 369.219C337.172 369.707 338.154 369.972 339.163 370.004L339.194 369.004C338.342 368.978 337.512 368.754 336.743 368.339L336.268 369.219ZM338.679 369.486C338.679 369.501 338.679 369.515 338.679 369.529L339.679 369.494C339.679 369.503 339.679 369.512 339.679 369.521L338.679 369.486ZM338.796 369.19C338.63 369.387 338.468 369.587 338.31 369.79L339.098 370.406C339.249 370.212 339.404 370.021 339.562 369.833L338.796 369.19ZM338.311 369.789C337.978 370.211 337.84 370.376 337.568 370.521C337.264 370.682 336.777 370.823 335.718 371.041L335.92 372.021C336.958 371.806 337.587 371.644 338.038 371.404C338.521 371.147 338.778 370.812 339.096 370.408L338.311 369.789ZM335.718 371.041C335.426 371.101 334.819 371.224 334.28 371.492C333.75 371.756 333.133 372.241 333.115 373.08L334.115 373.101C334.121 372.828 334.308 372.595 334.725 372.388C335.132 372.185 335.616 372.083 335.92 372.021L335.718 371.041ZM333.115 373.081C333.109 373.4 333.197 373.715 333.367 373.986L334.213 373.453C334.147 373.347 334.113 373.225 334.115 373.1L333.115 373.081ZM333.35 373.956C333.646 374.507 334.21 374.858 334.647 375.067C335.1 375.285 335.515 375.396 335.622 375.422L335.862 374.451C335.79 374.433 335.448 374.342 335.079 374.166C334.693 373.981 334.372 373.745 334.231 373.483L333.35 373.956ZM335.621 375.422C338.317 376.094 340.746 375.617 342.559 374.004L341.895 373.257C340.373 374.61 338.302 375.06 335.863 374.451L335.621 375.422ZM341.727 373.627C341.711 375.779 341.748 377.915 341.854 379.679C341.907 380.561 341.978 381.355 342.069 382.015C342.159 382.664 342.273 383.219 342.426 383.601L343.355 383.23C343.25 382.967 343.148 382.514 343.06 381.878C342.973 381.253 342.905 380.486 342.852 379.619C342.748 377.885 342.711 375.773 342.727 373.635L341.727 373.627ZM342.426 383.601C342.638 384.132 343.033 385.127 343.826 385.985C344.635 386.859 345.845 387.577 347.64 387.577V386.577C346.151 386.577 345.199 385.996 344.56 385.305C343.905 384.598 343.567 383.762 343.355 383.23L342.426 383.601ZM347.64 387.577C348.161 387.577 348.726 387.515 349.338 387.385L349.131 386.407C348.577 386.524 348.081 386.577 347.64 386.577V387.577ZM349.339 387.385C351.102 387.007 352.438 386.414 353.406 385.429C354.376 384.442 354.921 383.118 355.218 381.393L354.232 381.223C353.954 382.836 353.467 383.939 352.693 384.728C351.916 385.519 350.794 386.051 349.13 386.407L349.339 387.385ZM355.218 381.393C355.509 379.703 355.995 375.835 356.258 373.477L355.265 373.366C355.001 375.723 354.518 379.566 354.232 381.223L355.218 381.393ZM356.247 373.539C356.254 373.513 356.26 373.491 356.265 373.474C356.271 373.456 356.274 373.445 356.276 373.441C356.279 373.435 356.276 373.443 356.266 373.459C356.261 373.467 356.252 373.481 356.238 373.497C356.225 373.513 356.204 373.535 356.174 373.557L355.568 372.762C355.433 372.865 355.373 373.008 355.351 373.062C355.319 373.14 355.295 373.224 355.276 373.303L356.247 373.539ZM355.871 373.16C356.154 373.572 356.153 373.572 356.153 373.573C356.152 373.573 356.152 373.573 356.151 373.574C356.151 373.574 356.15 373.575 356.149 373.575C356.147 373.577 356.146 373.578 356.144 373.579C356.141 373.581 356.137 373.583 356.134 373.585C356.128 373.589 356.121 373.593 356.115 373.596C356.103 373.603 356.092 373.608 356.081 373.613C356.061 373.622 356.044 373.627 356.033 373.63C356.013 373.636 356.012 373.633 356.042 373.632C356.105 373.63 356.266 373.636 356.586 373.706L356.799 372.729C356.432 372.649 356.182 372.626 356.006 372.633C355.917 372.636 355.84 372.647 355.772 372.665C355.738 372.674 355.706 372.685 355.675 372.699C355.66 372.706 355.645 372.713 355.63 372.721C355.623 372.725 355.616 372.73 355.609 372.734C355.605 372.736 355.602 372.738 355.599 372.74C355.597 372.742 355.595 372.743 355.593 372.744C355.593 372.744 355.592 372.745 355.591 372.746C355.59 372.746 355.59 372.746 355.59 372.746C355.589 372.747 355.588 372.747 355.871 373.16ZM356.584 373.705C356.632 373.716 356.68 373.724 356.728 373.728L356.825 372.733C356.817 372.732 356.809 372.731 356.801 372.729L356.584 373.705ZM356.734 373.729L357.222 373.771L357.309 372.775L356.82 372.733L356.734 373.729ZM357.232 373.772L357.261 373.774L357.327 372.776L357.299 372.774L357.232 373.772ZM357.271 373.775C358.962 373.852 361.091 373.497 362.372 372.902L361.951 371.995C360.847 372.507 358.884 372.848 357.317 372.776L357.271 373.775ZM362.373 372.901C363.018 372.601 363.931 372.081 364.641 371.462C364.995 371.154 365.323 370.8 365.535 370.415C365.749 370.024 365.864 369.559 365.705 369.079L364.756 369.394C364.8 369.526 364.788 369.697 364.658 369.934C364.526 370.175 364.294 370.439 363.984 370.708C363.368 371.245 362.543 371.719 361.95 371.995L362.373 372.901ZM324.959 363.615C323.534 358.951 322.712 354.284 322.649 353.023L321.651 353.073C321.719 354.451 322.566 359.207 324.003 363.908L324.959 363.615ZM322.649 353.023C322.443 348.918 323.446 346.229 325.443 344.816L324.865 344C322.458 345.702 321.437 348.824 321.651 353.073L322.649 353.023ZM325.443 344.816C327.07 343.665 329.258 343.401 331.403 343.549C333.536 343.696 335.546 344.245 336.746 344.634L337.054 343.682C335.816 343.282 333.719 342.707 331.472 342.551C329.236 342.397 326.77 342.653 324.865 344L325.443 344.816ZM336.546 343.804L336.527 343.823L337.234 344.531L337.254 344.511L336.546 343.804ZM336.526 343.825C334.483 345.887 333.506 348.656 333.035 350.92C332.563 353.192 332.589 355.016 332.596 355.247L333.596 355.214C333.59 355.034 333.563 353.295 334.014 351.124C334.467 348.946 335.388 346.394 337.236 344.529L336.526 343.825ZM332.596 355.231C332.596 355.406 332.609 355.647 332.628 355.954L333.626 355.892C333.607 355.58 333.596 355.371 333.596 355.231H332.596ZM332.628 355.952C332.693 357.077 332.817 359.138 332.489 361.465L333.48 361.604C333.822 359.17 333.692 357.023 333.626 355.894L332.628 355.952ZM332.489 361.466C332.161 363.823 332.887 366.143 334.495 367.821L335.217 367.129C333.829 365.68 333.192 363.669 333.48 361.604L332.489 361.466ZM334.494 367.82C334.661 367.996 334.838 368.16 335.016 368.312L335.664 367.55C335.508 367.417 335.358 367.277 335.218 367.13L334.494 367.82ZM334.975 367.589C334.304 368.307 332.849 369.895 331.296 371.761L332.065 372.401C333.601 370.555 335.042 368.981 335.706 368.272L334.975 367.589ZM331.297 371.761C330.795 372.363 330.418 372.551 330.194 372.608C329.979 372.662 329.842 372.615 329.748 372.584L329.429 373.532C329.582 373.583 329.944 373.703 330.441 373.577C330.928 373.452 331.474 373.11 332.065 372.401L331.297 371.761ZM329.746 372.583C329.479 372.495 329.156 372.277 328.787 371.882C328.422 371.49 328.036 370.951 327.638 370.265L326.773 370.766C327.195 371.493 327.623 372.1 328.056 372.564C328.485 373.024 328.944 373.371 329.431 373.532L329.746 372.583ZM327.64 370.267C326.742 368.699 325.827 366.444 324.963 363.616L324.006 363.908C324.881 366.772 325.823 369.105 326.772 370.764L327.64 370.267ZM336.159 373.061C335.913 373 335.678 372.903 335.461 372.774L334.951 373.634C335.251 373.812 335.576 373.946 335.914 374.031L336.159 373.061ZM335.406 373.662C335.538 373.604 335.787 373.516 336.234 373.425L336.035 372.445C335.536 372.546 335.216 372.653 335.005 372.746L335.406 373.662ZM336.236 373.424C337.474 373.169 338.253 372.94 338.834 372.614C339.435 372.277 339.79 371.853 340.21 371.321L339.425 370.702C339.012 371.226 338.76 371.509 338.345 371.742C337.91 371.986 337.264 372.191 336.034 372.445L336.236 373.424ZM340.214 371.316C340.431 371.033 340.658 370.759 340.896 370.493L340.151 369.826C339.896 370.111 339.652 370.405 339.42 370.708L340.214 371.316ZM340.896 370.493C341.008 370.368 341.092 370.22 341.142 370.06L340.188 369.759C340.181 369.784 340.168 369.807 340.15 369.826L340.896 370.493ZM340.997 370.284C341.053 370.234 341.085 370.217 341.096 370.212C341.103 370.209 341.098 370.211 341.09 370.211C341.086 370.211 341.097 370.21 341.136 370.223C341.179 370.236 341.229 370.256 341.312 370.291L341.695 369.367C341.562 369.312 341.337 369.211 341.088 369.211C340.796 369.212 340.553 369.341 340.333 369.536L340.997 370.284ZM341.312 370.29C341.429 370.339 341.643 370.563 341.735 370.881L342.696 370.604C342.549 370.095 342.178 369.568 341.696 369.367L341.312 370.29ZM341.736 370.883C341.755 370.95 341.773 371.039 341.771 371.125C341.769 371.211 341.75 371.268 341.722 371.308L342.536 371.888C342.884 371.4 342.761 370.825 342.695 370.601L341.736 370.883ZM341.722 371.308C340.159 373.496 337.893 373.496 336.158 373.061L335.915 374.031C337.819 374.508 340.621 374.57 342.536 371.889L341.722 371.308ZM339.595 365.703L339.495 365.972L340.432 366.32L340.532 366.051L339.595 365.703ZM339.495 365.972C339.242 366.651 338.992 367.318 338.835 367.958L339.807 368.196C339.947 367.624 340.173 367.015 340.432 366.321L339.495 365.972ZM339.323 367.577C338.184 367.574 337.062 367.085 336.202 366.187L335.479 366.879C336.515 367.961 337.893 368.573 339.32 368.577L339.323 367.577ZM336.201 366.187C335.104 365.043 334.6 363.446 334.83 361.794L333.839 361.656C333.569 363.597 334.161 365.504 335.479 366.879L336.201 366.187ZM334.83 361.794C335.189 359.226 335.057 356.993 334.988 355.813L333.989 355.872C334.058 357.045 334.184 359.193 333.839 361.656L334.83 361.794ZM334.988 355.813L334.963 355.39L333.964 355.449L333.989 355.872L334.988 355.813ZM334.795 355.794C335.016 355.598 335.755 355.145 336.689 354.795C337.625 354.443 338.64 354.24 339.434 354.422L339.658 353.447C338.573 353.199 337.331 353.486 336.338 353.858C335.343 354.232 334.48 354.737 334.132 355.045L334.795 355.794ZM339.435 354.422C339.775 354.5 340.024 354.647 340.212 354.857C340.405 355.072 340.559 355.382 340.653 355.824L341.631 355.614C341.511 355.052 341.295 354.568 340.958 354.191C340.616 353.809 340.175 353.566 339.658 353.447L339.435 354.422ZM340.654 355.825C341.207 358.382 341.237 360.162 341.046 361.499C340.856 362.833 340.442 363.755 340.052 364.622L340.964 365.032C341.358 364.156 341.824 363.125 342.036 361.64C342.248 360.159 342.203 358.257 341.631 355.614L340.654 355.825ZM340.054 364.617C339.89 364.973 339.738 365.333 339.598 365.699L340.532 366.055C340.664 365.711 340.807 365.371 340.962 365.037L340.054 364.617ZM353.729 374.621C353.696 374.962 353.66 375.34 353.611 375.757L354.604 375.874C354.655 375.445 354.692 375.057 354.725 374.717L353.729 374.621ZM353.633 375.657L353.353 376.5L354.301 376.816L354.582 375.974L353.633 375.657ZM353.352 376.5C353.314 376.617 353.294 376.738 353.292 376.86L354.292 376.871C354.292 376.852 354.296 376.833 354.302 376.815L353.352 376.5ZM353.292 376.859C353.281 377.721 353.198 378.012 353.089 378.405L354.053 378.672C354.179 378.215 354.28 377.837 354.292 376.872L353.292 376.859ZM353.091 378.4C352.889 379.098 352.767 379.817 352.726 380.543L353.724 380.6C353.761 379.948 353.871 379.304 354.052 378.677L353.091 378.4ZM352.726 380.532C352.627 381.807 352.237 382.76 351.568 383.468C350.894 384.181 349.89 384.695 348.472 384.998L348.681 385.976C350.224 385.646 351.438 385.061 352.295 384.155C353.157 383.243 353.611 382.055 353.723 380.61L352.726 380.532ZM348.472 384.998C347.105 385.291 346.433 385.043 346.045 384.697C345.613 384.312 345.404 383.71 345.168 382.984L344.217 383.293C344.434 383.962 344.711 384.846 345.379 385.443C346.092 386.078 347.136 386.307 348.682 385.975L348.472 384.998ZM345.168 382.985C345.119 382.832 345.067 382.681 345.012 382.531L344.072 382.873C344.123 383.012 344.171 383.152 344.217 383.292L345.168 382.985ZM345.012 382.53C344.831 382.039 344.743 381.421 344.712 380.627C344.681 379.835 344.708 378.908 344.74 377.803L343.741 377.774C343.709 378.867 343.68 379.833 343.713 380.666C343.745 381.499 343.84 382.238 344.073 382.874L345.012 382.53ZM344.74 377.803C344.756 377.245 344.744 376.311 344.652 375.331C344.562 374.361 344.391 373.298 344.068 372.511L343.143 372.889C343.407 373.535 343.569 374.476 343.657 375.423C343.744 376.36 343.755 377.253 343.741 377.774L344.74 377.803ZM344.106 372.707C344.113 372.146 344.125 371.575 344.142 371L343.143 370.97C343.125 371.552 343.114 372.128 343.106 372.693L344.106 372.707ZM344.142 370.996C344.145 370.868 344.127 370.74 344.089 370.618L343.134 370.917C343.14 370.935 343.143 370.954 343.142 370.974L344.142 370.996ZM344.107 370.699C344.085 370.54 344.052 370.383 344.007 370.229L343.046 370.505C343.077 370.614 343.101 370.724 343.116 370.836L344.107 370.699ZM344.008 370.23C343.738 369.285 343.073 368.461 342.218 368.107L341.836 369.031C342.365 369.25 342.846 369.804 343.046 370.504L344.008 370.23ZM342.219 368.108C341.942 367.992 341.302 367.719 340.525 367.917L340.772 368.887C341.202 368.777 341.566 368.919 341.835 369.031L342.219 368.108ZM341.134 368.52C341.254 368.024 341.465 367.456 341.711 366.798L340.774 366.448C340.535 367.09 340.299 367.718 340.162 368.284L341.134 368.52ZM341.711 366.798L341.813 366.525L340.876 366.175L340.774 366.448L341.711 366.798ZM341.812 366.526C341.921 366.236 342.057 365.933 342.21 365.594L341.298 365.183C341.147 365.517 340.998 365.849 340.876 366.174L341.812 366.526ZM342.21 365.593C342.622 364.677 343.133 363.543 343.374 361.914C343.616 360.286 343.585 358.191 342.966 355.325L341.988 355.537C342.588 358.309 342.605 360.281 342.385 361.767C342.165 363.251 341.705 364.277 341.298 365.184L342.21 365.593ZM342.966 355.325C342.716 354.171 342.161 353.262 341.307 352.683C340.457 352.109 339.371 351.902 338.133 352.03L338.236 353.024C339.31 352.914 340.142 353.103 340.747 353.512C341.346 353.917 341.782 354.58 341.988 355.536L342.966 355.325ZM338.133 352.03C336.659 352.183 335.326 352.774 334.673 353.104L335.123 353.996C335.735 353.688 336.941 353.159 338.236 353.024L338.133 352.03ZM334.672 353.104C334.54 353.171 334.408 353.241 334.278 353.313L334.764 354.187C334.883 354.121 335.003 354.057 335.124 353.996L334.672 353.104ZM335.019 353.792C335.195 351.679 335.855 347.863 338.215 345.483L337.505 344.779C334.876 347.429 334.201 351.567 334.023 353.709L335.019 353.792ZM338.215 345.483C338.388 345.308 338.57 345.142 338.76 344.986L338.125 344.214C337.909 344.391 337.702 344.58 337.505 344.779L338.215 345.483ZM338.536 345.091C338.712 345.058 338.877 344.984 339.021 344.877L338.422 344.077C338.4 344.093 338.375 344.104 338.348 344.109L338.536 345.091ZM339.023 344.875C340.365 343.858 342.064 343.344 344.102 343.375L344.117 342.375C341.897 342.341 339.969 342.904 338.419 344.079L339.023 344.875ZM344.101 343.375C344.873 343.388 345.609 343.439 346.305 343.527L346.43 342.535C345.695 342.442 344.923 342.389 344.118 342.375L344.101 343.375ZM346.277 343.523C349.861 344.178 352.273 346.195 353.747 347.936L354.511 347.291C352.938 345.432 350.336 343.249 346.457 342.539L346.277 343.523ZM353.747 347.936C355.266 349.732 356.086 351.538 356.407 352.492L357.355 352.173C356.999 351.116 356.122 349.195 354.511 347.291L353.747 347.936ZM356.931 351.835C354.333 351.572 352.357 352.061 351.317 353.546L352.137 354.119C352.855 353.093 354.34 352.578 356.83 352.83L356.931 351.835ZM351.317 353.546C350.759 354.344 350.575 355.305 350.608 356.293C350.641 357.281 350.891 358.33 351.239 359.347C351.933 361.379 353.049 363.377 353.756 364.645L354.629 364.159C353.917 362.88 352.846 360.958 352.185 359.024C351.855 358.057 351.636 357.112 351.607 356.26C351.579 355.409 351.741 354.685 352.137 354.119L351.317 353.546ZM353.756 364.646C354.026 365.129 354.23 365.498 354.287 365.634L355.209 365.247C355.124 365.044 354.878 364.605 354.629 364.158L353.756 364.646ZM354.286 365.631C354.776 366.822 355.414 367.617 355.854 368.168L356.635 367.544C356.202 367.002 355.643 366.301 355.21 365.25L354.286 365.631ZM355.855 368.169C355.994 368.342 356.111 368.487 356.196 368.611L357.019 368.043C356.908 367.882 356.764 367.704 356.634 367.542L355.855 368.169ZM356.468 367.847C356.065 367.964 355.41 368.179 354.885 368.766C354.349 369.365 354.012 370.276 354.079 371.653L355.078 371.605C355.02 370.417 355.313 369.788 355.631 369.433C355.959 369.066 356.381 368.913 356.747 368.807L356.468 367.847ZM354.081 371.583C354.033 372.103 353.98 372.621 353.921 373.139L354.914 373.253C354.974 372.728 355.029 372.201 355.077 371.674L354.081 371.583ZM353.929 373.088C353.833 373.525 353.786 374.046 353.729 374.621L354.725 374.718C354.784 374.116 354.825 373.668 354.906 373.304L353.929 373.088ZM356.436 371.528C356.4 370.772 356.532 370.485 356.631 370.365C356.734 370.241 356.88 370.186 357.219 370.091L356.951 369.128C356.66 369.209 356.194 369.325 355.861 369.728C355.524 370.135 355.397 370.732 355.437 371.576L356.436 371.528ZM357.218 370.092C357.313 370.065 357.408 370.037 357.501 370.006L357.187 369.056C357.109 369.082 357.03 369.106 356.951 369.128L357.218 370.092ZM357.012 369.905C357.111 369.992 357.216 370.073 357.326 370.146L357.878 369.312C357.807 369.265 357.74 369.213 357.676 369.157L357.012 369.905ZM357.327 370.146C357.978 370.576 358.839 370.79 359.855 370.835C360.876 370.881 362.09 370.758 363.483 370.477L363.286 369.496C361.941 369.768 360.812 369.877 359.9 369.836C358.983 369.796 358.322 369.605 357.877 369.312L357.327 370.146ZM363.055 369.611C362.703 369.919 362.134 370.322 361.342 370.689L361.762 371.596C362.639 371.19 363.289 370.735 363.714 370.363L363.055 369.611ZM361.342 370.689C360.632 371.018 359.382 371.285 358.169 371.343L358.216 372.342C359.506 372.28 360.895 371.998 361.762 371.596L361.342 370.689ZM358.169 371.343C357.505 371.374 357.02 371.337 356.693 371.28C356.529 371.252 356.409 371.22 356.329 371.192C356.239 371.161 356.228 371.144 356.253 371.165L355.62 371.939C355.729 372.028 355.868 372.09 356 372.136C356.143 372.186 356.317 372.23 356.523 372.266C356.935 372.337 357.495 372.376 358.216 372.342L358.169 371.343ZM356.533 353.706C356.511 354.328 356.446 354.948 356.338 355.562L357.323 355.735C357.439 355.076 357.509 354.409 357.532 353.741L356.533 353.706ZM356.337 355.572C356.231 356.26 356.117 356.998 356.087 357.895L357.086 357.928C357.114 357.098 357.219 356.413 357.325 355.724L356.337 355.572ZM356.087 357.896C356.058 358.778 356.168 359.69 356.269 360.529L357.262 360.409C357.159 359.557 357.061 358.722 357.086 357.928L356.087 357.896ZM356.269 360.529C356.477 362.254 356.658 363.867 355.915 365.451L356.82 365.876C357.703 363.995 357.465 362.096 357.262 360.409L356.269 360.529ZM356.802 365.417C356.677 365.196 356.565 364.967 356.468 364.731L355.544 365.115C355.657 365.387 355.787 365.653 355.932 365.91L356.802 365.417ZM356.458 364.711C356.262 364.292 356.046 363.882 355.812 363.483L354.95 363.99C355.168 364.362 355.37 364.745 355.553 365.136L356.458 364.711ZM355.817 363.493C355.223 362.428 354.252 360.685 353.604 358.963C353.279 358.101 353.045 357.269 352.972 356.545C352.898 355.814 352.997 355.265 353.252 354.9L352.433 354.327C351.979 354.975 351.893 355.809 351.977 356.646C352.062 357.491 352.329 358.415 352.668 359.315C353.347 361.117 354.354 362.922 354.944 363.98L355.817 363.493ZM353.252 354.9C353.502 354.542 353.984 354.305 354.684 354.197C355.374 354.09 356.187 354.123 356.972 354.219L357.094 353.227C356.268 353.125 355.352 353.081 354.531 353.208C353.722 353.334 352.913 353.64 352.433 354.327L353.252 354.9ZM357.864 366.901C357.809 366.83 357.753 366.76 357.697 366.691L356.918 367.317C356.972 367.384 357.025 367.451 357.078 367.519L357.864 366.901ZM357.699 366.693L357.632 366.608L356.849 367.231L356.916 367.315L357.699 366.693ZM357.668 367.178C359.164 364.706 358.859 362.258 358.616 360.246L357.623 360.366C357.868 362.399 358.109 364.517 356.813 366.66L357.668 367.178ZM358.616 360.246C358.515 359.408 358.428 358.662 358.45 357.972L357.45 357.94C357.426 358.719 357.524 359.542 357.623 360.366L358.616 360.246ZM358.45 357.972C358.474 357.223 358.571 356.581 358.671 355.932L357.683 355.78C357.583 356.427 357.476 357.123 357.45 357.94L358.45 357.972ZM358.671 355.932C358.794 355.136 358.929 354.267 358.89 353.241L357.891 353.278C357.925 354.198 357.806 354.98 357.683 355.78L358.671 355.932ZM358.877 353.376C358.919 353.201 358.93 353.019 358.911 352.84L357.916 352.948C357.923 353.014 357.919 353.08 357.904 353.144L358.877 353.376ZM358.911 352.847C358.858 352.29 358.539 351.294 357.982 350.146C357.416 348.982 356.584 347.614 355.466 346.313L354.707 346.964C355.762 348.192 356.549 349.485 357.082 350.583C357.623 351.697 357.88 352.564 357.916 352.941L358.911 352.847ZM355.468 346.315C354.004 344.59 352.181 343.207 350.126 342.261L349.708 343.17C351.631 344.054 353.336 345.349 354.705 346.962L355.468 346.315ZM350.017 343.205C351.261 342.951 352.529 342.834 353.799 342.858L353.817 341.858C352.474 341.833 351.133 341.957 349.817 342.226L350.017 343.205ZM353.796 342.858C357.61 342.943 360.584 344.362 362.691 347.056L363.478 346.44C361.166 343.484 357.898 341.949 353.819 341.858L353.796 342.858ZM362.689 347.053C362.722 347.097 362.753 347.143 362.781 347.191L363.646 346.69C363.597 346.604 363.541 346.522 363.481 346.443L362.689 347.053ZM362.772 347.176C363.054 347.703 363.201 348.669 363.136 350.03C363.073 351.37 362.807 353.018 362.335 354.852C361.389 358.521 359.626 362.887 357.049 366.941L357.893 367.478C360.53 363.33 362.333 358.866 363.303 355.102C363.788 353.22 364.067 351.502 364.135 350.078C364.202 348.676 364.069 347.482 363.655 346.705L362.772 347.176ZM340.02 355.379C340.023 355.359 340.025 355.376 339.989 355.427C339.955 355.473 339.901 355.528 339.828 355.582C339.679 355.692 339.494 355.762 339.321 355.762V356.762C339.747 356.762 340.135 356.598 340.421 356.388C340.687 356.192 340.96 355.883 341.011 355.517L340.02 355.379ZM339.323 355.762C339.294 355.761 339.266 355.759 339.237 355.755L339.094 356.745C339.168 356.756 339.244 356.761 339.319 356.762L339.323 355.762ZM339.252 355.758C338.989 355.711 338.754 355.565 338.596 355.349L337.789 355.939C338.099 356.364 338.561 356.652 339.079 356.743L339.252 355.758ZM338.589 355.34C338.56 355.302 338.526 355.25 338.504 355.2C338.493 355.176 338.488 355.159 338.486 355.15C338.484 355.14 338.486 355.145 338.484 355.161L337.493 355.031C337.462 355.264 337.529 355.471 337.591 355.608C337.655 355.752 337.736 355.871 337.795 355.949L338.589 355.34ZM338.483 355.173C338.481 355.182 338.478 355.191 338.473 355.199L337.624 354.67C337.558 354.777 337.514 354.896 337.494 355.02L338.483 355.173ZM338.473 355.199C338.468 355.208 338.461 355.215 338.453 355.22L337.882 354.399C337.778 354.471 337.691 354.563 337.624 354.67L338.473 355.199ZM338.468 355.209C338.488 355.194 338.564 355.154 338.723 355.132C338.873 355.111 339.062 355.11 339.271 355.139L339.409 354.149C339.122 354.109 338.839 354.106 338.583 354.142C338.336 354.177 338.074 354.254 337.866 354.41L338.468 355.209ZM339.271 355.14C339.533 355.176 339.77 355.253 339.919 355.343C340.084 355.444 340.006 355.463 340.018 355.378L341.008 355.519C341.082 355.001 340.722 354.66 340.437 354.488C340.136 354.306 339.756 354.197 339.409 354.149L339.271 355.14ZM355.268 354.726C355.263 354.689 355.269 354.668 355.268 354.671C355.267 354.674 355.264 354.687 355.251 354.712C355.226 354.763 355.179 354.834 355.106 354.91L355.833 355.597C355.96 355.463 356.07 355.312 356.147 355.156C356.219 355.011 356.289 354.808 356.259 354.59L355.268 354.726ZM355.101 354.916C354.968 355.06 354.792 355.157 354.599 355.19L354.77 356.175C355.181 356.104 355.556 355.899 355.838 355.592L355.101 354.916ZM354.617 355.187C354.592 355.191 354.567 355.192 354.542 355.192L354.539 356.192C354.61 356.193 354.682 356.188 354.752 356.178L354.617 355.187ZM354.54 355.192C354.39 355.192 354.232 355.13 354.104 355.034C354.041 354.987 353.996 354.94 353.97 354.904C353.937 354.86 353.952 354.861 353.959 354.91L352.968 355.048C352.993 355.228 353.081 355.384 353.166 355.499C353.257 355.621 353.373 355.736 353.505 355.835C353.765 356.03 354.128 356.192 354.54 356.192V355.192ZM353.959 354.912C353.968 354.982 353.94 355.03 353.934 355.039C353.933 355.04 353.953 355.015 354.019 354.977C354.152 354.901 354.367 354.832 354.611 354.797L354.47 353.807C354.144 353.853 353.798 353.952 353.523 354.109C353.285 354.245 352.901 354.55 352.968 355.046L353.959 354.912ZM354.61 354.797C354.854 354.763 355.081 354.771 355.229 354.808C355.303 354.826 355.33 354.845 355.328 354.844C355.319 354.837 355.278 354.797 355.268 354.725L356.259 354.59C356.191 354.093 355.736 353.903 355.47 353.837C355.162 353.761 354.8 353.761 354.471 353.807L354.61 354.797Z" fill="#01D2A6" mask="url(#path-14-outside-1_1_7510)"/>
<path d="M40 16C19.0132 16 2.00001 33.0132 2 54C2 74.9868 19.0132 92 40 92C60.9868 92 78 74.9868 78 54C78 33.0132 60.9869 16 40 16Z" stroke="white" stroke-width="3" stroke-miterlimit="10"/>
<mask id="path-17-inside-2_1_7510" fill="white">
<path d="M53.0202 360.242C55.3161 357.453 57.2933 354.621 57.6972 354.033C57.7068 354.022 57.7183 354.014 57.7311 354.009C57.7439 354.003 57.7577 354 57.7716 354C57.7855 354 57.7993 354.003 57.8121 354.009C57.8249 354.014 57.8365 354.022 57.8461 354.033C58.25 354.621 60.2271 357.453 62.5232 360.242C82.2305 385.97 59.4192 403.334 59.4192 403.334L59.2279 403.464C59.0579 406.144 58.6326 410 58.6326 410H56.9319C56.9319 410 56.5068 406.166 56.3367 403.464L56.1453 403.312C56.124 403.334 33.3127 385.97 53.0202 360.242ZM57.7823 402.941C57.7823 402.941 58.8027 402.048 59.0791 401.591V401.547L57.8461 373.531C57.8461 373.444 57.7184 373.444 57.7184 373.531L56.4854 401.547V401.591C56.7618 402.048 57.7823 402.941 57.7823 402.941"/>
</mask>
<path d="M53.0202 360.242L50.6385 358.417L50.6706 358.375L50.7042 358.335L53.0202 360.242ZM57.6972 354.033L55.2242 352.334L55.3496 352.152L55.5004 351.99L57.6972 354.033ZM57.8461 354.033L60.0428 351.99L60.1937 352.152L60.3191 352.334L57.8461 354.033ZM62.5232 360.242L64.8391 358.335L64.8727 358.375L64.9048 358.417L62.5232 360.242ZM59.4192 403.334L61.2362 405.721L61.1753 405.767L61.1121 405.81L59.4192 403.334ZM59.2279 403.464L56.2339 403.274L56.3266 401.814L57.535 400.988L59.2279 403.464ZM58.6326 410L61.6145 410.329L61.32 413H58.6326V410ZM56.9319 410V413H54.2461L53.9501 410.331L56.9319 410ZM56.3367 403.464L58.207 401.119L59.2471 401.948L59.3307 403.276L56.3367 403.464ZM56.1453 403.312L53.9944 401.22L55.8898 399.271L58.0156 400.966L56.1453 403.312ZM59.0791 401.591H62.0791V402.427L61.6467 403.142L59.0791 401.591ZM59.0791 401.547L62.0762 401.415L62.0791 401.481V401.547H59.0791ZM57.8461 373.531L54.849 373.663L54.8461 373.597V373.531H57.8461ZM57.7184 373.531H60.7184V373.597L60.7155 373.663L57.7184 373.531ZM56.4854 401.547H53.4854V401.481L53.4883 401.415L56.4854 401.547ZM56.4854 401.591L53.9178 403.142L53.4854 402.427V401.591H56.4854ZM50.7042 358.335C52.9207 355.643 54.842 352.891 55.2242 352.334L60.1701 355.731C59.7446 356.351 57.7116 359.263 55.3362 362.148L50.7042 358.335ZM55.5004 351.99C55.7863 351.682 56.1343 351.433 56.5256 351.261L58.9366 356.756C59.3023 356.595 59.6272 356.363 59.894 356.076L55.5004 351.99ZM56.5256 351.261C56.917 351.09 57.3411 351 57.7716 351V357C58.1743 357 58.5709 356.916 58.9366 356.756L56.5256 351.261ZM57.7716 351C58.2021 351 58.6262 351.09 59.0176 351.261L56.6066 356.756C56.9724 356.916 57.369 357 57.7716 357V351ZM59.0176 351.261C59.4089 351.433 59.7569 351.682 60.0428 351.99L55.6493 356.076C55.916 356.363 56.2409 356.595 56.6066 356.756L59.0176 351.261ZM60.3191 352.334C60.7012 352.891 62.6225 355.643 64.8391 358.335L60.2072 362.148C57.8317 359.263 55.7987 356.351 55.373 355.731L60.3191 352.334ZM64.9048 358.417C70.1083 365.211 72.6244 371.615 73.3306 377.47C74.0365 383.322 72.9115 388.436 71.1188 392.618C69.3344 396.781 66.8865 400.029 64.9033 402.228C63.9076 403.332 63.0167 404.185 62.3642 404.77C62.0375 405.063 61.7694 405.29 61.5762 405.449C61.4796 405.529 61.4016 405.591 61.3443 405.637C61.3156 405.659 61.2921 405.678 61.274 405.692C61.265 405.699 61.2573 405.705 61.251 405.709C61.2478 405.712 61.245 405.714 61.2425 405.716C61.2413 405.717 61.2397 405.718 61.2391 405.718C61.2376 405.72 61.2362 405.721 59.4192 403.334C57.6022 400.946 57.6009 400.947 57.5998 400.948C57.5995 400.948 57.5985 400.949 57.5979 400.95C57.5969 400.95 57.5961 400.951 57.5957 400.951C57.5949 400.952 57.5955 400.952 57.5973 400.95C57.601 400.947 57.6099 400.94 57.6238 400.929C57.6516 400.907 57.6993 400.869 57.7649 400.815C57.8963 400.707 58.099 400.536 58.3576 400.304C58.8755 399.839 59.6128 399.135 60.4477 398.209C62.1259 396.349 64.1491 393.648 65.6041 390.254C67.0509 386.879 67.9335 382.828 67.3738 378.188C66.8145 373.551 64.7917 368.137 60.1415 362.066L64.9048 358.417ZM61.1121 405.81L60.9208 405.941L57.535 400.988L57.7263 400.857L61.1121 405.81ZM62.2219 403.654C62.1335 405.047 61.9806 406.722 61.8521 408.03C61.7875 408.688 61.7283 409.261 61.6852 409.67C61.6636 409.875 61.6461 410.038 61.6339 410.151C61.6278 410.208 61.623 410.252 61.6197 410.282C61.6181 410.297 61.6168 410.308 61.6159 410.316C61.6155 410.32 61.6152 410.323 61.6149 410.325C61.6148 410.326 61.6147 410.327 61.6147 410.328C61.6146 410.328 61.6146 410.328 61.6146 410.328C61.6146 410.329 61.6146 410.329 61.6146 410.329C61.6146 410.329 61.6145 410.329 58.6326 410C55.6507 409.671 55.6507 409.671 55.6507 409.671C55.6507 409.671 55.6507 409.671 55.6507 409.671C55.6507 409.671 55.6507 409.671 55.6507 409.671C55.6508 409.67 55.6508 409.67 55.6509 409.669C55.6511 409.667 55.6514 409.665 55.6518 409.662C55.6525 409.655 55.6537 409.644 55.6552 409.63C55.6582 409.603 55.6627 409.561 55.6686 409.507C55.6803 409.398 55.6973 409.24 55.7183 409.041C55.7602 408.643 55.8179 408.085 55.8809 407.444C56.0076 406.154 56.1523 404.561 56.2339 403.274L62.2219 403.654ZM58.6326 413H56.9319V407H58.6326V413ZM56.9319 410C53.9501 410.331 53.9501 410.33 53.9501 410.33C53.9501 410.33 53.9501 410.33 53.9501 410.33C53.9501 410.33 53.95 410.33 53.95 410.329C53.9499 410.329 53.9498 410.328 53.9497 410.327C53.9495 410.325 53.9492 410.322 53.9487 410.318C53.9479 410.31 53.9466 410.299 53.945 410.284C53.9417 410.254 53.9369 410.21 53.9308 410.154C53.9186 410.041 53.901 409.878 53.8794 409.674C53.8363 409.267 53.7771 408.696 53.7125 408.039C53.584 406.733 53.4311 405.057 53.3426 403.653L59.3307 403.276C59.4124 404.573 59.557 406.165 59.6836 407.451C59.7465 408.091 59.8042 408.647 59.8461 409.043C59.8671 409.241 59.884 409.398 59.8957 409.506C59.9016 409.56 59.9061 409.601 59.9091 409.629C59.9107 409.643 59.9118 409.653 59.9125 409.66C59.9129 409.663 59.9132 409.666 59.9134 409.667C59.9135 409.668 59.9135 409.669 59.9136 409.669C59.9136 409.669 59.9136 409.669 59.9136 409.669C59.9136 409.67 59.9136 409.669 59.9136 409.67C59.9136 409.669 59.9136 409.669 56.9319 410ZM54.4664 405.81L54.275 405.657L58.0156 400.966L58.207 401.119L54.4664 405.81ZM58.2962 405.403C57.0569 406.17 55.2901 406.187 54.9874 406.079C54.8748 406.03 54.7073 405.945 54.6506 405.913C54.56 405.861 54.4915 405.815 54.475 405.804C54.425 405.771 54.3849 405.742 54.3691 405.73C54.3288 405.701 54.2897 405.672 54.2571 405.647C54.188 405.594 54.1023 405.527 54.003 405.446C53.803 405.285 53.5305 405.056 53.2016 404.763C52.544 404.178 51.6499 403.325 50.652 402.222C48.6643 400.025 46.2138 396.778 44.4276 392.616C42.6332 388.435 41.5074 383.321 42.213 377.47C42.9188 371.615 45.435 365.211 50.6385 358.417L55.4018 362.066C50.7515 368.137 48.7289 373.551 48.1698 378.188C47.6104 382.827 48.4936 386.877 49.9413 390.25C51.3972 393.642 53.4218 396.34 55.1013 398.197C55.937 399.12 56.6746 399.822 57.1916 400.282C57.45 400.512 57.6505 400.68 57.7774 400.782C57.8414 400.834 57.8827 400.866 57.9 400.879C57.9106 400.887 57.9045 400.883 57.8866 400.87C57.882 400.866 57.8504 400.843 57.8063 400.814C57.7927 400.805 57.7264 400.76 57.6374 400.709C57.5815 400.678 57.4146 400.594 57.3025 400.544C57.0002 400.436 55.2336 400.454 53.9944 401.22L58.2962 405.403ZM57.7823 402.941C55.8065 400.684 55.8064 400.684 55.8063 400.684C55.8062 400.684 55.8061 400.684 55.806 400.684C55.8059 400.684 55.8058 400.684 55.8056 400.685C55.8054 400.685 55.8052 400.685 55.8051 400.685C55.8049 400.685 55.8049 400.685 55.8051 400.685C55.8056 400.685 55.807 400.683 55.8092 400.681C55.8136 400.678 55.8214 400.671 55.8322 400.661C55.8538 400.642 55.8869 400.612 55.9283 400.575C56.0122 400.498 56.1242 400.395 56.2403 400.282C56.3598 400.167 56.4639 400.061 56.5397 399.977C56.6456 399.861 56.5989 399.895 56.5115 400.039L61.6467 403.142C61.2733 403.76 60.6535 404.361 60.4138 404.593C60.2402 404.761 60.0799 404.909 59.9638 405.015C59.9052 405.068 59.8564 405.112 59.8212 405.143C59.8035 405.159 59.7891 405.171 59.7785 405.181C59.7731 405.186 59.7687 405.189 59.7653 405.192C59.7636 405.194 59.7622 405.195 59.7609 405.196C59.7603 405.197 59.7598 405.197 59.7593 405.198C59.7591 405.198 59.7589 405.198 59.7586 405.198C59.7585 405.198 59.7584 405.199 59.7583 405.199C59.7582 405.199 59.7581 405.199 57.7823 402.941ZM56.0791 401.591V401.547H62.0791V401.591H56.0791ZM56.082 401.679L54.849 373.663L60.8432 373.399L62.0762 401.415L56.082 401.679ZM54.8461 373.531C54.8461 374.299 55.1545 375.107 55.8067 375.7C56.409 376.249 57.1394 376.465 57.7822 376.465C58.4251 376.465 59.1555 376.249 59.7578 375.7C60.41 375.107 60.7184 374.299 60.7184 373.531H54.7184C54.7184 372.72 55.0428 371.879 55.7189 371.263C56.3452 370.693 57.1075 370.465 57.7822 370.465C58.457 370.465 59.2193 370.693 59.8456 371.263C60.5217 371.879 60.8461 372.72 60.8461 373.531H54.8461ZM60.7155 373.663L59.4825 401.679L53.4883 401.415L54.7213 373.399L60.7155 373.663ZM59.4854 401.547V401.591H53.4854V401.547H59.4854ZM59.053 400.039C58.9657 399.895 58.9191 399.861 59.025 399.977C59.1008 400.061 59.2048 400.167 59.3244 400.282C59.4404 400.395 59.5525 400.498 59.6364 400.575C59.6778 400.612 59.7109 400.642 59.7325 400.661C59.7433 400.671 59.7511 400.678 59.7555 400.682C59.7578 400.684 59.7591 400.685 59.7596 400.685C59.7598 400.685 59.7598 400.685 59.7596 400.685C59.7595 400.685 59.7593 400.685 59.7591 400.685C59.759 400.685 59.7588 400.685 59.7587 400.684C59.7586 400.684 59.7585 400.684 59.7584 400.684C59.7583 400.684 59.7582 400.684 57.7823 402.941C55.8064 405.199 55.8063 405.199 55.8061 405.199C55.8061 405.198 55.8059 405.198 55.8058 405.198C55.8056 405.198 55.8054 405.198 55.8051 405.198C55.8047 405.197 55.8041 405.197 55.8035 405.196C55.8023 405.195 55.8008 405.194 55.7991 405.192C55.7957 405.189 55.7913 405.186 55.786 405.181C55.7753 405.171 55.761 405.159 55.7433 405.143C55.708 405.112 55.6593 405.068 55.6006 405.015C55.4846 404.909 55.3242 404.761 55.1506 404.593C54.911 404.361 54.2912 403.76 53.9178 403.142L59.053 400.039Z" fill="#01D2A6" mask="url(#path-17-inside-2_1_7510)"/>
</g>
<defs>
<linearGradient id="paint0_linear_1_7510" x1="233.86" y1="114.19" x2="139.99" y2="232.99" gradientUnits="userSpaceOnUse">
<stop stop-color="#00DE8E"/>
<stop offset="1" stop-color="#00A7FF"/>
</linearGradient>
<linearGradient id="paint1_linear_1_7510" x1="265.6" y1="139.26" x2="171.73" y2="258.06" gradientUnits="userSpaceOnUse">
<stop stop-color="#00DE8E"/>
<stop offset="1" stop-color="#00A7FF"/>
</linearGradient>
<linearGradient id="paint2_linear_1_7510" x1="245.69" y1="123.54" x2="151.83" y2="242.34" gradientUnits="userSpaceOnUse">
<stop stop-color="#00DE8E"/>
<stop offset="1" stop-color="#00A7FF"/>
</linearGradient>
<clipPath id="clip0_1_7510">
<rect width="383" height="422" fill="white"/>
</clipPath>
<clipPath id="clip1_1_7510">
<rect width="40" height="40" fill="white" transform="translate(20 34)"/>
</clipPath>
<clipPath id="clip2_1_7510">
<rect width="48" height="47" fill="white" transform="translate(304 17)"/>
</clipPath>
</defs>
</svg>
