<svg width="48" height="48" viewBox="0 0 48 48" fill="none" xmlns="http://www.w3.org/2000/svg">
<path fill-rule="evenodd" clip-rule="evenodd" d="M15.704 10.1599C14.1355 10.1599 12.864 11.4315 12.864 12.9999V35.0013C12.864 36.5698 14.1355 37.8413 15.704 37.8413H32.296C33.8645 37.8413 35.136 36.5698 35.136 35.0013V12.9999C35.136 11.4315 33.8645 10.1599 32.296 10.1599H15.704ZM12.144 12.9999C12.144 11.0338 13.7378 9.43994 15.704 9.43994H32.296C34.2621 9.43994 35.856 11.0338 35.856 12.9999V35.0013C35.856 36.9674 34.2621 38.5613 32.296 38.5613H15.704C13.7378 38.5613 12.144 36.9674 12.144 35.0013V12.9999Z" fill="white"/>
<path d="M24 20.5145C27.1885 20.5145 29.7734 19.6531 29.7734 18.5905C29.7734 17.5279 27.1885 16.6665 24 16.6665C20.8115 16.6665 18.2267 17.5279 18.2267 18.5905C18.2267 19.6531 20.8115 20.5145 24 20.5145Z" fill="url(#paint0_linear_26_4889)"/>
<path d="M29.7734 24.9185V29.4078C29.7734 30.4745 27.2067 31.3331 24 31.3331C20.7934 31.3331 18.2267 30.4731 18.2267 29.4078V24.9185C18.2267 25.9851 20.7934 26.8425 24 26.8425C27.2067 26.8425 29.7734 25.9825 29.7734 24.9185Z" fill="url(#paint1_linear_26_4889)"/>
<path d="M29.7734 19.4668V23.9561C29.7734 25.0228 27.2067 25.8815 24 25.8815C20.7934 25.8815 18.2267 25.0215 18.2267 23.9561V19.4668C18.2267 20.5335 20.7934 21.3908 24 21.3908C27.2067 21.3908 29.7734 20.5335 29.7734 19.4668Z" fill="url(#paint2_linear_26_4889)"/>
<path fill-rule="evenodd" clip-rule="evenodd" d="M40.2294 37.0144C38.683 37.0144 37.4294 38.268 37.4294 39.8144C37.4294 41.3608 38.683 42.6144 40.2294 42.6144C41.7757 42.6144 43.0294 41.3608 43.0294 39.8144C43.0294 38.268 41.7758 37.0144 40.2294 37.0144ZM36.7094 39.8144C36.7094 37.8704 38.2853 36.2944 40.2294 36.2944C42.1734 36.2944 43.7494 37.8704 43.7494 39.8144C43.7494 41.7585 42.1734 43.3344 40.2294 43.3344C38.2853 43.3344 36.7094 41.7585 36.7094 39.8144Z" fill="white"/>
<path d="M40.2293 41.0682C40.9215 41.0682 41.4827 40.5071 41.4827 39.8149C41.4827 39.1227 40.9215 38.5615 40.2293 38.5615C39.5371 38.5615 38.976 39.1227 38.976 39.8149C38.976 40.5071 39.5371 41.0682 40.2293 41.0682Z" fill="#00B4E4"/>
<path fill-rule="evenodd" clip-rule="evenodd" d="M40.2294 38.9212C39.736 38.9212 39.336 39.3211 39.336 39.8145C39.336 40.3079 39.736 40.7078 40.2294 40.7078C40.7227 40.7078 41.1227 40.3079 41.1227 39.8145C41.1227 39.3211 40.7227 38.9212 40.2294 38.9212ZM38.616 39.8145C38.616 38.9235 39.3383 38.2012 40.2294 38.2012C41.1204 38.2012 41.8427 38.9235 41.8427 39.8145C41.8427 40.7055 41.1204 41.4278 40.2294 41.4278C39.3383 41.4278 38.616 40.7055 38.616 39.8145Z" fill="white"/>
<path fill-rule="evenodd" clip-rule="evenodd" d="M7.9293 5.57059C6.3829 5.57059 5.1293 6.82419 5.1293 8.37059C5.1293 9.91698 6.3829 11.1706 7.9293 11.1706C9.4757 11.1706 10.7293 9.91698 10.7293 8.37059C10.7293 6.82419 9.4757 5.57059 7.9293 5.57059ZM4.4093 8.37059C4.4093 6.42654 5.98526 4.85059 7.9293 4.85059C9.87334 4.85059 11.4493 6.42654 11.4493 8.37059C11.4493 10.3146 9.87334 11.8906 7.9293 11.8906C5.98526 11.8906 4.4093 10.3146 4.4093 8.37059Z" fill="white"/>
<path d="M7.92936 9.62385C8.62156 9.62385 9.18269 9.06272 9.18269 8.37052C9.18269 7.67832 8.62156 7.11719 7.92936 7.11719C7.23716 7.11719 6.67603 7.67832 6.67603 8.37052C6.67603 9.06272 7.23716 9.62385 7.92936 9.62385Z" fill="#00B4E4"/>
<path fill-rule="evenodd" clip-rule="evenodd" d="M7.92931 7.47732C7.43594 7.47732 7.03598 7.87728 7.03598 8.37066C7.03598 8.86403 7.43594 9.26399 7.92931 9.26399C8.42269 9.26399 8.82265 8.86403 8.82265 8.37066C8.82265 7.87728 8.42269 7.47732 7.92931 7.47732ZM6.31598 8.37066C6.31598 7.47964 7.03829 6.75732 7.92931 6.75732C8.82033 6.75732 9.54265 7.47964 9.54265 8.37066C9.54265 9.26168 8.82033 9.98399 7.92931 9.98399C7.03829 9.98399 6.31598 9.26168 6.31598 8.37066Z" fill="white"/>
<path fill-rule="evenodd" clip-rule="evenodd" d="M8.996 3.75711C8.80858 3.75711 8.62884 3.83156 8.49631 3.96409C8.36379 4.09661 8.28934 4.27636 8.28934 4.46378V5.21044H7.56934V4.46378C7.56934 4.0854 7.71964 3.72252 7.9872 3.45497C8.25475 3.18742 8.61763 3.03711 8.996 3.03711H22.9333C23.3117 3.03711 23.6746 3.18742 23.9421 3.45497C24.2097 3.72252 24.36 4.0854 24.36 4.46378V9.79711H23.64V4.46378C23.64 4.27636 23.5656 4.09661 23.433 3.96409C23.3005 3.83156 23.1208 3.75711 22.9333 3.75711H8.996Z" fill="white"/>
<path fill-rule="evenodd" clip-rule="evenodd" d="M37.028 2.62381C35.4816 2.62381 34.228 3.87741 34.228 5.42381C34.228 6.97021 35.4816 8.22381 37.028 8.22381C38.5744 8.22381 39.828 6.97021 39.828 5.42381C39.828 3.87741 38.5744 2.62381 37.028 2.62381ZM33.508 5.42381C33.508 3.47977 35.084 1.90381 37.028 1.90381C38.972 1.90381 40.548 3.47977 40.548 5.42381C40.548 7.36785 38.972 8.94381 37.028 8.94381C35.084 8.94381 33.508 7.36785 33.508 5.42381Z" fill="white"/>
<path d="M37.028 6.67757C37.7202 6.67757 38.2813 6.11643 38.2813 5.42423C38.2813 4.73203 37.7202 4.1709 37.028 4.1709C36.3358 4.1709 35.7747 4.73203 35.7747 5.42423C35.7747 6.11643 36.3358 6.67757 37.028 6.67757Z" fill="#00B4E4"/>
<path fill-rule="evenodd" clip-rule="evenodd" d="M37.028 4.53055C36.5346 4.53055 36.1347 4.93051 36.1347 5.42388C36.1347 5.91725 36.5346 6.31721 37.028 6.31721C37.5214 6.31721 37.9213 5.91725 37.9213 5.42388C37.9213 4.93051 37.5214 4.53055 37.028 4.53055ZM35.4147 5.42388C35.4147 4.53286 36.137 3.81055 37.028 3.81055C37.919 3.81055 38.6413 4.53286 38.6413 5.42388C38.6413 6.3149 37.919 7.03721 37.028 7.03721C36.137 7.03721 35.4147 6.3149 35.4147 5.42388Z" fill="white"/>
<path fill-rule="evenodd" clip-rule="evenodd" d="M40.9333 5.78396H40.188V5.06396H40.9333C41.3117 5.06396 41.6746 5.21427 41.9421 5.48183C42.2097 5.74938 42.36 6.11226 42.36 6.49063V20.4266C42.36 20.805 42.2097 21.1679 41.9421 21.4354C41.6746 21.703 41.3117 21.8533 40.9333 21.8533H35.6V21.1333H40.9333C41.1207 21.1333 41.3005 21.0588 41.433 20.9263C41.5655 20.7938 41.64 20.6141 41.64 20.4266V6.49063C41.64 6.30321 41.5655 6.12347 41.433 5.99094C41.3005 5.85842 41.1207 5.78396 40.9333 5.78396Z" fill="white"/>
<path fill-rule="evenodd" clip-rule="evenodd" d="M24.52 38.2026V43.536C24.52 43.7234 24.5944 43.9031 24.727 44.0357C24.8595 44.1682 25.0392 44.2426 25.2267 44.2426H39.1627C39.3501 44.2426 39.5298 44.1682 39.6623 44.0357C39.7949 43.9031 39.8693 43.7234 39.8693 43.536V42.7893H40.5893V43.536C40.5893 43.9143 40.439 44.2772 40.1715 44.5448C39.9039 44.8123 39.541 44.9626 39.1627 44.9626H25.2267C24.8483 44.9626 24.4854 44.8123 24.2179 44.5448C23.9503 44.2772 23.8 43.9143 23.8 43.536V38.2026H24.52Z" fill="white"/>
<path fill-rule="evenodd" clip-rule="evenodd" d="M11.0813 40.3094C9.53494 40.3094 8.28134 41.563 8.28134 43.1094C8.28134 44.6558 9.53494 45.9094 11.0813 45.9094C12.6277 45.9094 13.8813 44.6558 13.8813 43.1094C13.8813 41.563 12.6277 40.3094 11.0813 40.3094ZM7.56134 43.1094C7.56134 41.1653 9.1373 39.5894 11.0813 39.5894C13.0254 39.5894 14.6013 41.1653 14.6013 43.1094C14.6013 45.0534 13.0254 46.6294 11.0813 46.6294C9.1373 46.6294 7.56134 45.0534 7.56134 43.1094Z" fill="white"/>
<path d="M11.0813 44.3626C11.7735 44.3626 12.3347 43.8015 12.3347 43.1093C12.3347 42.4171 11.7735 41.856 11.0813 41.856C10.3891 41.856 9.828 42.4171 9.828 43.1093C9.828 43.8015 10.3891 44.3626 11.0813 44.3626Z" fill="#00B4E4"/>
<path fill-rule="evenodd" clip-rule="evenodd" d="M11.0814 42.2161C10.588 42.2161 10.188 42.6161 10.188 43.1094C10.188 43.6028 10.588 44.0028 11.0814 44.0028C11.5747 44.0028 11.9747 43.6028 11.9747 43.1094C11.9747 42.6161 11.5747 42.2161 11.0814 42.2161ZM9.46802 43.1094C9.46802 42.2184 10.1903 41.4961 11.0814 41.4961C11.9724 41.4961 12.6947 42.2184 12.6947 43.1094C12.6947 44.0004 11.9724 44.7228 11.0814 44.7228C10.1903 44.7228 9.46802 44.0004 9.46802 43.1094Z" fill="white"/>
<path fill-rule="evenodd" clip-rule="evenodd" d="M7.36002 27.3987C7.1726 27.3987 6.99285 27.4732 6.86033 27.6057C6.7278 27.7382 6.65335 27.918 6.65335 28.1054V42.0427C6.65335 42.2301 6.7278 42.4099 6.86033 42.5424C6.99285 42.6749 7.1726 42.7494 7.36002 42.7494H8.10668V43.4694H7.36002C6.98164 43.4694 6.61876 43.3191 6.35121 43.0515C6.08366 42.784 5.93335 42.4211 5.93335 42.0427V28.1054C5.93335 27.727 6.08366 27.3641 6.35121 27.0966C6.61876 26.829 6.98164 26.6787 7.36002 26.6787H12.6933V27.3987H7.36002Z" fill="white"/>
<defs>
<linearGradient id="paint0_linear_26_4889" x1="29.7147" y1="11.3585" x2="17.1987" y2="27.1985" gradientUnits="userSpaceOnUse">
<stop stop-color="#00DE8E"/>
<stop offset="1" stop-color="#00A7FF"/>
</linearGradient>
<linearGradient id="paint1_linear_26_4889" x1="33.9467" y1="14.7011" x2="21.4307" y2="30.5411" gradientUnits="userSpaceOnUse">
<stop stop-color="#00DE8E"/>
<stop offset="1" stop-color="#00A7FF"/>
</linearGradient>
<linearGradient id="paint2_linear_26_4889" x1="31.292" y1="12.6055" x2="18.7774" y2="28.4455" gradientUnits="userSpaceOnUse">
<stop stop-color="#00DE8E"/>
<stop offset="1" stop-color="#00A7FF"/>
</linearGradient>
</defs>
</svg>
