<svg width="48" height="48" viewBox="0 0 48 48" fill="none" xmlns="http://www.w3.org/2000/svg">
<path fill-rule="evenodd" clip-rule="evenodd" d="M11.0266 28.1334C11.0266 29.7018 12.2982 30.9734 13.8666 30.9734H34.1333C35.7018 30.9734 36.9733 29.7018 36.9733 28.1334V19.8667C36.9733 18.2982 35.7018 17.0267 34.1333 17.0267H13.8666C12.2982 17.0267 11.0266 18.2982 11.0266 19.8667V28.1334ZM13.8666 31.6934C11.9005 31.6934 10.3066 30.0995 10.3066 28.1334V19.8667C10.3066 17.9006 11.9005 16.3067 13.8666 16.3067H34.1333C36.0994 16.3067 37.6933 17.9006 37.6933 19.8667V28.1334C37.6933 30.0995 36.0994 31.6934 34.1333 31.6934H13.8666Z" fill="white"/>
<path fill-rule="evenodd" clip-rule="evenodd" d="M20.8399 4.31717C19.2935 4.31717 18.0399 5.57077 18.0399 7.11717C18.0399 8.66356 19.2935 9.91717 20.8399 9.91717C22.3863 9.91717 23.6399 8.66356 23.6399 7.11717C23.6399 5.57077 22.3863 4.31717 20.8399 4.31717ZM17.3199 7.11717C17.3199 5.17313 18.8959 3.59717 20.8399 3.59717C22.784 3.59717 24.3599 5.17313 24.3599 7.11717C24.3599 9.06121 22.784 10.6372 20.8399 10.6372C18.8959 10.6372 17.3199 9.06121 17.3199 7.11717Z" fill="white"/>
<path d="M20.84 8.37044C21.5322 8.37044 22.0933 7.8093 22.0933 7.1171C22.0933 6.42491 21.5322 5.86377 20.84 5.86377C20.1478 5.86377 19.5867 6.42491 19.5867 7.1171C19.5867 7.8093 20.1478 8.37044 20.84 8.37044Z" fill="#00B4E4"/>
<path fill-rule="evenodd" clip-rule="evenodd" d="M20.84 6.22391C20.3466 6.22391 19.9467 6.62387 19.9467 7.11724C19.9467 7.61061 20.3466 8.01057 20.84 8.01057C21.3334 8.01057 21.7334 7.61061 21.7334 7.11724C21.7334 6.62387 21.3334 6.22391 20.84 6.22391ZM19.2267 7.11724C19.2267 6.22622 19.949 5.50391 20.84 5.50391C21.731 5.50391 22.4534 6.22622 22.4534 7.11724C22.4534 8.00826 21.731 8.73057 20.84 8.73057C19.949 8.73057 19.2267 8.00826 19.2267 7.11724Z" fill="white"/>
<path fill-rule="evenodd" clip-rule="evenodd" d="M27.1627 37.9788C25.6163 37.9788 24.3627 39.2324 24.3627 40.7788C24.3627 42.3252 25.6163 43.5788 27.1627 43.5788C28.7091 43.5788 29.9627 42.3252 29.9627 40.7788C29.9627 39.2324 28.7091 37.9788 27.1627 37.9788ZM23.6427 40.7788C23.6427 38.8347 25.2187 37.2588 27.1627 37.2588C29.1067 37.2588 30.6827 38.8347 30.6827 40.7788C30.6827 42.7228 29.1067 44.2988 27.1627 44.2988C25.2187 44.2988 23.6427 42.7228 23.6427 40.7788Z" fill="white"/>
<path d="M27.1626 42.0321C27.8548 42.0321 28.416 41.4709 28.416 40.7787C28.416 40.0865 27.8548 39.5254 27.1626 39.5254C26.4704 39.5254 25.9093 40.0865 25.9093 40.7787C25.9093 41.4709 26.4704 42.0321 27.1626 42.0321Z" fill="#00B4E4"/>
<path fill-rule="evenodd" clip-rule="evenodd" d="M27.1626 39.8855C26.6693 39.8855 26.2693 40.2855 26.2693 40.7789C26.2693 41.2722 26.6693 41.6722 27.1626 41.6722C27.656 41.6722 28.056 41.2722 28.056 40.7789C28.056 40.2855 27.656 39.8855 27.1626 39.8855ZM25.5493 40.7789C25.5493 39.8878 26.2716 39.1655 27.1626 39.1655C28.0537 39.1655 28.776 39.8878 28.776 40.7789C28.776 41.6699 28.0537 42.3922 27.1626 42.3922C26.2716 42.3922 25.5493 41.6699 25.5493 40.7789Z" fill="white"/>
<path d="M20.1347 23.6227C21.0913 23.6227 21.8667 22.8472 21.8667 21.8907C21.8667 20.9341 21.0913 20.1587 20.1347 20.1587C19.1782 20.1587 18.4027 20.9341 18.4027 21.8907C18.4027 22.8472 19.1782 23.6227 20.1347 23.6227Z" fill="url(#paint0_linear_1_7388)"/>
<path d="M27.8707 23.6227C28.8272 23.6227 29.6027 22.8472 29.6027 21.8907C29.6027 20.9341 28.8272 20.1587 27.8707 20.1587C26.9141 20.1587 26.1387 20.9341 26.1387 21.8907C26.1387 22.8472 26.9141 23.6227 27.8707 23.6227Z" fill="url(#paint1_linear_1_7388)"/>
<path d="M27.4667 27.6801V26.8134C27.4667 26.3537 27.284 25.9128 26.959 25.5878C26.6339 25.2627 26.193 25.0801 25.7333 25.0801H22.2667C21.8069 25.0801 21.3661 25.2627 21.041 25.5878C20.7159 25.9128 20.5333 26.3537 20.5333 26.8134V27.6801" fill="url(#paint2_linear_1_7388)"/>
<path d="M29.6 24.5239H26.1333C25.9653 24.5244 25.7983 24.5491 25.6373 24.5973H26.14C26.7083 24.5973 27.2533 24.823 27.6551 25.2248C28.0569 25.6267 28.2827 26.1717 28.2827 26.7399V27.6733H31.3333V26.2573C31.3333 25.7976 31.1507 25.3567 30.8256 25.0316C30.5006 24.7065 30.0597 24.5239 29.6 24.5239Z" fill="url(#paint3_linear_1_7388)"/>
<path d="M24.0026 24.1798C24.9592 24.1798 25.7346 23.4044 25.7346 22.4478C25.7346 21.4913 24.9592 20.7158 24.0026 20.7158C23.0461 20.7158 22.2706 21.4913 22.2706 22.4478C22.2706 23.4044 23.0461 24.1798 24.0026 24.1798Z" fill="url(#paint4_linear_1_7388)"/>
<path d="M19.7173 26.7399C19.7173 26.458 19.7729 26.1788 19.881 25.9184C19.9891 25.658 20.1475 25.4215 20.3472 25.2225C20.5469 25.0234 20.7839 24.8657 21.0446 24.7584C21.3053 24.6512 21.5847 24.5964 21.8666 24.5973H22.3693C22.2084 24.5491 22.0413 24.5244 21.8733 24.5239H18.4C17.9403 24.5239 17.4994 24.7065 17.1743 25.0316C16.8492 25.3567 16.6666 25.7976 16.6666 26.2573V27.6799H19.7146L19.7173 26.7399Z" fill="url(#paint5_linear_1_7388)"/>
<path fill-rule="evenodd" clip-rule="evenodd" d="M5.96449 7.17518C6.23204 6.90763 6.59492 6.75732 6.9733 6.75732H17.68V7.47732H6.9733C6.78588 7.47732 6.60613 7.55178 6.47361 7.6843C6.34108 7.81683 6.26663 7.99657 6.26663 8.18399V22.9333C6.26663 23.1207 6.34108 23.3005 6.47361 23.433C6.60613 23.5655 6.78588 23.64 6.9733 23.64H10.6666V24.36H6.9733C6.59492 24.36 6.23204 24.2097 5.96449 23.9421C5.69694 23.6746 5.54663 23.3117 5.54663 22.9333V8.18399C5.54663 7.80562 5.69694 7.44274 5.96449 7.17518Z" fill="white"/>
<path fill-rule="evenodd" clip-rule="evenodd" d="M37.3333 23.6401H41.1653C41.5437 23.6401 41.9065 23.7904 42.1741 24.058C42.4416 24.3255 42.592 24.6884 42.592 25.0668V39.8161C42.592 40.1945 42.4416 40.5574 42.1741 40.8249C41.9065 41.0925 41.5437 41.2428 41.1653 41.2428H30.4586V40.5228H41.1653C41.3527 40.5228 41.5324 40.4484 41.665 40.3158C41.7975 40.1833 41.872 40.0036 41.872 39.8161V25.0668C41.872 24.8794 41.7975 24.6996 41.665 24.5671C41.5324 24.4346 41.3527 24.3601 41.1653 24.3601H37.3333V23.6401Z" fill="white"/>
<defs>
<linearGradient id="paint0_linear_1_7388" x1="28.852" y1="13.4867" x2="18.52" y2="23.448" gradientUnits="userSpaceOnUse">
<stop stop-color="#00DE8E"/>
<stop offset="1" stop-color="#00A7FF"/>
</linearGradient>
<linearGradient id="paint1_linear_1_7388" x1="32.5787" y1="17.352" x2="22.2467" y2="27.3134" gradientUnits="userSpaceOnUse">
<stop stop-color="#00DE8E"/>
<stop offset="1" stop-color="#00A7FF"/>
</linearGradient>
<linearGradient id="paint2_linear_1_7388" x1="33.208" y1="18.0054" x2="22.8747" y2="27.9654" gradientUnits="userSpaceOnUse">
<stop stop-color="#00DE8E"/>
<stop offset="1" stop-color="#00A7FF"/>
</linearGradient>
<linearGradient id="paint3_linear_1_7388" x1="33.1187" y1="21.6759" x2="26.8813" y2="27.6879" gradientUnits="userSpaceOnUse">
<stop stop-color="#00DE8E"/>
<stop offset="1" stop-color="#00A7FF"/>
</linearGradient>
<linearGradient id="paint4_linear_1_7388" x1="30.9946" y1="15.7078" x2="20.6613" y2="25.6691" gradientUnits="userSpaceOnUse">
<stop stop-color="#00DE8E"/>
<stop offset="1" stop-color="#00A7FF"/>
</linearGradient>
<linearGradient id="paint5_linear_1_7388" x1="30.344" y1="14.8853" x2="19.7346" y2="25.1146" gradientUnits="userSpaceOnUse">
<stop stop-color="#00DE8E"/>
<stop offset="1" stop-color="#00A7FF"/>
</linearGradient>
</defs>
</svg>
