<svg width="48" height="48" viewBox="0 0 48 48" fill="none" xmlns="http://www.w3.org/2000/svg">
<path fill-rule="evenodd" clip-rule="evenodd" d="M5.99063 31.192C5.99063 32.7604 7.26214 34.032 8.83063 34.032H38.9733C40.5418 34.032 41.8133 32.7604 41.8133 31.192V16.808C41.8133 15.2395 40.5418 13.968 38.9733 13.968L8.83063 13.968C7.26214 13.968 5.99063 15.2395 5.99063 16.808L5.99063 31.192ZM8.83063 34.752C6.8645 34.752 5.27063 33.1581 5.27063 31.192L5.27063 16.808C5.27063 14.8418 6.8645 13.248 8.83063 13.248L38.9733 13.248C40.9394 13.248 42.5333 14.8418 42.5333 16.808V31.192C42.5333 33.1581 40.9394 34.752 38.9733 34.752H8.83063Z" fill="white"/>
<path fill-rule="evenodd" clip-rule="evenodd" d="M9.46128 2.54812C7.91489 2.54812 6.66128 3.80173 6.66128 5.34812C6.66128 6.89452 7.91489 8.14812 9.46128 8.14812C11.0077 8.14812 12.2613 6.89452 12.2613 5.34812C12.2613 3.80173 11.0077 2.54812 9.46128 2.54812ZM5.94128 5.34812C5.94128 3.40408 7.51724 1.82812 9.46128 1.82812C11.4053 1.82812 12.9813 3.40408 12.9813 5.34812C12.9813 7.29217 11.4053 8.86812 9.46128 8.86812C7.51724 8.86812 5.94128 7.29217 5.94128 5.34812Z" fill="white"/>
<path fill-rule="evenodd" clip-rule="evenodd" d="M9.10132 13.3708V8.36816H9.82132V13.3708H9.10132Z" fill="white"/>
<path d="M9.46134 6.60139C10.1535 6.60139 10.7147 6.04026 10.7147 5.34806C10.7147 4.65586 10.1535 4.09473 9.46134 4.09473C8.76914 4.09473 8.20801 4.65586 8.20801 5.34806C8.20801 6.04026 8.76914 6.60139 9.46134 6.60139Z" fill="#00B4E4"/>
<path fill-rule="evenodd" clip-rule="evenodd" d="M9.46136 4.45486C8.96798 4.45486 8.56802 4.85482 8.56802 5.3482C8.56802 5.84157 8.96798 6.24153 9.46136 6.24153C9.95473 6.24153 10.3547 5.84157 10.3547 5.3482C10.3547 4.85482 9.95473 4.45486 9.46136 4.45486ZM7.84802 5.3482C7.84802 4.45718 8.57034 3.73486 9.46136 3.73486C10.3524 3.73486 11.0747 4.45718 11.0747 5.3482C11.0747 6.23922 10.3524 6.96153 9.46136 6.96153C8.57034 6.96153 7.84802 6.23922 7.84802 5.3482Z" fill="white"/>
<path fill-rule="evenodd" clip-rule="evenodd" d="M38.3214 39.6145C36.775 39.6145 35.5214 40.8681 35.5214 42.4145C35.5214 43.9609 36.775 45.2145 38.3214 45.2145C39.8678 45.2145 41.1214 43.9609 41.1214 42.4145C41.1214 40.8681 39.8678 39.6145 38.3214 39.6145ZM34.8014 42.4145C34.8014 40.4705 36.3774 38.8945 38.3214 38.8945C40.2654 38.8945 41.8414 40.4705 41.8414 42.4145C41.8414 44.3586 40.2654 45.9345 38.3214 45.9345C36.3774 45.9345 34.8014 44.3586 34.8014 42.4145Z" fill="white"/>
<path fill-rule="evenodd" clip-rule="evenodd" d="M38.6813 34.3921V39.3948H37.9613V34.3921H38.6813Z" fill="white"/>
<path d="M38.3213 43.6678C39.0135 43.6678 39.5747 43.1067 39.5747 42.4145C39.5747 41.7223 39.0135 41.1611 38.3213 41.1611C37.6291 41.1611 37.068 41.7223 37.068 42.4145C37.068 43.1067 37.6291 43.6678 38.3213 43.6678Z" fill="#00B4E4"/>
<path fill-rule="evenodd" clip-rule="evenodd" d="M38.3213 41.5213C37.828 41.5213 37.428 41.9212 37.428 42.4146C37.428 42.908 37.828 43.3079 38.3213 43.3079C38.8147 43.3079 39.2147 42.908 39.2147 42.4146C39.2147 41.9212 38.8147 41.5213 38.3213 41.5213ZM36.708 42.4146C36.708 41.5236 37.4303 40.8013 38.3213 40.8013C39.2124 40.8013 39.9347 41.5236 39.9347 42.4146C39.9347 43.3056 39.2124 44.0279 38.3213 44.0279C37.4303 44.0279 36.708 43.3056 36.708 42.4146Z" fill="white"/>
<path fill-rule="evenodd" clip-rule="evenodd" d="M13.0133 35.7135C13.0133 35.5147 13.1745 35.3535 13.3733 35.3535H34.6266C34.8255 35.3535 34.9866 35.5147 34.9866 35.7135C34.9866 35.9123 34.8255 36.0735 34.6266 36.0735H13.3733C13.1745 36.0735 13.0133 35.9123 13.0133 35.7135Z" fill="white"/>
<path d="M18.5507 27.4665C18.3361 27.4669 18.128 27.3935 17.9613 27.2585L15.3333 25.1358C15.1658 24.9982 15.0309 24.8252 14.9383 24.6292C14.8457 24.4333 14.7976 24.2192 14.7976 24.0025C14.7976 23.7857 14.8457 23.5716 14.9383 23.3757C15.0309 23.1797 15.1658 23.0067 15.3333 22.8691L17.9627 20.7465C18.1572 20.59 18.4058 20.5172 18.654 20.5441C18.9022 20.5709 19.1295 20.6953 19.286 20.8898C19.4425 21.0843 19.5153 21.333 19.4884 21.5811C19.4615 21.8293 19.3372 22.0566 19.1427 22.2131L16.916 23.9998L19.1413 25.7971C19.2958 25.9175 19.4085 26.0835 19.4634 26.2715C19.5184 26.4595 19.5128 26.66 19.4475 26.8446C19.3821 27.0292 19.2604 27.1887 19.0994 27.3003C18.9385 27.4119 18.7465 27.47 18.5507 27.4665Z" fill="url(#paint0_linear_26_4875)"/>
<path d="M29.4453 27.4878C29.25 27.4912 29.0584 27.4331 28.8978 27.3219C28.7371 27.2106 28.6154 27.0517 28.5499 26.8676C28.4844 26.6835 28.4783 26.4835 28.5325 26.2957C28.5867 26.108 28.6984 25.942 28.852 25.8211L31.088 23.9998L28.852 22.1785C28.6589 22.0213 28.5362 21.7938 28.5108 21.5462C28.4854 21.2985 28.5595 21.0509 28.7167 20.8578C28.8739 20.6647 29.1013 20.542 29.349 20.5166C29.5967 20.4912 29.8443 20.5653 30.0373 20.7225L32.6667 22.8678C32.8355 23.0045 32.9716 23.1773 33.065 23.3733C33.1585 23.5694 33.207 23.7839 33.207 24.0011C33.207 24.2184 33.1585 24.4328 33.065 24.6289C32.9716 24.825 32.8355 24.9977 32.6667 25.1345L30.032 27.2798C29.866 27.4142 29.6589 27.4876 29.4453 27.4878Z" fill="url(#paint1_linear_26_4875)"/>
<path d="M22.5706 28.0001C22.4125 28.0013 22.2567 27.9624 22.1178 27.887C21.9789 27.8115 21.8614 27.702 21.7764 27.5688C21.6914 27.4355 21.6416 27.2828 21.6317 27.125C21.6218 26.9672 21.6522 26.8096 21.72 26.6667L24.5733 20.5454C24.6258 20.4337 24.6998 20.3334 24.7911 20.2503C24.8824 20.1672 24.9892 20.1029 25.1053 20.061C25.2214 20.0192 25.3447 20.0006 25.468 20.0064C25.5913 20.0122 25.7122 20.0422 25.824 20.0947C25.9357 20.1473 26.0359 20.2213 26.119 20.3126C26.2021 20.4038 26.2665 20.5106 26.3083 20.6267C26.3502 20.7429 26.3687 20.8661 26.3629 20.9894C26.3572 21.1127 26.3272 21.2337 26.2746 21.3454L23.4226 27.4667C23.3463 27.6276 23.2255 27.7634 23.0746 27.8579C22.9236 27.9524 22.7487 28.0017 22.5706 28.0001Z" fill="url(#paint2_linear_26_4875)"/>
<defs>
<linearGradient id="paint0_linear_26_4875" x1="28.3427" y1="13.9518" x2="18.3773" y2="23.9171" gradientUnits="userSpaceOnUse">
<stop stop-color="#00DE8E"/>
<stop offset="1" stop-color="#00A7FF"/>
</linearGradient>
<linearGradient id="paint1_linear_26_4875" x1="34.0413" y1="19.6505" x2="24.076" y2="29.6158" gradientUnits="userSpaceOnUse">
<stop stop-color="#00DE8E"/>
<stop offset="1" stop-color="#00A7FF"/>
</linearGradient>
<linearGradient id="paint2_linear_26_4875" x1="31.1946" y1="16.8041" x2="21.2293" y2="26.7694" gradientUnits="userSpaceOnUse">
<stop stop-color="#00DE8E"/>
<stop offset="1" stop-color="#00A7FF"/>
</linearGradient>
</defs>
</svg>
