<svg width="463" height="586" viewBox="0 0 463 586" fill="none" xmlns="http://www.w3.org/2000/svg">
<path d="M285.668 149.3H176.328C163.073 149.3 152.328 160.045 152.328 173.3V412.71C152.328 425.965 163.073 436.71 176.328 436.71H285.668C298.923 436.71 309.668 425.965 309.668 412.71V173.3C309.668 160.045 298.923 149.3 285.668 149.3Z" stroke="white" stroke-width="3" stroke-miterlimit="10"/>
<path d="M276 283H275.15C273.541 282.994 271.969 282.517 270.628 281.629C269.286 280.74 268.234 279.479 267.6 278V277.6C266.934 276.092 266.736 274.419 267.03 272.797C267.324 271.175 268.097 269.679 269.25 268.5L269.55 268.2C271.425 266.325 272.478 263.782 272.478 261.13C272.478 258.479 271.425 255.936 269.55 254.06C267.675 252.186 265.132 251.132 262.48 251.132C259.828 251.132 257.285 252.186 255.41 254.06L255.11 254.36C253.94 255.49 252.465 256.252 250.867 256.553C249.269 256.853 247.618 256.679 246.118 256.051C244.618 255.424 243.335 254.37 242.427 253.021C241.519 251.672 241.026 250.086 241.01 248.46V248C241.01 245.348 239.956 242.805 238.081 240.929C236.206 239.054 233.662 238 231.01 238C228.358 238 225.814 239.054 223.939 240.929C222.064 242.805 221.01 245.348 221.01 248V248.85C221.004 250.459 220.527 252.031 219.638 253.373C218.75 254.714 217.489 255.766 216.01 256.4H215.61C214.102 257.066 212.429 257.264 210.807 256.97C209.185 256.676 207.688 255.903 206.51 254.75L206.21 254.45C204.335 252.576 201.792 251.522 199.14 251.522C196.488 251.522 193.945 252.576 192.07 254.45C190.195 256.326 189.142 258.869 189.142 261.52C189.142 264.172 190.195 266.715 192.07 268.59L192.37 268.89C193.478 270.099 194.221 271.597 194.511 273.211C194.801 274.825 194.627 276.489 194.009 278.008C193.391 279.527 192.354 280.839 191.02 281.792C189.685 282.745 188.107 283.299 186.47 283.39H186C183.348 283.39 180.804 284.444 178.929 286.319C177.054 288.195 176 290.738 176 293.39C176 296.042 177.054 298.586 178.929 300.461C180.804 302.337 183.348 303.39 186 303.39H186.85C188.476 303.407 190.062 303.899 191.411 304.807C192.76 305.715 193.813 306.998 194.441 308.498C195.069 309.998 195.243 311.649 194.943 313.248C194.642 314.846 193.88 316.321 192.75 317.49L192.45 317.79C190.575 319.666 189.522 322.209 189.522 324.86C189.522 327.512 190.575 330.055 192.45 331.93C194.325 333.805 196.868 334.858 199.52 334.858C202.172 334.858 204.715 333.805 206.59 331.93L206.89 331.63C208.099 330.522 209.597 329.779 211.211 329.489C212.825 329.199 214.488 329.373 216.007 329.991C217.526 330.609 218.839 331.646 219.791 332.98C220.744 334.315 221.299 335.893 221.39 337.53V338C221.39 340.652 222.444 343.196 224.319 345.071C226.194 346.947 228.738 348 231.39 348C234.042 348 236.586 346.947 238.461 345.071C240.336 343.196 241.39 340.652 241.39 338V337.15C241.406 335.524 241.899 333.939 242.807 332.59C243.715 331.24 244.998 330.187 246.498 329.559C247.998 328.931 249.649 328.757 251.247 329.058C252.845 329.358 254.32 330.12 255.49 331.25L255.79 331.55C257.665 333.425 260.208 334.478 262.86 334.478C265.512 334.478 268.055 333.425 269.93 331.55C271.805 329.675 272.858 327.132 272.858 324.48C272.858 321.829 271.805 319.286 269.93 317.41L269.63 317.11C268.5 315.941 267.738 314.466 267.437 312.868C267.137 311.269 267.311 309.618 267.939 308.118C268.567 306.618 269.62 305.335 270.969 304.427C272.318 303.519 273.904 303.027 275.53 303.01H276C278.652 303.01 281.196 301.957 283.071 300.081C284.946 298.206 286 295.662 286 293.01C286 290.358 284.946 287.815 283.071 285.939C281.196 284.064 278.652 283.01 276 283.01V283ZM231 308C228.033 308 225.133 307.121 222.666 305.472C220.2 303.824 218.277 301.481 217.142 298.74C216.006 296 215.709 292.984 216.288 290.074C216.867 287.164 218.296 284.491 220.393 282.394C222.491 280.296 225.164 278.867 228.074 278.288C230.983 277.71 233.999 278.007 236.74 279.142C239.481 280.277 241.824 282.2 243.472 284.667C245.12 287.133 246 290.034 246 293C246 296.978 244.42 300.794 241.607 303.607C238.794 306.42 234.978 308 231 308Z" fill="url(#paint0_linear_1_7354)"/>
<path d="M347.192 227.7H309.672" stroke="white" stroke-width="3" stroke-miterlimit="10"/>
<path d="M384 546L297.5 546C284.245 546 273.5 535.255 273.5 522L273.5 437" stroke="white" stroke-width="3" stroke-miterlimit="10"/>
<path d="M207.77 167.07H252.77" stroke="white" stroke-width="3" stroke-miterlimit="10" stroke-linecap="round"/>
<path d="M362.333 220C361.98 220 361.641 220.141 361.391 220.391C361.14 220.641 361 220.98 361 221.334V234.667C361 235.021 361.14 235.36 361.391 235.61C361.641 235.86 361.98 236 362.333 236C362.687 236 363.026 235.86 363.276 235.61C363.526 235.36 363.667 235.021 363.667 234.667V221.334C363.667 220.98 363.526 220.641 363.276 220.391C363.026 220.141 362.687 220 362.333 220ZM395.251 207.728L398.112 203.403C398.307 203.108 398.377 202.748 398.307 202.401C398.236 202.055 398.031 201.75 397.736 201.555C397.441 201.36 397.081 201.29 396.734 201.36C396.388 201.431 396.083 201.636 395.888 201.931L393.061 206.203C390.619 204.761 387.836 204.001 385 204.001C382.164 204.001 379.381 204.761 376.939 206.203L374.112 201.931C373.917 201.636 373.612 201.431 373.266 201.36C372.919 201.29 372.559 201.36 372.264 201.555C371.969 201.75 371.764 202.055 371.693 202.401C371.623 202.748 371.693 203.108 371.888 203.403L374.749 207.728C372.95 209.227 371.502 211.103 370.508 213.224C369.515 215.345 369 217.658 369 220V242.667C369 243.021 369.14 243.36 369.391 243.61C369.641 243.86 369.98 244 370.333 244H378.333V253.334C378.333 253.687 378.474 254.026 378.724 254.276C378.974 254.527 379.313 254.667 379.667 254.667C380.02 254.667 380.359 254.527 380.609 254.276C380.86 254.026 381 253.687 381 253.334V244H389V253.334C389 253.687 389.14 254.026 389.391 254.276C389.641 254.527 389.98 254.667 390.333 254.667C390.687 254.667 391.026 254.527 391.276 254.276C391.526 254.026 391.667 253.687 391.667 253.334V244H399.667C400.02 244 400.359 243.86 400.609 243.61C400.86 243.36 401 243.021 401 242.667V220C401 217.658 400.485 215.345 399.491 213.224C398.498 211.104 397.05 209.227 395.251 207.728ZM398.333 241.334H371.667V222.667H398.333V241.334ZM371.667 220C371.667 216.464 373.071 213.073 375.572 210.572C378.072 208.072 381.464 206.667 385 206.667C388.536 206.667 391.928 208.072 394.428 210.572C396.929 213.073 398.333 216.464 398.333 220H371.667ZM407.667 220C407.313 220 406.974 220.141 406.724 220.391C406.474 220.641 406.333 220.98 406.333 221.334V234.667C406.333 235.021 406.474 235.36 406.724 235.61C406.974 235.86 407.313 236 407.667 236C408.02 236 408.359 235.86 408.609 235.61C408.86 235.36 409 235.021 409 234.667V221.334C409 220.98 408.86 220.641 408.609 220.391C408.359 220.141 408.02 220 407.667 220Z" fill="#01D2A6" stroke="#01D2A6"/>
<path d="M385 266C405.987 266 423 248.987 423 228C423 207.013 405.987 190 385 190C364.013 190 347 207.013 347 228C347 248.987 364.013 266 385 266Z" stroke="white" stroke-width="3" stroke-miterlimit="10"/>
<path d="M115.14 355.3L152.66 355.3" stroke="white" stroke-width="3" stroke-miterlimit="10"/>
<path d="M77 40.0003L170 40.0003C183.255 40.0003 194 50.7454 194 64.0003L194 149" stroke="white" stroke-width="3" stroke-miterlimit="10"/>
<path d="M78.3282 317C57.3413 317 40.3281 334.013 40.3281 355C40.3281 375.987 57.3413 393 78.3281 393C99.315 393 116.328 375.987 116.328 355C116.328 334.013 99.315 317 78.3282 317Z" stroke="white" stroke-width="3" stroke-miterlimit="10"/>
<path d="M440.724 532.974C441.215 532.269 441.445 531.372 441.258 530.421C440.783 528.008 437.962 526.942 435.988 528.298C429.341 523.457 420.082 522.288 411.975 526.961C397.342 535.397 397.342 556.603 411.975 565.039C426.609 573.476 445 562.873 445 546C445 540.996 443.382 536.542 440.724 532.974ZM412.823 563.575C399.315 555.787 399.315 536.213 412.823 528.426C420.256 524.14 428.739 525.177 434.866 529.571C433.987 531.311 434.772 533.592 436.805 534.278C437.737 534.592 438.669 534.483 439.443 534.089C441.847 537.364 443.308 541.433 443.308 546C443.308 561.575 426.331 571.362 412.823 563.575ZM412.846 546C412.828 539.599 415.787 535.872 423 535.846C429.609 535.823 433.15 539.067 433.154 546C433.158 552.275 430.243 556.233 423 556.154C415.637 556.074 412.864 552.076 412.846 546Z" fill="#01D2A6" stroke="#01D2A6"/>
<path d="M423 584C443.987 584 461 566.987 461 546C461 525.013 443.987 508 423 508C402.013 508 385 525.013 385 546C385 566.987 402.013 584 423 584Z" stroke="white" stroke-width="3" stroke-miterlimit="10"/>
<path d="M92.7125 355.481C92.6875 351.219 94.6187 348.006 98.5187 345.638C96.3375 342.513 93.0375 340.794 88.6875 340.463C84.5688 340.138 80.0625 342.863 78.4125 342.863C76.6687 342.863 72.6813 340.575 69.5438 340.575C63.0688 340.675 56.1875 345.738 56.1875 356.038C56.1875 359.081 56.7437 362.225 57.8562 365.463C59.3437 369.725 64.7062 380.169 70.3 380C73.225 379.931 75.2937 377.925 79.1 377.925C82.7937 377.925 84.7062 380 87.9688 380C93.6125 379.919 98.4625 370.425 99.875 366.15C92.3063 362.581 92.7125 355.7 92.7125 355.481ZM92.05 372.169C91.1562 373.413 90.2563 374.394 89.4313 375.025C88.775 375.525 88.2688 375.738 87.9313 375.75C87.3688 375.744 86.825 375.606 85.7625 375.2C85.6875 375.169 85.6063 375.138 85.5 375.1L85.225 374.994C84.1375 374.575 83.4875 374.35 82.6562 374.131C81.4937 373.831 80.3375 373.669 79.1 373.669C77.8375 373.669 76.65 373.825 75.4688 374.119C74.6 374.338 73.8687 374.581 72.8 374.981C72.7562 375 72.2938 375.175 72.1625 375.225C71.9438 375.306 71.775 375.369 71.6187 375.425C70.9688 375.65 70.5562 375.744 70.1875 375.75C70.1438 375.75 70.1063 375.744 70.075 375.738C70.0063 375.725 69.9188 375.7 69.8188 375.656C69.5375 375.544 69.2 375.338 68.8188 375.044C67.9438 374.363 66.9812 373.294 66 371.925C64.2812 369.513 62.6562 366.313 61.875 364.069C60.9125 361.269 60.4375 358.588 60.4375 356.031C60.4375 352.269 61.55 349.406 63.4625 347.463C65.1062 345.8 67.3188 344.869 69.575 344.819C69.9438 344.825 70.4813 344.913 71.1625 345.1C71.7 345.244 72.2875 345.438 73.0812 345.719C73.3187 345.806 74.1375 346.1 74.2375 346.138C74.7188 346.313 75.0812 346.438 75.4375 346.55C76.575 346.913 77.4562 347.113 78.4125 347.113C79.3812 347.113 80.2125 346.906 81.3937 346.5C81.8375 346.35 83.45 345.75 83.7375 345.65C85.3375 345.081 86.5187 344.775 87.5375 344.7C87.8375 344.675 88.1062 344.675 88.3625 344.694C89.7812 344.806 90.9938 345.088 92.025 345.556C89.675 348.269 88.4625 351.588 88.4688 355.456C88.45 356.375 88.525 357.438 88.7875 358.694C89.1875 360.6 89.95 362.488 91.1562 364.256C92.075 365.6 93.2125 366.813 94.575 367.869C93.8563 369.35 92.975 370.881 92.05 372.169ZM86.1437 336.419C89.3125 332.656 89.025 329.231 88.9313 328C86.1313 328.163 82.8937 329.906 81.05 332.05C79.0187 334.35 77.825 337.194 78.0812 340.4C81.1062 340.631 83.8687 339.075 86.1437 336.419Z" fill="#01D2A6"/>
<path d="M40 2.00024C19.0132 2.00024 2.00001 19.0134 2 40.0002C2 60.9871 19.0132 78.0002 40 78.0002C60.9868 78.0002 78 60.9871 78 40.0002C78 19.0134 60.9869 2.00024 40 2.00024Z" stroke="white" stroke-width="3" stroke-miterlimit="10"/>
<path d="M37.6081 35.8348C36.7924 36.3058 36.1346 37.0081 35.7181 37.8529C35.3015 38.6977 35.1448 39.647 35.2677 40.5809C35.3906 41.5147 35.7877 42.3912 36.4087 43.0994C37.0297 43.8076 37.8468 44.3157 38.7566 44.5596C39.6664 44.8034 40.6281 44.772 41.52 44.4694C42.412 44.1667 43.1942 43.6063 43.7677 42.8592C44.3412 42.112 44.6803 41.2115 44.742 40.2716C44.8038 39.3317 44.5855 38.3947 44.1147 37.5788C43.8021 37.037 43.3857 36.5621 42.8895 36.1812C42.3933 35.8003 41.8269 35.521 41.2227 35.359C40.6184 35.197 39.9882 35.1557 39.368 35.2374C38.7478 35.319 38.1498 35.522 37.6081 35.8348ZM58.9547 41.0028C58.6418 40.6455 58.3121 40.2873 57.9654 39.9282C58.2072 39.6722 58.4418 39.4171 58.6694 39.1628C62.9494 34.3522 64.7574 29.5255 63.0827 26.6268C61.4774 23.8455 56.7014 23.0162 50.7201 24.1788C50.1316 24.2944 49.5458 24.4242 48.9627 24.5682C48.8507 24.1842 48.7325 23.8019 48.6081 23.4215C46.5787 17.3068 43.3014 13.3308 39.9521 13.3335C36.7414 13.3335 33.6374 17.0588 31.6561 22.8215C31.4605 23.3904 31.2801 23.9628 31.1147 24.5388C30.7254 24.4428 30.3343 24.3539 29.9414 24.2722C23.6321 22.9788 18.5521 23.8322 16.8801 26.7362C15.2774 29.5175 16.9521 34.0695 20.9547 38.6615C21.3529 39.1148 21.7618 39.5593 22.1814 39.9948C21.6854 40.5015 21.2187 41.0108 20.7814 41.5175C16.8747 46.0455 15.2961 50.5202 16.8961 53.2908C18.5494 56.1548 23.5574 57.0908 29.6561 55.8908C30.1503 55.7931 30.6418 55.6828 31.1307 55.5602C31.3085 56.1842 31.5049 56.8037 31.7201 57.4188C33.6934 63.0642 36.7787 66.6668 39.9787 66.6668C43.2854 66.6668 46.5974 62.7922 48.6054 56.9095C48.7654 56.4455 48.9121 55.9628 49.0561 55.4668C49.6872 55.6233 50.3227 55.7619 50.9627 55.8828C56.8374 56.9948 61.5014 56.1228 63.0987 53.3495C64.7494 50.4828 63.0454 45.6775 58.9547 41.0028ZM18.8534 27.8722C19.8827 26.0855 24.0347 25.3868 29.4827 26.5068C29.8312 26.5779 30.1858 26.6579 30.5467 26.7468C30.0142 29.0998 29.6382 31.4855 29.4214 33.8882C27.4567 35.2697 25.5835 36.7768 23.8134 38.4002C23.4241 37.9966 23.0445 37.5833 22.6747 37.1602C19.2427 33.2295 17.8881 29.5495 18.8534 27.8722ZM29.2187 43.1468C27.8587 42.1148 26.5921 41.0588 25.4427 39.9975C26.5894 38.9415 27.8561 37.8908 29.2161 36.8615C29.1663 37.9086 29.1423 38.9566 29.1441 40.0055C29.1441 41.0544 29.1689 42.1015 29.2187 43.1468ZM29.2187 53.6535C26.9073 54.1683 24.5209 54.2532 22.1787 53.9042C21.5366 53.854 20.9117 53.6726 20.3424 53.3712C19.7732 53.0699 19.2719 52.655 18.8694 52.1522C17.8961 50.4722 19.1654 46.8775 22.5067 43.0055C22.9263 42.5202 23.3601 42.0473 23.8081 41.5868C25.579 43.2202 27.4559 44.7346 29.4267 46.1202C29.6457 48.5532 30.0252 50.9691 30.5627 53.3522C30.1183 53.4642 29.6694 53.5655 29.2161 53.6562M48.1494 32.2188C47.2552 31.6553 46.3503 31.1104 45.4347 30.5842C44.5316 30.0651 43.6187 29.5646 42.6961 29.0828C44.2129 28.4422 45.7606 27.877 47.3334 27.3895C47.6864 28.9845 47.9588 30.5964 48.1494 32.2188ZM33.8134 23.5602C35.5094 18.6268 38.0214 15.6135 39.9574 15.6135C42.0187 15.6108 44.6961 18.8615 46.4481 24.1388C46.5618 24.4837 46.6685 24.8304 46.7681 25.1788C44.4682 25.8916 42.2179 26.7557 40.0321 27.7655C37.8534 26.7433 35.6083 25.8694 33.3121 25.1495C33.4667 24.6162 33.6338 24.0864 33.8134 23.5602ZM32.7467 27.3575C34.3123 27.8503 35.852 28.4216 37.3601 29.0695C35.4898 30.0331 33.6694 31.0828 31.8987 32.2188C32.1121 30.5175 32.3974 28.8882 32.7467 27.3575ZM31.9014 47.7842C32.7849 48.3513 33.6818 48.8962 34.5921 49.4188C35.5201 49.9522 36.4596 50.4642 37.4107 50.9548C35.8919 51.6251 34.3396 52.217 32.7601 52.7282C32.393 51.0961 32.1065 49.447 31.9014 47.7868M46.4507 56.1762C45.7413 58.4349 44.6222 60.5438 43.1494 62.3975C42.7858 62.9289 42.317 63.3801 41.7721 63.7232C41.2272 64.0662 40.6178 64.2939 39.9814 64.3922C38.0374 64.3922 35.5601 61.4988 33.8747 56.6695C33.6756 56.0988 33.4925 55.5228 33.3254 54.9415C35.6326 54.1973 37.8866 53.2974 40.0721 52.2482C42.2765 53.2661 44.5454 54.1382 46.8641 54.8588C46.7361 55.3015 46.5983 55.7406 46.4507 56.1762ZM47.4161 52.6455C45.8228 52.1479 44.2547 51.573 42.7174 50.9228C43.6223 50.4482 44.5334 49.9459 45.4507 49.4162C46.3929 48.8722 47.3103 48.3148 48.2027 47.7442C48.0245 49.3903 47.7619 51.0263 47.4161 52.6455ZM48.6081 39.9975C48.6081 41.6171 48.5574 43.2348 48.4561 44.8508C47.1414 45.7415 45.7547 46.6108 44.3121 47.4428C42.8721 48.2722 41.4507 49.0348 40.0534 49.7255C38.5832 49.0215 37.1414 48.2624 35.7281 47.4482C34.3236 46.6393 32.9512 45.7779 31.6107 44.8642C31.4863 43.2464 31.4241 41.6268 31.4241 40.0055C31.4241 38.3859 31.4845 36.7673 31.6054 35.1495C34.2861 33.3193 37.1012 31.6942 40.0267 30.2882C41.4774 30.9939 42.9023 31.7504 44.3014 32.5575C45.7058 33.3646 47.0836 34.2171 48.4347 35.1148C48.5503 36.7397 48.6081 38.3673 48.6081 39.9975ZM51.1574 26.4162C56.2827 25.4215 60.1441 26.0908 61.1121 27.7682C62.1441 29.5548 60.6667 33.4962 56.9681 37.6508C56.7636 37.8802 56.5521 38.1104 56.3334 38.3415C54.532 36.713 52.6218 35.2091 50.6161 33.8402C50.4141 31.464 50.0533 29.1041 49.5361 26.7762C50.0872 26.6411 50.6276 26.5211 51.1574 26.4162ZM50.8107 36.7762C52.1642 37.764 53.4655 38.8214 54.7094 39.9442C53.4713 41.0849 52.1744 42.1601 50.8241 43.1655C50.8649 42.1095 50.8854 41.0535 50.8854 39.9975C50.8854 38.9237 50.8605 37.8499 50.8107 36.7762ZM61.1281 52.2135C60.1574 53.8962 56.4134 54.5975 51.3867 53.6482C50.8107 53.5397 50.2205 53.4099 49.6161 53.2588C50.1208 50.9008 50.4656 48.5114 50.6481 46.1068C52.6502 44.7149 54.5543 43.1868 56.3467 41.5335C56.6614 41.8588 56.9601 42.1824 57.2427 42.5042C58.8455 44.247 60.1138 46.2701 60.9841 48.4722C61.2626 49.0528 61.4191 49.6844 61.4438 50.3279C61.4686 50.9714 61.3611 51.6132 61.1281 52.2135Z" fill="#01D2A6"/>
<defs>
<linearGradient id="paint0_linear_1_7354" x1="311.7" y1="202.81" x2="216.59" y2="309.1" gradientUnits="userSpaceOnUse">
<stop stop-color="#00DE8E"/>
<stop offset="1" stop-color="#00A7FF"/>
</linearGradient>
</defs>
</svg>
