<svg width="48" height="48" viewBox="0 0 48 48" fill="none" xmlns="http://www.w3.org/2000/svg">
<path fill-rule="evenodd" clip-rule="evenodd" d="M13.8253 16.42C13.8253 17.9885 15.0969 19.26 16.6653 19.26H31.3347C32.9032 19.26 34.1747 17.9885 34.1747 16.42V10.4746C34.1747 8.90616 32.9032 7.63465 31.3347 7.63465L16.6653 7.63465C15.0969 7.63465 13.8253 8.90616 13.8253 10.4746V16.42ZM16.6653 19.98C14.6992 19.98 13.1053 18.3861 13.1053 16.42V10.4746C13.1053 8.50851 14.6992 6.91465 16.6653 6.91465L31.3347 6.91465C33.3008 6.91465 34.8947 8.50851 34.8947 10.4746V16.42C34.8947 18.3861 33.3008 19.98 31.3347 19.98H16.6653Z" fill="white"/>
<path fill-rule="evenodd" clip-rule="evenodd" d="M24.36 19.6201V37.7255H23.64V19.6201H24.36Z" fill="white"/>
<path fill-rule="evenodd" clip-rule="evenodd" d="M24 38.0852C22.4536 38.0852 21.2 39.3388 21.2 40.8852C21.2 42.4316 22.4536 43.6852 24 43.6852C25.5464 43.6852 26.8 42.4316 26.8 40.8852C26.8 39.3388 25.5464 38.0852 24 38.0852ZM20.48 40.8852C20.48 38.9412 22.0559 37.3652 24 37.3652C25.944 37.3652 27.52 38.9412 27.52 40.8852C27.52 42.8293 25.944 44.4052 24 44.4052C22.0559 44.4052 20.48 42.8293 20.48 40.8852Z" fill="white"/>
<path d="M24 42.1385C24.6922 42.1385 25.2534 41.5774 25.2534 40.8852C25.2534 40.193 24.6922 39.6318 24 39.6318C23.3078 39.6318 22.7467 40.193 22.7467 40.8852C22.7467 41.5774 23.3078 42.1385 24 42.1385Z" fill="#00B4E4"/>
<path fill-rule="evenodd" clip-rule="evenodd" d="M24.0001 39.992C23.5067 39.992 23.1067 40.3919 23.1067 40.8853C23.1067 41.3787 23.5067 41.7786 24.0001 41.7786C24.4934 41.7786 24.8934 41.3787 24.8934 40.8853C24.8934 40.3919 24.4934 39.992 24.0001 39.992ZM22.3867 40.8853C22.3867 39.9943 23.109 39.272 24.0001 39.272C24.8911 39.272 25.6134 39.9943 25.6134 40.8853C25.6134 41.7763 24.8911 42.4986 24.0001 42.4986C23.109 42.4986 22.3867 41.7763 22.3867 40.8853Z" fill="white"/>
<path fill-rule="evenodd" clip-rule="evenodd" d="M37.6947 34.4002C36.1483 34.4002 34.8947 35.6538 34.8947 37.2002C34.8947 38.7466 36.1483 40.0002 37.6947 40.0002C39.2411 40.0002 40.4947 38.7466 40.4947 37.2002C40.4947 35.6538 39.2411 34.4002 37.6947 34.4002ZM34.1747 37.2002C34.1747 35.2561 35.7506 33.6802 37.6947 33.6802C39.6387 33.6802 41.2147 35.2561 41.2147 37.2002C41.2147 39.1442 39.6387 40.7202 37.6947 40.7202C35.7506 40.7202 34.1747 39.1442 34.1747 37.2002Z" fill="white"/>
<path d="M37.6946 38.4534C38.3868 38.4534 38.9479 37.8923 38.9479 37.2001C38.9479 36.5079 38.3868 35.9468 37.6946 35.9468C37.0024 35.9468 36.4413 36.5079 36.4413 37.2001C36.4413 37.8923 37.0024 38.4534 37.6946 38.4534Z" fill="#00B4E4"/>
<path fill-rule="evenodd" clip-rule="evenodd" d="M37.6946 36.3069C37.2013 36.3069 36.8013 36.7069 36.8013 37.2002C36.8013 37.6936 37.2013 38.0936 37.6946 38.0936C38.188 38.0936 38.588 37.6936 38.588 37.2002C38.588 36.7069 38.188 36.3069 37.6946 36.3069ZM36.0813 37.2002C36.0813 36.3092 36.8036 35.5869 37.6946 35.5869C38.5857 35.5869 39.308 36.3092 39.308 37.2002C39.308 38.0913 38.5857 38.8136 37.6946 38.8136C36.8036 38.8136 36.0813 38.0913 36.0813 37.2002Z" fill="white"/>
<path fill-rule="evenodd" clip-rule="evenodd" d="M10.3053 34.4002C8.75888 34.4002 7.50528 35.6538 7.50528 37.2002C7.50528 38.7466 8.75888 40.0002 10.3053 40.0002C11.8517 40.0002 13.1053 38.7466 13.1053 37.2002C13.1053 35.6538 11.8517 34.4002 10.3053 34.4002ZM6.78528 37.2002C6.78528 35.2561 8.36124 33.6802 10.3053 33.6802C12.2493 33.6802 13.8253 35.2561 13.8253 37.2002C13.8253 39.1442 12.2493 40.7202 10.3053 40.7202C8.36124 40.7202 6.78528 39.1442 6.78528 37.2002Z" fill="white"/>
<path d="M10.3053 38.4534C10.9975 38.4534 11.5587 37.8923 11.5587 37.2001C11.5587 36.5079 10.9975 35.9468 10.3053 35.9468C9.61314 35.9468 9.052 36.5079 9.052 37.2001C9.052 37.8923 9.61314 38.4534 10.3053 38.4534Z" fill="#00B4E4"/>
<path fill-rule="evenodd" clip-rule="evenodd" d="M10.3054 36.3069C9.81198 36.3069 9.41202 36.7069 9.41202 37.2002C9.41202 37.6936 9.81198 38.0936 10.3054 38.0936C10.7987 38.0936 11.1987 37.6936 11.1987 37.2002C11.1987 36.7069 10.7987 36.3069 10.3054 36.3069ZM8.69202 37.2002C8.69202 36.3092 9.41433 35.5869 10.3054 35.5869C11.1964 35.5869 11.9187 36.3092 11.9187 37.2002C11.9187 38.0913 11.1964 38.8136 10.3054 38.8136C9.41433 38.8136 8.69202 38.0913 8.69202 37.2002Z" fill="white"/>
<path d="M28.6253 12.5215H28.06C27.516 10.4148 25.352 9.02147 23.244 9.56547C21.628 9.9828 20.5253 10.9681 20.336 12.5335H19.364C18.084 12.5335 16.9747 13.4935 16.8653 14.7695C16.8352 15.1099 16.8762 15.4528 16.9858 15.7765C17.0954 16.1002 17.2711 16.3976 17.5019 16.6497C17.7326 16.9017 18.0133 17.103 18.3261 17.2407C18.6389 17.3784 18.9769 17.4495 19.3187 17.4495H28.6813C29.0238 17.4494 29.3625 17.378 29.6758 17.2396C29.9892 17.1013 30.2702 16.8991 30.5009 16.646C30.7317 16.3929 30.9071 16.0945 31.016 15.7698C31.1249 15.445 31.1648 15.1012 31.1333 14.7601C31.0213 13.4815 29.9093 12.5215 28.6253 12.5215Z" fill="url(#paint0_linear_26_4831)"/>
<path fill-rule="evenodd" clip-rule="evenodd" d="M36.6266 25.4614C37.0777 25.4614 37.4434 25.7306 37.6804 26.0821C37.9186 26.4352 38.0533 26.9026 38.0533 27.4014V34.0401H37.3333V27.4014C37.3333 27.0256 37.2307 26.703 37.0835 26.4847C36.9356 26.2654 36.7684 26.1818 36.6276 26.1814C36.6273 26.1814 36.627 26.1814 36.6266 26.1814L11.3744 26.3441C11.3744 26.3441 11.3744 26.3441 11.3744 26.3441C11.2322 26.3451 11.0635 26.4303 10.9151 26.6503C10.7677 26.8687 10.6653 27.1901 10.6653 27.5628V34.0401H9.94531V27.5628C9.94531 27.0661 10.0803 26.6002 10.3182 26.2476C10.555 25.8967 10.9198 25.6271 11.3695 25.6241L36.6266 25.4614Z" fill="white"/>
<defs>
<linearGradient id="paint0_linear_26_4831" x1="32.3187" y1="4.67613" x2="21.3867" y2="18.2321" gradientUnits="userSpaceOnUse">
<stop stop-color="#00DE8E"/>
<stop offset="1" stop-color="#00A7FF"/>
</linearGradient>
</defs>
</svg>
