<svg width="277" height="333" viewBox="0 0 277 333" fill="none" xmlns="http://www.w3.org/2000/svg">
<g clip-path="url(#clip0_1_7429)">
<path d="M38 136L38 198C38 211.255 48.7452 222 62 222H214C227.255 222 238 211.255 238 198V136C238 122.745 227.255 112 214 112L62 112C48.7452 112 38 122.745 38 136Z" stroke="white" stroke-width="3" stroke-miterlimit="10"/>
<path d="M109.01 164.17C116.184 164.17 122 158.354 122 151.18C122 144.006 116.184 138.19 109.01 138.19C101.836 138.19 96.02 144.006 96.02 151.18C96.02 158.354 101.836 164.17 109.01 164.17Z" fill="url(#paint0_linear_1_7429)"/>
<path d="M167.03 164.17C174.204 164.17 180.02 158.354 180.02 151.18C180.02 144.006 174.204 138.19 167.03 138.19C159.856 138.19 154.04 144.006 154.04 151.18C154.04 158.354 159.856 164.17 167.03 164.17Z" fill="url(#paint1_linear_1_7429)"/>
<path d="M164 194.6V188.1C164 184.652 162.63 181.346 160.192 178.908C157.754 176.47 154.448 175.1 151 175.1H125C121.552 175.1 118.246 176.47 115.808 178.908C113.37 181.346 112 184.652 112 188.1V194.6" fill="url(#paint2_linear_1_7429)"/>
<path d="M180 170.93H154C152.74 170.933 151.487 171.118 150.28 171.48H154.05C158.312 171.48 162.4 173.173 165.413 176.187C168.427 179.2 170.12 183.288 170.12 187.55V194.55H193V183.93C193 180.482 191.63 177.176 189.192 174.738C186.754 172.3 183.448 170.93 180 170.93Z" fill="url(#paint3_linear_1_7429)"/>
<path d="M138.02 168.35C145.194 168.35 151.01 162.534 151.01 155.36C151.01 148.186 145.194 142.37 138.02 142.37C130.846 142.37 125.03 148.186 125.03 155.36C125.03 162.534 130.846 168.35 138.02 168.35Z" fill="url(#paint4_linear_1_7429)"/>
<path d="M105.88 187.55C105.88 185.435 106.297 183.342 107.108 181.389C107.919 179.436 109.107 177.662 110.604 176.169C112.102 174.676 113.879 173.493 115.835 172.689C117.79 171.884 119.885 171.473 122 171.48H125.77C124.563 171.118 123.31 170.933 122.05 170.93H96C92.5522 170.93 89.2456 172.3 86.8076 174.738C84.3696 177.176 83 180.482 83 183.93V194.6H105.86L105.88 187.55Z" fill="url(#paint5_linear_1_7429)"/>
<path d="M79.4993 40.38H10.3C8.17832 40.38 6.14349 41.2229 4.6432 42.7231C3.14291 44.2234 2.30005 46.2583 2.30005 48.38V159C2.30005 161.122 3.14291 163.157 4.6432 164.657C6.14349 166.157 8.17832 167 10.3 167H38" stroke="white" stroke-width="3" stroke-miterlimit="10"/>
<path d="M197.999 293.62H266.74C268.862 293.62 270.896 292.777 272.397 291.277C273.897 289.777 274.74 287.742 274.74 285.62V175C274.74 172.878 273.897 170.843 272.397 169.343C270.896 167.843 268.862 167 266.74 167H238" stroke="white" stroke-width="3" stroke-miterlimit="10"/>
<path d="M159 255C138.013 255 121 272.013 121 293C121 313.987 138.013 331 159 331C179.987 331 197 313.987 197 293C197 272.013 179.987 255 159 255Z" stroke="white" stroke-width="3" stroke-miterlimit="10"/>
<path d="M159.333 292.833C156.902 292.833 154.571 291.868 152.852 290.148C151.132 288.429 150.167 286.098 150.167 283.667C150.167 281.236 151.132 278.904 152.852 277.185C154.571 275.466 156.902 274.5 159.333 274.5C161.764 274.5 164.096 275.466 165.815 277.185C167.534 278.904 168.5 281.236 168.5 283.667C168.5 286.098 167.534 288.429 165.815 290.148C164.096 291.868 161.764 292.833 159.333 292.833ZM159.333 298.833C167.256 298.833 173.96 300.189 178.696 305.484C178.99 305.812 179.167 306.285 179.167 306.828C179.167 308.119 178.119 309.167 176.828 309.167H141.839C140.547 309.167 139.5 308.119 139.5 306.827C139.5 306.285 139.676 305.812 139.97 305.484C144.706 300.187 151.41 298.833 159.333 298.833Z" stroke="#01D2A6" stroke-width="3"/>
<path d="M119 2C98.0132 1.99999 81 19.0132 81 40C81 60.9868 98.0132 78 119 78C139.987 78 157 60.9868 157 40C157 19.0132 139.987 2 119 2Z" stroke="white" stroke-width="3" stroke-miterlimit="10"/>
<path d="M119.333 40.8333C116.902 40.8333 114.571 39.8676 112.852 38.1485C111.132 36.4294 110.167 34.0978 110.167 31.6667C110.167 29.2355 111.132 26.9039 112.852 25.1849C114.571 23.4658 116.902 22.5 119.333 22.5C121.764 22.5 124.096 23.4658 125.815 25.1849C127.534 26.9039 128.5 29.2355 128.5 31.6667C128.5 34.0978 127.534 36.4294 125.815 38.1485C124.096 39.8676 121.764 40.8333 119.333 40.8333ZM119.333 46.8333C127.256 46.8333 133.96 48.1889 138.696 53.4837C138.99 53.8124 139.167 54.2849 139.167 54.8275C139.167 56.1194 138.119 57.1667 136.828 57.1667H101.839C100.547 57.1667 99.5 56.1193 99.5 54.8272C99.5 54.2846 99.6762 53.8123 99.9701 53.4836C104.706 48.1867 111.41 46.8333 119.333 46.8333Z" stroke="#01D2A6" stroke-width="3"/>
</g>
<defs>
<linearGradient id="paint0_linear_1_7429" x1="174.39" y1="88.15" x2="96.9" y2="162.86" gradientUnits="userSpaceOnUse">
<stop stop-color="#00DE8E"/>
<stop offset="1" stop-color="#00A7FF"/>
</linearGradient>
<linearGradient id="paint1_linear_1_7429" x1="202.34" y1="117.14" x2="124.85" y2="191.85" gradientUnits="userSpaceOnUse">
<stop stop-color="#00DE8E"/>
<stop offset="1" stop-color="#00A7FF"/>
</linearGradient>
<linearGradient id="paint2_linear_1_7429" x1="207.06" y1="122.04" x2="129.56" y2="196.74" gradientUnits="userSpaceOnUse">
<stop stop-color="#00DE8E"/>
<stop offset="1" stop-color="#00A7FF"/>
</linearGradient>
<linearGradient id="paint3_linear_1_7429" x1="206.39" y1="149.57" x2="159.61" y2="194.66" gradientUnits="userSpaceOnUse">
<stop stop-color="#00DE8E"/>
<stop offset="1" stop-color="#00A7FF"/>
</linearGradient>
<linearGradient id="paint4_linear_1_7429" x1="190.46" y1="104.81" x2="112.96" y2="179.52" gradientUnits="userSpaceOnUse">
<stop stop-color="#00DE8E"/>
<stop offset="1" stop-color="#00A7FF"/>
</linearGradient>
<linearGradient id="paint5_linear_1_7429" x1="185.58" y1="98.6399" x2="106.01" y2="175.36" gradientUnits="userSpaceOnUse">
<stop stop-color="#00DE8E"/>
<stop offset="1" stop-color="#00A7FF"/>
</linearGradient>
<clipPath id="clip0_1_7429">
<rect width="277" height="333" fill="white"/>
</clipPath>
</defs>
</svg>
