<svg width="506" height="388" viewBox="0 0 506 388" fill="none" xmlns="http://www.w3.org/2000/svg">
<g clip-path="url(#clip0_1_7397)">
<path d="M116.23 140.06L116.23 247.94C116.23 261.195 126.975 271.94 140.23 271.94H366.3C379.555 271.94 390.3 261.195 390.3 247.94V140.06C390.3 126.805 379.555 116.06 366.3 116.06L140.23 116.06C126.975 116.06 116.23 126.805 116.23 140.06Z" stroke="white" stroke-width="3" stroke-miterlimit="10"/>
<path d="M154 77L154 116" stroke="white" stroke-width="3" stroke-miterlimit="10"/>
<path d="M429 154L390 154" stroke="white" stroke-width="3" stroke-miterlimit="10"/>
<path d="M174.3 281.85H333.7" stroke="white" stroke-width="3" stroke-miterlimit="10" stroke-linecap="round"/>
<path d="M213.13 220C211.521 220.003 209.96 219.453 208.71 218.44L189 202.52C187.744 201.488 186.732 200.191 186.037 198.721C185.343 197.251 184.982 195.646 184.982 194.02C184.982 192.394 185.343 190.789 186.037 189.319C186.732 187.849 187.744 186.552 189 185.52L208.72 169.6C210.179 168.427 212.044 167.88 213.905 168.082C215.766 168.284 217.471 169.216 218.645 170.675C219.819 172.134 220.365 173.999 220.163 175.86C219.961 177.722 219.029 179.427 217.57 180.6L200.87 194L217.56 207.48C218.719 208.383 219.564 209.628 219.976 211.038C220.388 212.448 220.346 213.951 219.856 215.336C219.366 216.721 218.453 217.917 217.246 218.754C216.039 219.591 214.599 220.027 213.13 220Z" fill="url(#paint0_linear_1_7397)"/>
<path d="M294.84 220.16C293.375 220.185 291.938 219.75 290.733 218.916C289.528 218.081 288.616 216.889 288.124 215.509C287.633 214.128 287.587 212.628 287.993 211.22C288.4 209.811 289.238 208.566 290.39 207.66L307.16 194L290.39 180.34C288.942 179.161 288.021 177.455 287.831 175.598C287.641 173.74 288.196 171.883 289.375 170.435C290.554 168.987 292.26 168.066 294.117 167.876C295.975 167.686 297.832 168.241 299.28 169.42L319 185.51C320.266 186.536 321.287 187.831 321.988 189.302C322.689 190.772 323.053 192.381 323.053 194.01C323.053 195.639 322.689 197.248 321.988 198.718C321.287 200.189 320.266 201.484 319 202.51L299.24 218.6C297.995 219.608 296.442 220.159 294.84 220.16Z" fill="url(#paint1_linear_1_7397)"/>
<path d="M243.28 224C242.094 224.009 240.926 223.717 239.884 223.152C238.842 222.586 237.961 221.765 237.323 220.765C236.686 219.766 236.312 218.621 236.238 217.437C236.164 216.254 236.392 215.071 236.9 214L258.3 168.09C258.694 167.252 259.249 166.5 259.934 165.877C260.618 165.253 261.419 164.771 262.29 164.457C263.161 164.143 264.085 164.004 265.01 164.048C265.935 164.091 266.842 164.316 267.68 164.71C268.518 165.104 269.27 165.659 269.893 166.344C270.516 167.028 270.999 167.829 271.313 168.7C271.627 169.571 271.766 170.495 271.722 171.42C271.679 172.345 271.454 173.252 271.06 174.09L249.67 220C249.098 221.207 248.192 222.225 247.059 222.934C245.927 223.642 244.616 224.012 243.28 224Z" fill="url(#paint2_linear_1_7397)"/>
<path d="M154 19.4642L154.402 18.0561C154.139 17.9813 153.861 17.9813 153.598 18.0561L154 19.4642ZM133.466 25.3312L133.065 23.9231C132.732 24.018 132.443 24.2276 132.25 24.5149C132.057 24.8021 131.971 25.1484 132.009 25.4926L133.466 25.3312ZM136.4 51.7328L134.942 51.8941C134.969 52.1374 135.056 52.3701 135.196 52.5709C135.336 52.7718 135.524 52.9344 135.743 53.0441L136.4 51.7328ZM154 60.5333L153.343 61.8446C153.547 61.9468 153.772 62 154 62C154.228 62 154.453 61.9468 154.657 61.8446L154 60.5333ZM171.6 51.7328L172.257 53.0441C172.476 52.9344 172.664 52.7718 172.804 52.5709C172.943 52.3701 173.031 52.1374 173.058 51.8941L171.6 51.7328ZM174.533 25.3312L175.991 25.4926C176.029 25.1479 175.944 24.8009 175.751 24.5131C175.558 24.2252 175.269 24.0152 174.935 23.9202L174.533 25.3312ZM154 26.798L155.343 26.2113L154 23.1399L152.656 26.2113L154 26.798ZM153.598 18.0561L133.065 23.9231L133.868 26.7393L154.402 20.8723L153.598 18.0561ZM132.009 25.4896L134.942 51.8912L137.858 51.5685L134.924 25.167L132.009 25.4896ZM135.743 53.0441L153.343 61.8446L154.657 59.2191L137.057 50.4186L135.743 53.0441ZM154.657 61.8446L172.257 53.0441L170.943 50.4186L153.343 59.2191L154.657 61.8446ZM173.058 51.8912L175.991 25.4896L173.075 25.167L170.142 51.5685L173.058 51.8912ZM174.935 23.9173L154.402 18.0503L153.598 20.8723L174.131 26.7393L174.935 23.9173ZM145.077 50.8527L155.343 27.3847L152.656 26.2113L142.39 49.6793L145.077 50.8527ZM152.656 27.3847L162.923 50.8527L165.61 49.6793L155.343 26.2113L152.656 27.3847ZM146.667 44.399H161.333V41.4655H146.667V44.399Z" fill="#01D2A6"/>
<path d="M116.461 237.59L78.9414 237.59" stroke="white" stroke-width="3" stroke-miterlimit="10"/>
<path d="M458.886 164.758C458.886 164.758 456.811 165.961 460.358 166.364C464.656 166.857 466.854 166.788 471.585 165.89C471.585 165.89 472.828 166.673 474.568 167.35C463.951 171.877 450.543 167.078 458.884 164.758H458.886ZM457.586 158.851C457.586 158.851 455.256 160.564 458.804 160.924C463.405 161.398 467.022 161.443 473.297 160.24C473.297 160.24 474.163 161.111 475.532 161.592C462.699 165.326 448.398 161.882 457.586 158.851ZM468.521 148.824C471.133 151.821 467.832 154.52 467.832 154.52C467.832 154.52 474.47 151.099 471.424 146.829C468.576 142.839 466.386 140.862 478.211 134.031C478.211 134.031 459.65 138.647 468.52 148.826L468.521 148.824ZM482.556 169.135C482.556 169.135 484.094 170.391 480.87 171.368C474.744 173.212 455.371 173.766 449.987 171.437C448.055 170.602 451.682 169.434 452.821 169.196C454.012 168.933 454.692 168.987 454.692 168.987C452.538 167.475 440.782 171.948 448.718 173.231C470.369 176.729 488.178 171.658 482.556 169.135ZM459.882 152.726C459.882 152.726 450.024 155.054 456.386 155.898C459.079 156.258 464.437 156.18 469.433 155.758C473.509 155.414 477.606 154.685 477.606 154.685C477.606 154.685 476.168 155.299 475.125 156.013C465.115 158.632 445.779 157.41 451.348 154.73C456.052 152.471 459.882 152.726 459.882 152.726ZM477.561 162.569C487.729 157.296 483.024 152.241 479.75 152.928C478.945 153.085 478.584 153.237 478.584 153.237C478.584 153.237 478.876 152.77 479.45 152.569C485.946 150.292 490.942 159.273 477.357 162.834C477.357 162.826 477.518 162.692 477.561 162.569ZM471.426 123C471.426 123 477.059 128.608 466.078 137.238C457.279 144.163 464.073 148.11 466.078 152.619C460.941 148.004 457.172 143.946 459.697 140.165C463.412 134.602 473.695 131.912 471.426 123ZM460.879 176.834C470.641 177.448 485.636 176.483 486 171.886C486 171.886 485.31 173.626 477.922 175.013C469.591 176.577 459.308 176.391 453.209 175.391C453.209 175.391 454.463 176.418 460.877 176.834H460.879Z" fill="#01D2A6"/>
<path d="M352 311V272" stroke="white" stroke-width="3" stroke-miterlimit="10"/>
<g clip-path="url(#clip1_1_7397)">
<path d="M347 331.333H350.333M342 336.333V328C342 327.116 342.351 326.268 342.976 325.643C343.601 325.018 344.449 324.667 345.333 324.667H358.667C359.551 324.667 360.399 325.018 361.024 325.643C361.649 326.268 362 327.116 362 328V344.667C362 345.551 361.649 346.399 361.024 347.024C360.399 347.649 359.551 348 358.667 348H345.333C344.449 348 343.601 348.351 342.976 348.976C342.351 349.602 342 350.449 342 351.333V368C342 368.884 342.351 369.732 342.976 370.357C343.601 370.982 344.449 371.333 345.333 371.333H358.667C359.551 371.333 360.399 370.982 361.024 370.357C361.649 369.732 362 368.884 362 368V359.667M353.667 338H332C331.116 338 330.268 338.351 329.643 338.976C329.018 339.602 328.667 340.449 328.667 341.333V358C328.667 358.884 329.018 359.732 329.643 360.357C330.268 360.982 331.116 361.333 332 361.333H342M350.333 358H372C372.884 358 373.732 357.649 374.357 357.024C374.982 356.399 375.333 355.551 375.333 354.667V338C375.333 337.116 374.982 336.268 374.357 335.643C373.732 335.018 372.884 334.667 372 334.667H362M353.667 364.667H357" stroke="#01D2A6" stroke-width="3"/>
</g>
<path d="M352 310.5C331.013 310.5 314 327.513 314 348.5C314 369.487 331.013 386.5 352 386.5C372.987 386.5 390 369.487 390 348.5C390 327.513 372.987 310.5 352 310.5Z" stroke="white" stroke-width="3" stroke-miterlimit="10"/>
<path d="M2 234C2 254.987 19.0132 272 40 272C60.9868 272 78 254.987 78 234C78 213.013 60.9868 196 40 196C19.0132 196 2 213.013 2 234Z" stroke="white" stroke-width="3" stroke-miterlimit="10"/>
<path d="M25.3892 218.897C33.6874 210.843 46.9556 211.06 54.9944 219.417C55.902 218.205 56.6799 216.862 57.2418 215.477C59.8783 223.531 61.4774 230.286 60.8722 235.525C60.5696 239.942 58.8409 244.185 55.9884 247.563C48.5549 256.396 35.3296 257.522 26.5129 250.074L26.3442 249.924L26.3352 249.918C26.3074 249.899 26.2802 249.879 26.2535 249.858C26.1731 249.795 26.1001 249.727 26.0343 249.654L26.0107 249.627L25.735 249.382C25.466 249.151 25.1971 248.92 24.9586 248.658L24.8706 248.559C16.8317 240.245 17.0912 226.951 25.3892 218.897ZM28.5008 247.087C27.7228 246.48 26.5992 246.567 25.9939 247.346C25.4621 248.032 25.4647 248.985 26.002 249.617L26.0107 249.627L26.3442 249.924L26.3769 249.946C27.1322 250.444 28.1487 250.341 28.7283 249.638L28.7602 249.598C29.3652 248.819 29.2356 247.693 28.5009 247.086M57.0259 217.642C54.8648 222.188 49.5054 225.652 44.8811 226.735C40.5159 227.774 36.7125 226.908 32.6932 228.467C23.5307 231.974 23.7037 242.886 28.717 245.354L29.0195 245.528C29.0195 245.528 32.641 244.806 36.2221 243.854L36.5289 243.771C37.9592 243.385 39.3663 242.964 40.5159 242.54C46.4801 240.332 53.0496 234.876 55.2105 228.554C54.0868 235.135 48.4251 241.501 42.7632 244.402C39.7379 245.961 37.4042 246.307 32.434 248.039C31.8289 248.256 31.3535 248.472 31.3535 248.472L31.5352 248.448L31.656 248.432L31.7762 248.417C32.8738 248.28 33.8601 248.212 33.8601 248.212C40.9049 247.866 51.9691 250.204 57.1122 243.319C62.385 236.305 59.4462 224.96 57.0259 217.642Z" fill="#01D2A6"/>
<path d="M154 2C133.013 1.99999 116 19.0132 116 40C116 60.9868 133.013 78 154 78C174.987 78 192 60.9868 192 40C192 19.0132 174.987 2 154 2Z" stroke="white" stroke-width="3" stroke-miterlimit="10"/>
<path d="M504 154C504 133.013 486.987 116 466 116C445.013 116 428 133.013 428 154C428 174.987 445.013 192 466 192C486.987 192 504 174.987 504 154Z" stroke="white" stroke-width="3" stroke-miterlimit="10"/>
</g>
<defs>
<linearGradient id="paint0_linear_1_7397" x1="286.57" y1="118.64" x2="211.83" y2="193.38" gradientUnits="userSpaceOnUse">
<stop stop-color="#00DE8E"/>
<stop offset="1" stop-color="#00A7FF"/>
</linearGradient>
<linearGradient id="paint1_linear_1_7397" x1="329.31" y1="161.38" x2="254.57" y2="236.12" gradientUnits="userSpaceOnUse">
<stop stop-color="#00DE8E"/>
<stop offset="1" stop-color="#00A7FF"/>
</linearGradient>
<linearGradient id="paint2_linear_1_7397" x1="307.96" y1="140.03" x2="233.22" y2="214.77" gradientUnits="userSpaceOnUse">
<stop stop-color="#00DE8E"/>
<stop offset="1" stop-color="#00A7FF"/>
</linearGradient>
<clipPath id="clip0_1_7397">
<rect width="506" height="388" fill="white"/>
</clipPath>
<clipPath id="clip1_1_7397">
<rect width="50" height="50" fill="white" transform="translate(327 323)"/>
</clipPath>
</defs>
</svg>
